<svg width="337" height="34" viewBox="0 0 337 34" fill="none" xmlns="http://www.w3.org/2000/svg">
<path fill-rule="evenodd" clip-rule="evenodd" d="M186.328 26.3205V3.09762Z" fill="#FF3838"/>
<path d="M186.328 26.3205V3.09762" stroke="#FF3838" stroke-linecap="square"/>
<path fill-rule="evenodd" clip-rule="evenodd" d="M218.37 26.7253H216.356L212.821 14.6216C212.653 14.0858 212.465 13.41 212.257 12.594C212.05 11.778 211.942 11.2876 211.934 11.1227C211.758 12.2107 211.478 13.4017 211.095 14.6957L207.667 26.7253H205.654L200.991 8.65007H203.149L205.917 19.8142C206.301 21.3802 206.58 22.7978 206.756 24.0672C206.972 22.5588 207.292 21.0835 207.715 19.6411L210.855 8.65007H213.012L216.308 19.74C216.692 21.0175 217.016 22.4599 217.279 24.0672C217.431 22.8968 217.719 21.4709 218.142 19.7894L220.899 8.65007H223.056L218.37 26.7253ZM230.559 26.9725C228.617 26.9725 227.085 26.3626 225.963 25.1428C224.84 23.9229 224.279 22.2291 224.279 20.0614C224.279 17.8772 224.8 16.1423 225.843 14.8565C226.885 13.5707 228.286 12.9278 230.044 12.9278C231.69 12.9278 232.992 13.4862 233.951 14.603C234.91 15.7198 235.389 17.1931 235.389 19.0229V20.3211H226.34C226.38 21.9118 226.77 23.1193 227.509 23.9435C228.248 24.7677 229.288 25.1799 230.631 25.1799C232.045 25.1799 233.443 24.8749 234.826 24.265V26.0947C234.123 26.4079 233.457 26.6325 232.83 26.7685C232.203 26.9045 231.446 26.9725 230.559 26.9725ZM230.02 14.6463C228.965 14.6463 228.124 15.0007 227.497 15.7095C226.87 16.4184 226.5 17.3992 226.388 18.652H233.256C233.256 17.358 232.976 16.3669 232.417 15.6786C231.857 14.9904 231.058 14.6463 230.02 14.6463ZM244.893 12.9525C246.619 12.9525 247.96 13.5604 248.914 14.7761C249.869 15.9918 250.347 17.7124 250.347 19.9378C250.347 22.1632 249.865 23.892 248.902 25.1242C247.94 26.3564 246.603 26.9725 244.893 26.9725C244.038 26.9725 243.257 26.8098 242.55 26.4842C241.843 26.1586 241.25 25.6579 240.77 24.982H240.627L240.207 26.7253H238.781V7.48792H240.77V12.1613C240.77 13.208 240.738 14.1476 240.674 14.9801H240.77C241.697 13.6284 243.072 12.9525 244.893 12.9525ZM244.606 14.671C243.247 14.671 242.269 15.0728 241.669 15.8764C241.07 16.6801 240.77 18.0338 240.77 19.9378C240.77 21.8418 241.078 23.2038 241.693 24.0239C242.308 24.844 243.295 25.254 244.654 25.254C245.876 25.254 246.787 24.7945 247.386 23.8755C247.986 22.9565 248.285 21.6357 248.285 19.9131C248.285 18.1492 247.986 16.8346 247.386 15.9692C246.787 15.1037 245.86 14.671 244.606 14.671ZM265.136 26.7253L262.955 20.9763H255.932L253.774 26.7253H251.713L258.64 8.5759H260.354L267.246 26.7253H265.136ZM262.32 19.0847L260.282 13.4841C260.019 12.7753 259.747 11.9058 259.467 10.8755C259.292 11.6667 259.04 12.5363 258.712 13.4841L256.651 19.0847H262.32ZM278.296 24.9079H278.188C277.269 26.2843 275.895 26.9725 274.065 26.9725C272.348 26.9725 271.011 26.3667 270.056 25.1551C269.102 23.9435 268.624 22.2209 268.624 19.9873C268.624 17.7536 269.104 16.0186 270.062 14.7823C271.021 13.5459 272.356 12.9278 274.065 12.9278C275.847 12.9278 277.214 13.5954 278.164 14.9306H278.32L278.236 13.9539L278.188 13.002V7.48792H280.178V26.7253H278.56L278.296 24.9079ZM274.317 25.254C275.676 25.254 276.66 24.8728 277.272 24.1104C277.883 23.348 278.188 22.1179 278.188 20.42V19.9872C278.188 18.0668 277.879 16.6965 277.26 15.8764C276.64 15.0563 275.652 14.6463 274.293 14.6463C273.127 14.6463 272.234 15.114 271.615 16.0495C270.995 16.985 270.686 18.3058 270.686 20.012C270.686 21.7429 270.993 23.0492 271.609 23.9312C272.224 24.8131 273.127 25.254 274.317 25.254ZM287.273 26.7253L282.287 13.1751H284.421L287.249 21.2112C287.888 23.0905 288.264 24.3103 288.376 24.8708H288.472C288.56 24.4339 288.837 23.5294 289.305 22.157C289.772 20.7847 290.821 17.7907 292.451 13.1751H294.584L289.598 26.7253H287.273ZM298.683 26.7253H296.694V13.1751H298.683V26.7253ZM296.526 9.50314C296.526 9.03333 296.638 8.68922 296.861 8.4708C297.085 8.25238 297.365 8.14317 297.7 8.14317C298.02 8.14317 298.296 8.25444 298.527 8.47698C298.759 8.69952 298.875 9.04157 298.875 9.50314C298.875 9.96471 298.759 10.3088 298.527 10.5355C298.296 10.7621 298.02 10.8755 297.7 10.8755C297.365 10.8755 297.085 10.7621 296.861 10.5355C296.638 10.3088 296.526 9.96471 296.526 9.50314ZM311.376 23.0286C311.376 24.2897 310.92 25.2623 310.009 25.9464C309.098 26.6305 307.82 26.9725 306.174 26.9725C304.432 26.9725 303.074 26.6882 302.099 26.1195V24.2155C302.73 24.5452 303.407 24.8048 304.131 24.9944C304.854 25.184 305.551 25.2788 306.222 25.2788C307.261 25.2788 308.06 25.1077 308.619 24.7657C309.178 24.4236 309.458 23.9023 309.458 23.2017C309.458 22.6742 309.236 22.223 308.793 21.8479C308.349 21.4729 307.484 21.0299 306.198 20.5189C304.976 20.0491 304.107 19.639 303.591 19.2887C303.076 18.9384 302.692 18.5407 302.441 18.0957C302.189 17.6506 302.063 17.119 302.063 16.5008C302.063 15.3963 302.499 14.5247 303.369 13.8859C304.24 13.2472 305.435 12.9278 306.953 12.9278C308.367 12.9278 309.75 13.2245 311.1 13.8179L310.393 15.487C309.074 14.9265 307.88 14.6463 306.809 14.6463C305.866 14.6463 305.155 14.7988 304.676 15.1037C304.196 15.4087 303.957 15.829 303.957 16.3648C303.957 16.7274 304.047 17.0365 304.226 17.292C304.406 17.5475 304.696 17.7907 305.095 18.0215C305.495 18.2523 306.262 18.5861 307.397 19.0229C308.955 19.6081 310.007 20.1974 310.555 20.7909C311.102 21.3843 311.376 22.1302 311.376 23.0286ZM325.95 19.9378C325.95 22.1467 325.41 23.8714 324.332 25.1119C323.253 26.3523 321.763 26.9725 319.861 26.9725C318.686 26.9725 317.644 26.6882 316.733 26.1195C315.822 25.5507 315.119 24.7348 314.623 23.6715C314.128 22.6083 313.88 21.3637 313.88 19.9378C313.88 17.7289 314.416 16.0083 315.486 14.7761C316.557 13.5439 318.043 12.9278 319.945 12.9278C321.783 12.9278 323.243 13.5583 324.326 14.8194C325.408 16.0804 325.95 17.7866 325.95 19.9378ZM315.942 19.9378C315.942 21.6687 316.277 22.9874 316.949 23.8941C317.62 24.8007 318.607 25.254 319.909 25.254C321.211 25.254 322.2 24.8028 322.875 23.9003C323.551 22.9977 323.888 21.6769 323.888 19.9378C323.888 18.2152 323.551 16.9067 322.875 16.0124C322.2 15.1182 321.203 14.671 319.885 14.671C318.583 14.671 317.6 15.112 316.937 15.9939C316.273 16.8758 315.942 18.1904 315.942 19.9378ZM335.43 12.9278C336.013 12.9278 336.537 12.9772 337 13.0761L336.724 14.9801C336.181 14.8565 335.702 14.7946 335.286 14.7946C334.223 14.7946 333.315 15.2397 332.559 16.1299C331.804 17.02 331.427 18.1286 331.427 19.4556V26.7253H329.437V13.175H331.079L331.307 15.6848H331.403C331.89 14.8029 332.478 14.1229 333.165 13.6449C333.852 13.1668 334.607 12.9278 335.43 12.9278Z" fill="#FF3838"/>
<path fill-rule="evenodd" clip-rule="evenodd" d="M85.1135 21.6368L80.6667 18.9946L80.3362 19.5121C79.3227 21.1045 77.9373 21.9126 76.2206 21.9111C73.2798 21.9096 71.0627 19.6903 71.0642 16.7487C71.0664 13.8078 73.285 11.5915 76.2266 11.593C77.9676 11.5944 79.2754 12.3588 80.3429 14.0008L80.6748 14.5109L85.1423 11.8628L84.7564 11.3039C82.6221 8.21222 79.8328 6.70927 76.2295 6.70705C69.4178 6.70409 65.7391 11.8761 65.7369 16.745C65.734 21.6146 69.406 26.7918 76.2177 26.7955C79.6886 26.797 82.9629 25.0323 84.7645 22.1883L85.1135 21.6368Z" fill="#FF3838"/>
<path fill-rule="evenodd" clip-rule="evenodd" d="M97.5201 10.6831L100.009 16.9315L94.9969 16.9278L97.5201 10.6831ZM84.8912 26.7985L91.0391 26.8022L92.8658 22.2578L102.093 22.2623L103.914 26.8089L110.089 26.8126L99.075 0.178494L93.5911 0.175537L95.0511 3.70634L84.8912 26.7985Z" fill="#FF3838"/>
<path fill-rule="evenodd" clip-rule="evenodd" d="M112.634 26.8148L118.029 26.8178L118.036 14.8644L121.554 14.8673L121.557 9.85279L118.039 9.85057L118.04 7.48044C118.04 6.46319 118.721 5.3831 119.983 5.38384C120.677 5.38458 121.095 5.50287 121.513 5.68177L122.113 5.94052L124.355 1.04722L123.709 0.783301C122.706 0.372261 121.31 0.224405 120.336 0.223665C117.889 0.222187 115.873 1.02209 114.502 2.53613C113.306 3.85797 112.647 5.69656 112.645 7.71184L112.644 9.84688L110.262 9.84614L110.259 14.8614L112.642 14.8622L112.634 26.8148Z" fill="#FF3838"/>
<path fill-rule="evenodd" clip-rule="evenodd" d="M40.3024 0.022644V26.7742L46.1642 26.7779L46.173 11.4837L51.8544 15.7168L57.5409 11.4837V26.7846L63.3946 26.7876L63.4093 0.022644L51.8588 8.75059L40.3024 0.022644Z" fill="#FF3838"/>
<path fill-rule="evenodd" clip-rule="evenodd" d="M128.998 14.336C129.703 12.5115 131.223 11.4462 133.186 11.4469C135.17 11.4477 136.719 12.4915 137.541 14.3405L128.998 14.336ZM133.704 6.79764C126.913 6.79394 123.245 11.9526 123.242 16.8068C123.24 21.6624 126.902 26.8233 133.693 26.827H133.696H133.7C136.814 26.7937 139.734 25.3743 141.995 22.8156L137.595 20.4152C136.466 21.5707 135.097 22.1784 133.584 22.1776C131.368 22.1762 129.403 20.6991 128.89 18.7681L143.563 18.7762L143.564 17.4433C143.568 10.1044 137.801 6.8006 133.704 6.79764V6.79764Z" fill="#FF3838"/>
<path fill-rule="evenodd" clip-rule="evenodd" d="M151.053 14.3506C151.757 12.5253 153.276 11.46 155.241 11.4607C157.226 11.4622 158.774 12.5053 159.596 14.355L151.053 14.3506ZM155.758 6.8118C148.967 6.8081 145.3 11.9661 145.297 16.8202C145.294 21.6758 148.955 26.8367 155.748 26.8411H155.751H155.754C158.869 26.8071 161.789 25.3877 164.049 22.829L159.649 20.4293C158.52 21.5848 157.151 22.1925 155.639 22.1918C153.423 22.1903 151.458 20.7132 150.945 18.7822L165.617 18.7896L165.619 17.4574C165.623 10.1186 159.855 6.81402 155.758 6.8118V6.8118Z" fill="#FF3838"/>
<path fill-rule="evenodd" clip-rule="evenodd" d="M164.929 5.7692H167.213V6.19576H166.316V8.59029H165.823V6.19576H164.929V5.7692Z" fill="#FF3838"/>
<path fill-rule="evenodd" clip-rule="evenodd" d="M167.865 5.7692H168.56L169.338 7.97817H169.346L170.105 5.7692H170.792V8.59029H170.322V6.41311H170.314L169.533 8.59029H169.125L168.342 6.41311H168.335V8.59029H167.865V5.7692Z" fill="#FF3838"/>
<path fill-rule="evenodd" clip-rule="evenodd" d="M5.93938 22.8421V9.2867L14.4906 13.2411V6.7007L0 -0.000137329V26.6332L14.4906 33.3399V26.7988L5.93938 22.8421Z" fill="#FF3838"/>
<path fill-rule="evenodd" clip-rule="evenodd" d="M23.0419 22.842V9.2866L14.4906 13.241V6.70059L28.9813 -0.000244141V26.6331L14.4906 33.3398V26.7987L23.0419 22.842Z" fill="#FF3838"/>
</svg>
