<svg width="20" height="20" viewBox="0 0 20 20" fill="none" xmlns="http://www.w3.org/2000/svg">
<path d="M13.8813 7.4805C13.4777 4.46987 10.7099 2.35647 7.69925 2.76009C4.68862 3.16372 2.57522 5.93152 2.97884 8.94215C3.38247 11.9528 6.15027 14.0662 9.1609 13.6626C12.1715 13.2589 14.2849 10.4911 13.8813 7.4805ZM13.193 14.0061C12.1506 14.8646 10.8636 15.4522 9.42666 15.6448C5.32125 16.1952 1.54698 13.3133 0.99658 9.20791C0.446182 5.1025 3.32809 1.32823 7.43349 0.77783C11.5389 0.227432 15.3132 3.10933 15.8636 7.21474C16.1255 9.1683 15.6102 11.0469 14.5557 12.5388L19.9484 18.0756L18.5157 19.471L13.193 14.0061Z" fill="#706E6E"/>
</svg>
