<svg width="30" height="25" viewBox="0 0 30 25" fill="none" xmlns="http://www.w3.org/2000/svg">
<path d="M12.2971 1.69347C13.4384 -0.0996451 16.1264 -0.0996474 17.2677 1.69347L28.9179 19.9974C30.1193 21.8851 28.7195 24.3193 26.4326 24.3193H3.13223C0.845283 24.3193 -0.554504 21.8851 0.646948 19.9975L12.2971 1.69347ZM16.2567 19.6667C16.2567 18.8843 15.6028 18.25 14.7963 18.25C13.9897 18.25 13.3358 18.8843 13.3358 19.6667C13.3358 20.4491 13.9897 21.0833 14.7963 21.0833C15.6028 21.0833 16.2567 20.4491 16.2567 19.6667ZM13.3358 6.91667L13.3361 15.4167H16.2567V6.91667H13.3358Z" fill="#FF3838"/>
</svg>
