<svg width="30" height="25" viewBox="0 0 30 25" fill="none" xmlns="http://www.w3.org/2000/svg">
<path d="M12.2972 1.69347C13.4385 -0.0996451 16.1265 -0.0996474 17.2678 1.69347L28.918 19.9974C30.1194 21.8851 28.7196 24.3193 26.4327 24.3193H3.13235C0.845405 24.3193 -0.554382 21.8851 0.64707 19.9975L12.2972 1.69347ZM16.2568 19.6667C16.2568 18.8843 15.6029 18.25 14.7964 18.25C13.9898 18.25 13.336 18.8843 13.336 19.6667C13.336 20.4491 13.9898 21.0833 14.7964 21.0833C15.6029 21.0833 16.2568 20.4491 16.2568 19.6667ZM13.336 6.91667L13.3362 15.4167H16.2568V6.91667H13.336Z" fill="#A19C9C"/>
</svg>
