<svg width="1366" height="264" viewBox="0 0 1366 264" fill="none" xmlns="http://www.w3.org/2000/svg">
<g clip-path="url(#clip0)">
<path opacity="0.5" d="M0 60.8813C0 60.8813 270.49 190.685 485.17 190.685C613.31 190.685 710.41 153.286 737.5 140.863C764.59 128.44 971.83 27.914 1048.61 13.195C1125.9 -1.62429 1203.83 -15.9522 1366 41.6704V268H0V60.8813Z" fill="#FFC37A"/>
<path opacity="0.5" d="M0 103.875C0 103.875 472 173.419 796.28 176.066C1120.56 178.713 1366 156.204 1366 156.204V263.318L0 268V103.875Z" fill="#FF8C24"/>
<path opacity="0.15" d="M0 152.755C0 152.755 215.56 197.794 392.35 193.162C569.14 188.529 784.05 152.755 784.05 152.755C784.05 152.755 1003.56 99.7744 1098.85 91.8233C1194.14 83.8722 1366 91.8233 1366 91.8233V268L0 264.511V152.755Z" fill="#FF8C24"/>
</g>
<defs>
<clipPath id="clip0">
<rect width="1366" height="268" fill="white"/>
</clipPath>
</defs>
</svg>
