<svg width="171" height="17" viewBox="0 0 171 17" fill="none" xmlns="http://www.w3.org/2000/svg">
<path fill-rule="evenodd" clip-rule="evenodd" d="M94.5465 13.3555V1.57181Z" fill="#FF3838"/>
<path d="M94.5465 13.3555V1.57181" stroke="#FF3838" stroke-linecap="square"/>
<path fill-rule="evenodd" clip-rule="evenodd" d="M110.805 13.5609H109.783L107.989 7.41928C107.904 7.14743 107.809 6.80449 107.703 6.39045C107.598 5.9764 107.543 5.72756 107.539 5.64391C107.45 6.19597 107.308 6.8003 107.113 7.45692L105.374 13.5609H104.352L101.987 4.38924H103.081L104.486 10.0541C104.681 10.8487 104.823 11.5681 104.912 12.2121C105.021 11.4468 105.184 10.6982 105.398 9.96628L106.992 4.38924H108.086L109.759 10.0165C109.953 10.6647 110.118 11.3966 110.251 12.2121C110.329 11.6183 110.474 10.8947 110.689 10.0416L112.088 4.38924H113.183L110.805 13.5609ZM116.99 13.6864C116.005 13.6864 115.227 13.3769 114.658 12.7579C114.088 12.1389 113.803 11.2795 113.803 10.1796C113.803 9.07126 114.068 8.1909 114.597 7.53847C115.126 6.88603 115.836 6.55982 116.728 6.55982C117.564 6.55982 118.224 6.84316 118.711 7.40986C119.197 7.97656 119.441 8.72413 119.441 9.6526V10.3113H114.849C114.869 11.1185 115.067 11.7312 115.442 12.1494C115.817 12.5676 116.345 12.7767 117.026 12.7767C117.744 12.7767 118.453 12.622 119.155 12.3125V13.241C118.798 13.3999 118.461 13.5139 118.142 13.5829C117.824 13.6519 117.44 13.6864 116.99 13.6864ZM116.716 7.43182C116.181 7.43182 115.754 7.61166 115.436 7.97133C115.118 8.33101 114.93 8.82869 114.873 9.4644H118.358C118.358 8.80778 118.216 8.30487 117.932 7.95565C117.649 7.60643 117.243 7.43182 116.716 7.43182ZM124.263 6.57237C125.139 6.57237 125.819 6.8808 126.304 7.49769C126.788 8.11458 127.03 8.98761 127.03 10.1168C127.03 11.246 126.786 12.1233 126.298 12.7485C125.809 13.3738 125.131 13.6864 124.263 13.6864C123.83 13.6864 123.433 13.6038 123.074 13.4386C122.716 13.2734 122.415 13.0193 122.171 12.6764H122.098L121.885 13.5609H121.162V3.79953H122.171V6.17087C122.171 6.70202 122.155 7.17879 122.123 7.6012H122.171C122.642 6.91531 123.339 6.57237 124.263 6.57237ZM124.117 7.44436C123.428 7.44436 122.932 7.64825 122.627 8.05602C122.323 8.46379 122.171 9.15072 122.171 10.1168C122.171 11.0829 122.327 11.774 122.64 12.1902C122.952 12.6063 123.452 12.8144 124.142 12.8144C124.762 12.8144 125.224 12.5812 125.528 12.1149C125.832 11.6486 125.984 10.9784 125.984 10.1043C125.984 9.20927 125.832 8.54221 125.528 8.10307C125.224 7.66393 124.754 7.44436 124.117 7.44436ZM134.535 13.5609L133.428 10.6438H129.864L128.77 13.5609H127.724L131.239 4.35158H132.109L135.605 13.5609H134.535ZM133.106 9.68397L132.072 6.84212C131.938 6.48245 131.8 6.04122 131.659 5.51844C131.569 5.91994 131.442 6.36116 131.275 6.84212L130.229 9.68397H133.106ZM141.213 12.6387H141.158C140.692 13.3372 139.994 13.6864 139.066 13.6864C138.194 13.6864 137.516 13.379 137.032 12.7642C136.547 12.1494 136.305 11.2753 136.305 10.1419C136.305 9.00853 136.548 8.12817 137.035 7.50083C137.521 6.87349 138.198 6.55982 139.066 6.55982C139.97 6.55982 140.663 6.89858 141.146 7.57611H141.225L141.182 7.08051L141.158 6.59746V3.79953H142.167V13.5609H141.346L141.213 12.6387ZM139.194 12.8144C139.883 12.8144 140.383 12.621 140.693 12.2341C141.003 11.8472 141.158 11.223 141.158 10.3615V10.1419C141.158 9.16745 141.001 8.47216 140.687 8.05602C140.372 7.63989 139.871 7.43182 139.181 7.43182C138.589 7.43182 138.136 7.66916 137.822 8.14385C137.508 8.61854 137.351 9.28874 137.351 10.1545C137.351 11.0327 137.507 11.6956 137.819 12.1431C138.131 12.5906 138.589 12.8144 139.194 12.8144ZM145.768 13.5609L143.238 6.68529H144.32L145.756 10.763C146.08 11.7166 146.27 12.3355 146.327 12.6199H146.376C146.42 12.3983 146.561 11.9393 146.798 11.2429C147.036 10.5466 147.568 9.02737 148.395 6.68529H149.477L146.947 13.5609H145.768ZM151.557 13.5609H150.548V6.68529H151.557V13.5609ZM150.463 4.82209C150.463 4.5837 150.519 4.4091 150.633 4.29827C150.746 4.18744 150.888 4.13202 151.059 4.13202C151.221 4.13202 151.361 4.18848 151.478 4.3014C151.596 4.41432 151.655 4.58789 151.655 4.82209C151.655 5.0563 151.596 5.23091 151.478 5.34592C151.361 5.46093 151.221 5.51844 151.059 5.51844C150.888 5.51844 150.746 5.46093 150.633 5.34592C150.519 5.23091 150.463 5.0563 150.463 4.82209ZM157.998 11.6852C157.998 12.3251 157.767 12.8186 157.304 13.1657C156.842 13.5128 156.194 13.6864 155.358 13.6864C154.474 13.6864 153.785 13.5421 153.291 13.2535V12.2874C153.611 12.4547 153.954 12.5865 154.321 12.6826C154.688 12.7788 155.042 12.8269 155.383 12.8269C155.91 12.8269 156.315 12.7402 156.599 12.5666C156.883 12.393 157.025 12.1285 157.025 11.773C157.025 11.5053 156.912 11.2764 156.687 11.0861C156.462 10.8958 156.023 10.671 155.37 10.4117C154.75 10.1733 154.309 9.96522 154.048 9.78748C153.786 9.60973 153.592 9.40794 153.464 9.18209C153.336 8.95625 153.272 8.6865 153.272 8.37283C153.272 7.8124 153.493 7.37013 153.935 7.04601C154.377 6.72188 154.983 6.55982 155.754 6.55982C156.471 6.55982 157.173 6.71038 157.858 7.0115L157.499 7.85841C156.83 7.57402 156.224 7.43182 155.681 7.43182C155.202 7.43182 154.841 7.50919 154.598 7.66394C154.355 7.81868 154.233 8.03197 154.233 8.30382C154.233 8.48784 154.279 8.64467 154.37 8.77432C154.461 8.90398 154.608 9.02735 154.811 9.14445C155.014 9.26156 155.403 9.43094 155.979 9.6526C156.769 9.94954 157.303 10.2486 157.581 10.5497C157.859 10.8508 157.998 11.2293 157.998 11.6852ZM165.393 10.1168C165.393 11.2377 165.119 12.1128 164.572 12.7422C164.024 13.3717 163.268 13.6864 162.303 13.6864C161.707 13.6864 161.178 13.5421 160.716 13.2535C160.254 12.9649 159.897 12.5509 159.646 12.0114C159.394 11.4719 159.269 10.8404 159.269 10.1168C159.269 8.99598 159.54 8.12294 160.084 7.49769C160.627 6.87244 161.381 6.55982 162.346 6.55982C163.278 6.55982 164.019 6.87976 164.569 7.51965C165.118 8.15954 165.393 9.02525 165.393 10.1168ZM160.315 10.1168C160.315 10.9951 160.485 11.6643 160.826 12.1243C161.166 12.5844 161.667 12.8144 162.328 12.8144C162.989 12.8144 163.49 12.5854 163.833 12.1274C164.175 11.6695 164.347 10.9993 164.347 10.1168C164.347 9.24273 164.175 8.5788 163.833 8.12502C163.49 7.67125 162.985 7.44436 162.316 7.44436C161.655 7.44436 161.156 7.66811 160.819 8.11561C160.483 8.56312 160.315 9.23018 160.315 10.1168ZM170.203 6.55982C170.499 6.55982 170.765 6.58491 171 6.6351L170.86 7.6012C170.584 7.53847 170.341 7.5071 170.13 7.5071C169.591 7.5071 169.13 7.73294 168.747 8.18463C168.364 8.63631 168.172 9.19882 168.172 9.87217V13.5609H167.162V6.68529H167.996L168.111 7.95878H168.16C168.407 7.51128 168.705 7.16625 169.054 6.92368C169.403 6.6811 169.786 6.55982 170.203 6.55982Z" fill="#FF3838"/>
<path fill-rule="evenodd" clip-rule="evenodd" d="M43.1882 10.9789L40.9318 9.63823L40.7641 9.90082C40.2498 10.7088 39.5468 11.1189 38.6758 11.1181C37.1835 11.1174 36.0585 9.99123 36.0593 8.49861C36.0604 7.00636 37.1862 5.88174 38.6788 5.88249C39.5622 5.88324 40.2258 6.27112 40.7675 7.10427L40.9359 7.3631L43.2028 6.01941L43.007 5.73581C41.924 4.16704 40.5086 3.40442 38.6803 3.40329C35.2239 3.40179 33.3573 6.02616 33.3561 8.49673C33.3546 10.9677 35.2179 13.5947 38.6743 13.5965C40.4355 13.5973 42.0969 12.7019 43.0111 11.2588L43.1882 10.9789Z" fill="#FF3838"/>
<path fill-rule="evenodd" clip-rule="evenodd" d="M49.4835 5.42079L50.7461 8.59134L48.2032 8.58947L49.4835 5.42079ZM43.0753 13.5981L46.1949 13.5999L47.1218 11.294L51.8037 11.2963L52.728 13.6033L55.8611 13.6052L50.2725 0.0905813L47.4898 0.0890808L48.2307 1.88068L43.0753 13.5981Z" fill="#FF3838"/>
<path fill-rule="evenodd" clip-rule="evenodd" d="M57.1526 13.6063L59.8903 13.6078L59.8937 7.54246L61.6785 7.54396L61.68 4.99949L59.8952 4.99837L59.8955 3.79572C59.8955 3.27955 60.2414 2.73149 60.8818 2.73186C61.2336 2.73224 61.4459 2.79226 61.6579 2.88304L61.9625 3.01433L63.0999 0.531385L62.772 0.397465C62.2633 0.188896 61.5547 0.113871 61.0607 0.113496C59.819 0.112746 58.7961 0.51863 58.1006 1.28689C57.4936 1.95761 57.159 2.89054 57.1583 3.91313L57.1575 4.99649L55.9489 4.99612L55.9474 7.54096L57.1564 7.54133L57.1526 13.6063Z" fill="#FF3838"/>
<path fill-rule="evenodd" clip-rule="evenodd" d="M20.4502 0.0115051V13.5858L23.4246 13.5876L23.4291 5.82706L26.3119 7.97502L29.1973 5.82706V13.591L32.1676 13.5925L32.1751 0.0115051L26.3141 4.44022L20.4502 0.0115051Z" fill="#FF3838"/>
<path fill-rule="evenodd" clip-rule="evenodd" d="M65.456 7.27437C65.8135 6.34856 66.5848 5.80801 67.5811 5.80838C68.5879 5.80876 69.3738 6.33843 69.7906 7.27662L65.456 7.27437ZM67.8437 3.44925C64.3982 3.44737 62.5368 6.06499 62.5353 8.52806C62.5342 10.9919 64.3922 13.6106 67.8381 13.6125H67.8396H67.8419C69.4219 13.5956 70.9036 12.8754 72.0508 11.5771L69.818 10.359C69.2456 10.9454 68.5505 11.2537 67.783 11.2533C66.6587 11.2526 65.6616 10.5031 65.4009 9.52326L72.8464 9.52739L72.8468 8.85104C72.849 5.12718 69.9227 3.45075 67.8437 3.44925V3.44925Z" fill="#FF3838"/>
<path fill-rule="evenodd" clip-rule="evenodd" d="M76.6472 7.28172C77.0043 6.35554 77.7752 5.81499 78.7719 5.81536C79.7791 5.81611 80.565 6.34541 80.9818 7.28397L76.6472 7.28172ZM79.0346 3.45642C75.5887 3.45455 73.7281 6.07179 73.7266 8.53486C73.7251 10.9987 75.5827 13.6174 79.0293 13.6197H79.0308H79.0323C80.6131 13.6024 82.0948 12.8822 83.2416 11.5839L81.0089 10.3662C80.436 10.9525 79.7413 11.2609 78.9742 11.2605C77.8496 11.2598 76.8525 10.5103 76.5921 9.53044L84.0372 9.53419L84.038 8.85821C84.0402 5.13435 81.1135 3.45755 79.0346 3.45642V3.45642Z" fill="#FF3838"/>
<path fill-rule="evenodd" clip-rule="evenodd" d="M83.6879 2.9274H84.847V3.14385H84.3916V4.35887H84.1414V3.14385H83.6879V2.9274Z" fill="#FF3838"/>
<path fill-rule="evenodd" clip-rule="evenodd" d="M85.1777 2.9274H85.5303L85.9254 4.04827H85.9295L86.3144 2.9274H86.6632V4.35887H86.4246V3.25413H86.4205L86.024 4.35887H85.8173L85.4201 3.25413H85.4163V4.35887H85.1777V2.9274Z" fill="#FF3838"/>
<path fill-rule="evenodd" clip-rule="evenodd" d="M3.01375 11.5904V4.71216L7.35282 6.7187V3.39998L0 -0.000152588V13.5141L7.35282 16.9172V13.5981L3.01375 11.5904Z" fill="#FF3838"/>
<path fill-rule="evenodd" clip-rule="evenodd" d="M11.6919 11.5904V4.71216L7.35281 6.7187V3.39998L14.7056 -0.000152588V13.5141L7.35281 16.9172V13.5981L11.6919 11.5904Z" fill="#FF3838"/>
</svg>
