<svg width="89" height="18" viewBox="0 0 89 18" fill="none" xmlns="http://www.w3.org/2000/svg">
<path fill-rule="evenodd" clip-rule="evenodd" d="M43.9592 11.1749L41.6626 9.81025L41.4919 10.0775C40.9684 10.9 40.2529 11.3173 39.3663 11.3165C37.8474 11.3158 36.7023 10.1695 36.7031 8.65028C36.7042 7.13139 37.8501 5.98669 39.3693 5.98745C40.2685 5.98821 40.944 6.38302 41.4953 7.23105L41.6668 7.4945L43.9741 6.12682L43.7748 5.83816C42.6725 4.24138 41.2319 3.46514 39.3709 3.46399C35.8528 3.46246 33.9528 6.13369 33.9517 8.64837C33.9501 11.1634 35.8466 13.8373 39.3648 13.8392C41.1574 13.84 42.8485 12.9286 43.779 11.4597L43.9592 11.1749Z" fill="#FF3838"/>
<path fill-rule="evenodd" clip-rule="evenodd" d="M50.367 5.5176L51.6522 8.74476L49.0639 8.74285L50.367 5.5176ZM43.8445 13.8409L47.0197 13.8428L47.9632 11.4957L52.7287 11.498L53.6695 13.8462L56.8585 13.8481L51.1701 0.0922255L48.3378 0.0906982L49.0919 1.91428L43.8445 13.8409Z" fill="#FF3838"/>
<path fill-rule="evenodd" clip-rule="evenodd" d="M58.1731 13.8492L60.9596 13.8508L60.9631 7.67708L62.7798 7.67861L62.7813 5.08871L60.9646 5.08756L60.965 3.86344C60.965 3.33806 61.317 2.78021 61.9688 2.7806C62.3269 2.78098 62.543 2.84207 62.7588 2.93447L63.0688 3.06811L64.2265 0.540829L63.8928 0.404519C63.375 0.192226 62.6538 0.115861 62.1509 0.11548C60.8871 0.114716 59.8458 0.527847 59.1379 1.30982C58.5202 1.99252 58.1796 2.94211 58.1788 3.98295L58.178 5.08566L56.9478 5.08527L56.9463 7.67555L58.1769 7.67593L58.1731 13.8492Z" fill="#FF3838"/>
<path fill-rule="evenodd" clip-rule="evenodd" d="M20.8153 0.0117188V13.8283L23.8428 13.8302L23.8474 5.93111L26.7817 8.11742L29.7186 5.93111V13.8337L32.7419 13.8352L32.7495 0.0117188L26.7839 4.51951L20.8153 0.0117188Z" fill="#FF3838"/>
<path fill-rule="evenodd" clip-rule="evenodd" d="M66.6247 7.40427C66.9885 6.46193 67.7736 5.91172 68.7877 5.91211C69.8125 5.91249 70.6124 6.45162 71.0366 7.40656L66.6247 7.40427ZM69.055 3.51087C65.548 3.50896 63.6534 6.17331 63.6519 8.68035C63.6507 11.1882 65.5419 13.8537 69.0493 13.8556H69.0508H69.0531C70.6613 13.8384 72.1695 13.1053 73.3371 11.7838L71.0645 10.544C70.4819 11.1408 69.7744 11.4547 68.9932 11.4543C67.8488 11.4535 66.834 10.6906 66.5686 9.69333L74.147 9.69753L74.1474 9.0091C74.1497 5.21876 71.1711 3.51239 69.055 3.51087V3.51087Z" fill="#FF3838"/>
<path fill-rule="evenodd" clip-rule="evenodd" d="M78.0156 7.41177C78.3791 6.46905 79.1638 5.91885 80.1783 5.91923C81.2035 5.91999 82.0034 6.45874 82.4276 7.41406L78.0156 7.41177ZM80.4456 3.51819C76.9382 3.51628 75.0444 6.18025 75.0428 8.6873C75.0413 11.1951 76.9321 13.8606 80.4403 13.8629H80.4418H80.4433C82.0523 13.8453 83.5605 13.1122 84.7278 11.7907L82.4552 10.5514C81.8721 11.1481 81.165 11.462 80.3842 11.4616C79.2395 11.4608 78.2246 10.698 77.9596 9.70065L85.5376 9.70447L85.5384 9.01643C85.5407 5.22608 82.5617 3.51933 80.4456 3.51819V3.51819Z" fill="#FF3838"/>
<path fill-rule="evenodd" clip-rule="evenodd" d="M85.182 2.97961H86.3618V3.19993H85.8983V4.43665H85.6436V3.19993H85.182V2.97961Z" fill="#FF3838"/>
<path fill-rule="evenodd" clip-rule="evenodd" d="M86.6986 2.97961H87.0575L87.4596 4.1205H87.4638L87.8555 2.97961H88.2106V4.43665H87.9678V3.31218H87.9636L87.56 4.43665H87.3496L86.9453 3.31218H86.9414V4.43665H86.6986V2.97961Z" fill="#FF3838"/>
<path fill-rule="evenodd" clip-rule="evenodd" d="M3.06756 11.7974V4.79633L7.48409 6.83869V3.46071L0 -0.00012207V13.7554L7.48409 17.2193V13.8409L3.06756 11.7974Z" fill="#FF3838"/>
<path fill-rule="evenodd" clip-rule="evenodd" d="M11.9007 11.7974V4.79632L7.48413 6.83869V3.46071L14.9682 -0.00012207V13.7554L7.48413 17.2193V13.8409L11.9007 11.7974Z" fill="#FF3838"/>
</svg>
