<svg width="141" height="39" viewBox="0 0 141 39" fill="none" xmlns="http://www.w3.org/2000/svg">
<path fill-rule="evenodd" clip-rule="evenodd" d="M70.3242 18.2041L66.6503 16.0211L66.3769 16.449C65.5394 17.7647 64.3953 18.4317 62.9767 18.4304C60.5465 18.4294 58.7151 16.5963 58.7164 14.1655C58.7174 11.7361 60.5514 9.90525 62.9813 9.90624C64.42 9.90756 65.5006 10.5394 66.3825 11.8956L66.6566 12.3169L70.3479 10.1293L70.029 9.66742C68.2659 7.11316 65.9611 5.87161 62.984 5.86963C57.3558 5.86699 54.3164 10.1405 54.3145 14.1629C54.3121 18.186 57.3463 22.4634 62.9741 22.4661C65.8415 22.4677 68.5472 21.0094 70.0359 18.6597L70.3242 18.2041Z" fill="white"/>
<path fill-rule="evenodd" clip-rule="evenodd" d="M80.5751 9.15527L82.6311 14.3172L78.4908 14.3148L80.5751 9.15527ZM70.1401 22.4701L75.2204 22.4727L76.7296 18.7187L84.3531 18.7224L85.858 22.4787L90.96 22.4819L81.8596 0.477574L77.3285 0.474609L78.5352 3.39188L70.1401 22.4701Z" fill="white"/>
<path fill-rule="evenodd" clip-rule="evenodd" d="M93.0629 22.4825L97.5205 22.4851L97.5261 12.6097L100.433 12.6117L100.435 8.46864L97.5284 8.46699L97.5294 6.50897C97.5298 5.66864 98.0924 4.77626 99.1355 4.77692C99.708 4.77725 100.054 4.87509 100.399 5.02266L100.895 5.23645L102.747 1.19391L102.213 0.975838C101.385 0.636214 100.231 0.514332 99.426 0.513673C97.4049 0.512685 95.7386 1.17348 94.6063 2.42426C93.618 3.51626 93.0728 5.03518 93.0715 6.6997L93.0705 8.46436L91.1024 8.46337L91.1001 12.6067L93.0685 12.607L93.0629 22.4825Z" fill="white"/>
<path fill-rule="evenodd" clip-rule="evenodd" d="M33.2998 0.348145V22.4494L38.1432 22.4527L38.1505 9.81709L42.845 13.3141L47.5431 9.81709V22.4579L52.3793 22.4602L52.3918 0.348145L42.8479 7.55897L33.2998 0.348145Z" fill="white"/>
<path fill-rule="evenodd" clip-rule="evenodd" d="M106.584 12.175C107.166 10.6673 108.421 9.78707 110.044 9.78773C111.683 9.78872 112.963 10.6508 113.642 12.1789L106.584 12.175ZM110.472 5.9458C104.861 5.94284 101.83 10.2044 101.828 14.2147C101.826 18.2263 104.852 22.4899 110.463 22.4931H110.465H110.469C113.042 22.4655 115.455 21.2931 117.322 19.1789L113.686 17.1962C112.754 18.1508 111.622 18.6529 110.373 18.6522C108.542 18.6509 106.919 17.4311 106.494 15.8354L118.618 15.8417L118.618 14.7411C118.622 8.67794 113.857 5.94778 110.472 5.9458Z" fill="white"/>
<path fill-rule="evenodd" clip-rule="evenodd" d="M124.806 12.1852C125.388 10.6775 126.643 9.797 128.266 9.79799C129.906 9.79897 131.186 10.661 131.864 12.1892L124.806 12.1852ZM128.694 5.95606C123.082 5.95276 120.052 10.2144 120.05 14.2249C120.048 18.2365 123.073 22.5001 128.684 22.5034H128.687H128.69C131.264 22.4757 133.677 21.3027 135.544 19.1892L131.908 17.2065C130.976 18.1611 129.844 18.6631 128.595 18.6625C126.764 18.6611 125.14 17.4413 124.716 15.8457L136.84 15.8519L136.841 14.7513C136.844 8.68787 132.079 5.95803 128.694 5.95606Z" fill="white"/>
<path fill-rule="evenodd" clip-rule="evenodd" d="M136.271 5.21729H138.158V5.56976H137.417V7.54787H137.009V5.56976H136.271V5.21729Z" fill="white"/>
<path fill-rule="evenodd" clip-rule="evenodd" d="M138.422 5.21729H138.997L139.64 7.04222H139.647L140.273 5.21729H140.841V7.54787H140.453V5.74928H140.446L139.8 7.54787H139.464L138.817 5.74928H138.811V7.54787H138.422V5.21729Z" fill="white"/>
<path fill-rule="evenodd" clip-rule="evenodd" d="M4.90733 19.2008V8.0011L11.9728 11.2685V5.8652L0 0.329102V22.3328L11.9728 27.8735V22.4695L4.90733 19.2008Z" fill="white"/>
<path fill-rule="evenodd" clip-rule="evenodd" d="M19.0386 19.2008V8.0011L11.9731 11.2685V5.8652L23.946 0.329102V22.3328L11.9731 27.8735V22.4695L19.0386 19.2008Z" fill="white"/>
<path d="M37.0898 36H35.6895V28.6348H33.1699V27.4336H39.6094V28.6348H37.0898V36ZM46.4093 32.748C46.4093 33.8066 46.1378 34.6328 45.5948 35.2266C45.0519 35.8203 44.296 36.1172 43.3273 36.1172C42.7218 36.1172 42.1866 35.9805 41.7218 35.707C41.257 35.4336 40.8995 35.041 40.6495 34.5293C40.3995 34.0176 40.2745 33.4238 40.2745 32.748C40.2745 31.6973 40.5441 30.877 41.0831 30.2871C41.6222 29.6973 42.382 29.4023 43.3624 29.4023C44.2999 29.4023 45.0421 29.7051 45.589 30.3105C46.1359 30.9121 46.4093 31.7246 46.4093 32.748ZM41.6925 32.748C41.6925 34.2441 42.2452 34.9922 43.3507 34.9922C44.4445 34.9922 44.9913 34.2441 44.9913 32.748C44.9913 31.2676 44.4405 30.5273 43.339 30.5273C42.7609 30.5273 42.3409 30.7188 42.0792 31.1016C41.8214 31.4844 41.6925 32.0332 41.6925 32.748ZM53.3498 29.5195V30.2754L52.2424 30.4805C52.344 30.6172 52.428 30.7852 52.4944 30.9844C52.5608 31.1836 52.594 31.3945 52.594 31.6172C52.594 32.2852 52.3635 32.8105 51.9026 33.1934C51.4416 33.5762 50.8069 33.7676 49.9983 33.7676C49.7913 33.7676 49.6038 33.752 49.4358 33.7207C49.1389 33.9043 48.9905 34.1191 48.9905 34.3652C48.9905 34.5137 49.0588 34.625 49.1955 34.6992C49.3362 34.7734 49.592 34.8105 49.9631 34.8105H51.094C51.8088 34.8105 52.3518 34.9629 52.7229 35.2676C53.094 35.5723 53.2795 36.0117 53.2795 36.5859C53.2795 37.3203 52.9768 37.8867 52.3713 38.2852C51.7659 38.6836 50.8909 38.8828 49.7463 38.8828C48.8635 38.8828 48.1897 38.7266 47.7248 38.4141C47.26 38.1016 47.0276 37.6562 47.0276 37.0781C47.0276 36.6797 47.1526 36.3438 47.4026 36.0703C47.6565 35.8008 48.01 35.6133 48.4631 35.5078C48.2795 35.4297 48.1272 35.3047 48.0061 35.1328C47.8889 34.957 47.8303 34.7734 47.8303 34.582C47.8303 34.3398 47.8987 34.1348 48.0354 33.9668C48.1721 33.7988 48.3752 33.6328 48.6448 33.4688C48.3088 33.3242 48.0354 33.0898 47.8245 32.7656C47.6174 32.4375 47.5139 32.0547 47.5139 31.6172C47.5139 30.9141 47.7346 30.3691 48.176 29.9824C48.6213 29.5957 49.2541 29.4023 50.0745 29.4023C50.258 29.4023 50.4495 29.416 50.6487 29.4434C50.8518 29.4668 51.0041 29.4922 51.1057 29.5195H53.3498ZM48.258 37.0078C48.258 37.3047 48.3909 37.5332 48.6565 37.6934C48.926 37.8535 49.303 37.9336 49.7873 37.9336C50.5373 37.9336 51.0959 37.8262 51.4631 37.6113C51.8303 37.3965 52.0139 37.1113 52.0139 36.7559C52.0139 36.4746 51.9123 36.2734 51.7092 36.1523C51.51 36.0352 51.137 35.9766 50.5901 35.9766H49.5471C49.1526 35.9766 48.8381 36.0684 48.6038 36.252C48.3733 36.4395 48.258 36.6914 48.258 37.0078ZM48.8498 31.6172C48.8498 32.0234 48.9534 32.3359 49.1604 32.5547C49.3713 32.7734 49.6721 32.8828 50.0627 32.8828C50.8596 32.8828 51.258 32.457 51.258 31.6055C51.258 31.1836 51.1584 30.8594 50.9592 30.6328C50.7639 30.4023 50.4651 30.2871 50.0627 30.2871C49.6643 30.2871 49.3616 30.4004 49.1545 30.627C48.9514 30.8535 48.8498 31.1836 48.8498 31.6172ZM57.267 36.1172C56.2591 36.1172 55.4701 35.8242 54.8998 35.2383C54.3334 34.6484 54.0502 33.8379 54.0502 32.8066C54.0502 31.748 54.3138 30.916 54.8412 30.3105C55.3685 29.7051 56.0931 29.4023 57.015 29.4023C57.8705 29.4023 58.5462 29.6621 59.0423 30.1816C59.5384 30.7012 59.7865 31.416 59.7865 32.3262V33.0703H55.4681C55.4877 33.6992 55.6576 34.1836 55.9779 34.5234C56.2982 34.8594 56.7494 35.0273 57.3314 35.0273C57.7142 35.0273 58.0697 34.9922 58.3978 34.9219C58.7298 34.8477 59.0853 34.7266 59.4642 34.5586V35.6777C59.1283 35.8379 58.7884 35.9512 58.4447 36.0176C58.1009 36.084 57.7084 36.1172 57.267 36.1172ZM57.015 30.4453C56.5775 30.4453 56.2259 30.584 55.9603 30.8613C55.6986 31.1387 55.5423 31.543 55.4916 32.0742H58.433C58.4252 31.5391 58.2962 31.1348 58.0462 30.8613C57.7962 30.584 57.4525 30.4453 57.015 30.4453ZM63.645 35.0039C63.9809 35.0039 64.3169 34.9512 64.6528 34.8457V35.8828C64.5005 35.9492 64.3032 36.0039 64.061 36.0469C63.8227 36.0938 63.5747 36.1172 63.3169 36.1172C62.0122 36.1172 61.3598 35.4297 61.3598 34.0547V30.5625H60.4751V29.9531L61.4243 29.4492L61.893 28.0781H62.7427V29.5195H64.5884V30.5625H62.7427V34.0312C62.7427 34.3633 62.8247 34.6094 62.9888 34.7695C63.1567 34.9258 63.3755 35.0039 63.645 35.0039ZM71.5348 36H70.152V32.0156C70.152 31.5156 70.0504 31.1426 69.8473 30.8965C69.648 30.6504 69.3297 30.5273 68.8922 30.5273C68.3141 30.5273 67.8883 30.7012 67.6148 31.0488C67.3453 31.3926 67.2105 31.9707 67.2105 32.7832V36H65.8336V26.8828H67.2105V29.1973C67.2105 29.5684 67.1871 29.9648 67.1402 30.3867H67.2281C67.4156 30.0742 67.6754 29.832 68.0074 29.6602C68.3434 29.4883 68.734 29.4023 69.1793 29.4023C70.7496 29.4023 71.5348 30.1934 71.5348 31.7754V36ZM76.1609 36.1172C75.153 36.1172 74.364 35.8242 73.7937 35.2383C73.2273 34.6484 72.9441 33.8379 72.9441 32.8066C72.9441 31.748 73.2077 30.916 73.7351 30.3105C74.2624 29.7051 74.987 29.4023 75.9089 29.4023C76.7644 29.4023 77.4402 29.6621 77.9362 30.1816C78.4323 30.7012 78.6804 31.416 78.6804 32.3262V33.0703H74.362C74.3816 33.6992 74.5515 34.1836 74.8718 34.5234C75.1921 34.8594 75.6433 35.0273 76.2253 35.0273C76.6081 35.0273 76.9636 34.9922 77.2917 34.9219C77.6237 34.8477 77.9792 34.7266 78.3581 34.5586V35.6777C78.0222 35.8379 77.6823 35.9512 77.3386 36.0176C76.9948 36.084 76.6023 36.1172 76.1609 36.1172ZM75.9089 30.4453C75.4714 30.4453 75.1198 30.584 74.8542 30.8613C74.5925 31.1387 74.4362 31.543 74.3855 32.0742H77.3269C77.3191 31.5391 77.1902 31.1348 76.9402 30.8613C76.6902 30.584 76.3464 30.4453 75.9089 30.4453ZM83.412 29.4023C83.6893 29.4023 83.9178 29.4219 84.0975 29.4609L83.9627 30.7441C83.7674 30.6973 83.5643 30.6738 83.3534 30.6738C82.8026 30.6738 82.3553 30.8535 82.0116 31.2129C81.6717 31.5723 81.5018 32.0391 81.5018 32.6133V36H80.1248V29.5195H81.203L81.3846 30.6621H81.4549C81.6698 30.2754 81.9491 29.9688 82.2928 29.7422C82.6405 29.5156 83.0135 29.4023 83.412 29.4023ZM89.5587 36H88.1817V29.5195H89.5587V36ZM88.0997 27.8027C88.0997 27.5566 88.1661 27.3672 88.2989 27.2344C88.4356 27.1016 88.629 27.0352 88.879 27.0352C89.1212 27.0352 89.3087 27.1016 89.4415 27.2344C89.5782 27.3672 89.6466 27.5566 89.6466 27.8027C89.6466 28.0371 89.5782 28.2227 89.4415 28.3594C89.3087 28.4922 89.1212 28.5586 88.879 28.5586C88.629 28.5586 88.4356 28.4922 88.2989 28.3594C88.1661 28.2227 88.0997 28.0371 88.0997 27.8027ZM95.7668 34.1543C95.7668 34.7871 95.5363 35.2734 95.0754 35.6133C94.6145 35.9492 93.9543 36.1172 93.0949 36.1172C92.2316 36.1172 91.5383 35.9863 91.0148 35.7246V34.5352C91.7766 34.8867 92.4855 35.0625 93.1418 35.0625C93.9895 35.0625 94.4133 34.8066 94.4133 34.2949C94.4133 34.1309 94.3664 33.9941 94.2727 33.8848C94.1789 33.7754 94.0246 33.6621 93.8098 33.5449C93.5949 33.4277 93.2961 33.2949 92.9133 33.1465C92.1672 32.8574 91.6613 32.5684 91.3957 32.2793C91.134 31.9902 91.0031 31.6152 91.0031 31.1543C91.0031 30.5996 91.2258 30.1699 91.6711 29.8652C92.1203 29.5566 92.7297 29.4023 93.4992 29.4023C94.2609 29.4023 94.9816 29.5566 95.6613 29.8652L95.216 30.9023C94.5168 30.6133 93.9289 30.4688 93.4523 30.4688C92.7258 30.4688 92.3625 30.6758 92.3625 31.0898C92.3625 31.293 92.4562 31.4648 92.6437 31.6055C92.8352 31.7461 93.2492 31.9395 93.8859 32.1855C94.4211 32.3926 94.8098 32.582 95.052 32.7539C95.2941 32.9258 95.4738 33.125 95.591 33.3516C95.7082 33.5742 95.7668 33.8418 95.7668 34.1543ZM103.425 36.1172C102.605 36.1172 101.968 35.8223 101.515 35.2324H101.433C101.488 35.7793 101.515 36.1113 101.515 36.2285V38.8828H100.138V29.5195H101.251C101.283 29.6406 101.347 29.9297 101.445 30.3867H101.515C101.945 29.7305 102.589 29.4023 103.449 29.4023C104.257 29.4023 104.886 29.6953 105.335 30.2812C105.789 30.8672 106.015 31.6895 106.015 32.748C106.015 33.8066 105.785 34.6328 105.324 35.2266C104.867 35.8203 104.234 36.1172 103.425 36.1172ZM103.091 30.5273C102.544 30.5273 102.144 30.6875 101.89 31.0078C101.64 31.3281 101.515 31.8398 101.515 32.543V32.748C101.515 33.5371 101.64 34.1094 101.89 34.4648C102.14 34.8164 102.548 34.9922 103.115 34.9922C103.591 34.9922 103.958 34.7969 104.216 34.4062C104.474 34.0156 104.603 33.459 104.603 32.7363C104.603 32.0098 104.474 31.4609 104.216 31.0898C103.962 30.7148 103.587 30.5273 103.091 30.5273ZM113.243 32.748C113.243 33.8066 112.971 34.6328 112.428 35.2266C111.885 35.8203 111.129 36.1172 110.161 36.1172C109.555 36.1172 109.02 35.9805 108.555 35.707C108.09 35.4336 107.733 35.041 107.483 34.5293C107.233 34.0176 107.108 33.4238 107.108 32.748C107.108 31.6973 107.378 30.877 107.917 30.2871C108.456 29.6973 109.215 29.4023 110.196 29.4023C111.133 29.4023 111.876 29.7051 112.422 30.3105C112.969 30.9121 113.243 31.7246 113.243 32.748ZM108.526 32.748C108.526 34.2441 109.079 34.9922 110.184 34.9922C111.278 34.9922 111.825 34.2441 111.825 32.748C111.825 31.2676 111.274 30.5273 110.172 30.5273C109.594 30.5273 109.174 30.7188 108.913 31.1016C108.655 31.4844 108.526 32.0332 108.526 32.748ZM120.025 36L119.187 32.9766C119.086 32.6562 118.902 31.9121 118.636 30.7441H118.584C118.357 31.7988 118.177 32.5469 118.045 32.9883L117.183 36H115.66L113.843 29.5195H115.25L116.076 32.7129C116.263 33.502 116.396 34.1777 116.474 34.7402H116.509C116.549 34.4551 116.607 34.1289 116.685 33.7617C116.767 33.3906 116.838 33.1133 116.896 32.9297L117.881 29.5195H119.392L120.347 32.9297C120.406 33.1211 120.478 33.4141 120.564 33.8086C120.654 34.2031 120.707 34.5098 120.722 34.7285H120.769C120.828 34.248 120.965 33.5762 121.179 32.7129L122.017 29.5195H123.4L121.572 36H120.025ZM127.229 36.1172C126.221 36.1172 125.432 35.8242 124.862 35.2383C124.296 34.6484 124.012 33.8379 124.012 32.8066C124.012 31.748 124.276 30.916 124.804 30.3105C125.331 29.7051 126.055 29.4023 126.977 29.4023C127.833 29.4023 128.509 29.6621 129.005 30.1816C129.501 30.7012 129.749 31.416 129.749 32.3262V33.0703H125.43C125.45 33.6992 125.62 34.1836 125.94 34.5234C126.261 34.8594 126.712 35.0273 127.294 35.0273C127.677 35.0273 128.032 34.9922 128.36 34.9219C128.692 34.8477 129.048 34.7266 129.427 34.5586V35.6777C129.091 35.8379 128.751 35.9512 128.407 36.0176C128.063 36.084 127.671 36.1172 127.229 36.1172ZM126.977 30.4453C126.54 30.4453 126.188 30.584 125.923 30.8613C125.661 31.1387 125.505 31.543 125.454 32.0742H128.395C128.387 31.5391 128.259 31.1348 128.009 30.8613C127.759 30.584 127.415 30.4453 126.977 30.4453ZM134.48 29.4023C134.758 29.4023 134.986 29.4219 135.166 29.4609L135.031 30.7441C134.836 30.6973 134.633 30.6738 134.422 30.6738C133.871 30.6738 133.424 30.8535 133.08 31.2129C132.74 31.5723 132.57 32.0391 132.57 32.6133V36H131.193V29.5195H132.271L132.453 30.6621H132.523C132.738 30.2754 133.018 29.9688 133.361 29.7422C133.709 29.5156 134.082 29.4023 134.48 29.4023ZM136.048 35.2676C136.048 34.9824 136.122 34.7637 136.271 34.6113C136.419 34.459 136.634 34.3828 136.915 34.3828C137.2 34.3828 137.417 34.4629 137.565 34.623C137.714 34.7793 137.788 34.9941 137.788 35.2676C137.788 35.5449 137.712 35.7656 137.56 35.9297C137.411 36.0898 137.196 36.1699 136.915 36.1699C136.634 36.1699 136.419 36.0898 136.271 35.9297C136.122 35.7695 136.048 35.5488 136.048 35.2676Z" fill="white"/>
</svg>
