<svg width="14" height="15" viewBox="0 0 14 15" fill="none" xmlns="http://www.w3.org/2000/svg">
<path d="M13.6592 0.947902C13.4646 0.752847 13.2003 0.643229 12.9248 0.643229C12.6493 0.643229 12.385 0.752847 12.1904 0.947902L7.09668 6.03124L2.00293 0.937485C1.80831 0.74243 1.54409 0.632812 1.26855 0.632812C0.993015 0.632812 0.728796 0.74243 0.53418 0.937485C0.12793 1.34374 0.12793 1.99999 0.53418 2.40624L5.62793 7.49999L0.53418 12.5937C0.12793 13 0.12793 13.6562 0.53418 14.0625C0.94043 14.4687 1.59668 14.4687 2.00293 14.0625L7.09668 8.96874L12.1904 14.0625C12.5967 14.4687 13.2529 14.4687 13.6592 14.0625C14.0654 13.6562 14.0654 13 13.6592 12.5937L8.56543 7.49999L13.6592 2.40624C14.055 2.0104 14.055 1.34374 13.6592 0.947902Z" fill="#5A6175"/>
</svg>
