<svg width="154" height="16" viewBox="0 0 154 16" fill="none" xmlns="http://www.w3.org/2000/svg">
<path fill-rule="evenodd" clip-rule="evenodd" d="M81.5717 12.6907V1.87593V12.6907Z" fill="white"/>
<path d="M81.5717 12.6907V1.87593" stroke="white" stroke-width="0.866667" stroke-linecap="square"/>
<path fill-rule="evenodd" clip-rule="evenodd" d="M37.7977 9.90812L35.8231 8.69811L35.6761 8.93529C35.226 9.66455 34.6111 10.0343 33.8486 10.0336C32.5424 10.033 31.5581 9.01691 31.5588 7.66959C31.5594 6.323 32.5451 5.30818 33.8511 5.30873C34.6244 5.30946 35.2051 5.65966 35.6791 6.41138L35.8265 6.64491L37.8105 5.43234L37.6391 5.17635C36.6914 3.76056 35.4527 3.07239 33.8525 3.07129C30.8275 3.06983 29.1939 5.43854 29.1929 7.66813C29.1916 9.89808 30.8224 12.269 33.8472 12.2704C35.3884 12.2714 36.8426 11.463 37.6428 10.1606L37.7977 9.90812Z" fill="white"/>
<path fill-rule="evenodd" clip-rule="evenodd" d="M43.3073 4.89255L44.4124 7.75371L42.187 7.75243L43.3073 4.89255ZM37.6987 12.2728L40.4293 12.2743L41.2404 10.1935L45.3379 10.1955L46.1467 12.2776L48.8889 12.2794L43.9977 0.082698L41.5623 0.0810547L42.2109 1.69806L37.6987 12.2728Z" fill="white"/>
<path fill-rule="evenodd" clip-rule="evenodd" d="M50.0193 12.2795L52.4152 12.281L52.4182 6.80718L53.9805 6.80827L53.9817 4.51186L52.4194 4.51095L52.42 3.42564C52.4201 2.95986 52.7226 2.46523 53.2832 2.4656C53.5909 2.46578 53.7768 2.52001 53.962 2.60181L54.2287 2.72031L55.2242 0.479584L54.9373 0.358711C54.4922 0.170462 53.8719 0.102905 53.4393 0.10254C52.353 0.101992 51.4574 0.468264 50.8489 1.16155C50.3177 1.76683 50.0246 2.60874 50.0239 3.53136L50.0234 4.50949L48.9656 4.50894L48.9644 6.80553L50.0223 6.80572L50.0193 12.2795Z" fill="white"/>
<path fill-rule="evenodd" clip-rule="evenodd" d="M17.8979 0.0107422V12.2611L20.5012 12.263L20.5051 5.25924L23.0282 7.1976L25.5534 5.25924V12.2659L28.1527 12.2672L28.1594 0.0107422L23.0298 4.0076L17.8979 0.0107422Z" fill="white"/>
<path fill-rule="evenodd" clip-rule="evenodd" d="M57.2864 6.56615C57.5992 5.73045 58.2739 5.24257 59.1459 5.24294C60.0272 5.24348 60.7151 5.72132 61.0798 6.56834L57.2864 6.56615ZM59.376 3.11328C56.3604 3.11164 54.7314 5.47378 54.73 7.69661C54.7291 9.92017 56.3553 12.2834 59.3711 12.2852H59.3725H59.3744C60.7573 12.2699 62.0541 11.6201 63.0579 10.4482L61.1038 9.34922C60.6029 9.87836 59.9943 10.1566 59.3229 10.1563C58.3388 10.1555 57.4664 9.4794 57.2381 8.59494L63.7543 8.59841L63.7547 7.98839C63.7566 4.62767 61.1954 3.11438 59.376 3.11328Z" fill="white"/>
<path fill-rule="evenodd" clip-rule="evenodd" d="M67.0804 6.57165C67.3931 5.73595 68.0673 5.24789 68.9399 5.24844C69.8212 5.24899 70.5091 5.72682 70.8738 6.57384L67.0804 6.57165ZM69.1698 3.11914C66.1538 3.11732 64.5253 5.47946 64.5239 7.70247C64.5229 9.92603 66.1487 12.2893 69.1648 12.2911H69.1662H69.1678C70.5512 12.2758 71.8481 11.6256 72.8517 10.4541L70.8976 9.35507C70.3963 9.88422 69.7881 10.1625 69.1168 10.1621C68.1325 10.1614 67.2599 9.48526 67.0319 8.6008L73.5481 8.60427L73.5486 7.99425C73.5506 4.63335 70.9891 3.12024 69.1698 3.11914Z" fill="white"/>
<path fill-rule="evenodd" clip-rule="evenodd" d="M73.2422 2.70996H74.2564V2.90533H73.858V4.00177H73.6388V2.90533H73.2422V2.70996Z" fill="white"/>
<path fill-rule="evenodd" clip-rule="evenodd" d="M74.3989 2.70996H74.7077L75.0533 3.7215H75.0569L75.3938 2.70996H75.6991V4.00177H75.4903V3.00484H75.4866L75.1396 4.00177H74.9586L74.611 3.00484H74.6077V4.00177H74.3989V2.70996Z" fill="white"/>
<path fill-rule="evenodd" clip-rule="evenodd" d="M2.63757 10.4603V4.25248L6.4351 6.06357V3.06858L0 0V12.1963L6.4351 15.2675V12.2721L2.63757 10.4603Z" fill="white"/>
<path fill-rule="evenodd" clip-rule="evenodd" d="M10.2326 10.4603V4.25248L6.43506 6.06357V3.06858L12.8702 0V12.1963L6.43506 15.2675V12.2721L10.2326 10.4603Z" fill="white"/>
<path fill-rule="evenodd" clip-rule="evenodd" d="M98.1209 10.7761H97.1832L95.5367 5.1395C95.4586 4.89001 95.3711 4.57527 95.2744 4.19527C95.1776 3.81527 95.1274 3.5869 95.1237 3.51013C95.0418 4.01679 94.9116 4.57143 94.733 5.17405L93.1367 10.7761H92.199L90.0278 2.35863H91.0325L92.3218 7.55766C92.5004 8.28695 92.6306 8.94713 92.7125 9.53824C92.813 8.83582 92.9618 8.14876 93.159 7.47705L94.6214 2.35863H95.626L97.1609 7.52311C97.3395 8.11806 97.4902 8.78976 97.613 9.53824C97.6837 8.99319 97.8177 8.32917 98.0149 7.54614L99.2986 2.35863H100.303L98.1209 10.7761ZM103.797 10.8911C102.893 10.8911 102.18 10.607 101.657 10.0389C101.134 9.47086 100.873 8.68209 100.873 7.6726C100.873 6.65544 101.115 5.84748 101.601 5.24869C102.087 4.64991 102.739 4.35052 103.557 4.35052C104.324 4.35052 104.93 4.61057 105.377 5.13066C105.823 5.65076 106.047 6.33686 106.047 7.18897V7.79351H101.833C101.851 8.53431 102.033 9.09662 102.377 9.48046C102.721 9.8643 103.206 10.0562 103.831 10.0562C104.489 10.0562 105.141 9.91419 105.784 9.63016V10.4823C105.457 10.6281 105.147 10.7327 104.855 10.7961C104.563 10.8594 104.21 10.8911 103.797 10.8911ZM103.546 5.15117C103.055 5.15117 102.663 5.31622 102.371 5.64632C102.079 5.97642 101.907 6.43317 101.855 7.0166H105.053C105.053 6.41398 104.923 5.95243 104.662 5.63192C104.402 5.31142 104.03 5.15117 103.546 5.15117ZM110.473 4.3622C111.276 4.3622 111.901 4.64528 112.345 5.21143C112.79 5.77759 113.012 6.57884 113.012 7.61519C113.012 8.65155 112.788 9.45663 112.34 10.0305C111.891 10.6043 111.269 10.8912 110.473 10.8912C110.074 10.8912 109.711 10.8154 109.381 10.6638C109.052 10.5122 108.776 10.279 108.553 9.96426H108.486L108.29 10.7761H107.626V1.81738H108.553V3.99372C108.553 4.48119 108.538 4.91876 108.508 5.30643H108.553C108.984 4.67694 109.624 4.3622 110.473 4.3622ZM110.339 5.1626C109.706 5.1626 109.251 5.34971 108.971 5.72395C108.692 6.09819 108.553 6.72863 108.553 7.61529C108.553 8.50196 108.696 9.13623 108.983 9.51815C109.269 9.90007 109.729 10.091 110.361 10.091C110.931 10.091 111.355 9.87704 111.634 9.44906C111.913 9.02108 112.052 8.406 112.052 7.60378C112.052 6.78237 111.913 6.17016 111.634 5.76714C111.355 5.36411 110.923 5.1626 110.339 5.1626ZM119.9 10.7759L118.884 8.0987H115.613L114.608 10.7759H113.648L116.874 2.32393H117.673L120.882 10.7759H119.9ZM118.588 7.21798L117.639 4.60982C117.516 4.27972 117.39 3.87478 117.26 3.39499C117.178 3.76347 117.06 4.16841 116.908 4.60982L115.948 7.21798H118.588ZM126.028 9.92971H125.978C125.55 10.5707 124.91 10.8912 124.058 10.8912C123.258 10.8912 122.636 10.6091 122.191 10.0449C121.746 9.48062 121.524 8.67842 121.524 7.63822C121.524 6.59803 121.747 5.79007 122.194 5.21431C122.64 4.63856 123.262 4.35069 124.058 4.35069C124.888 4.35069 125.524 4.66159 125.967 5.2834H126.039L126 4.82856L125.978 4.38523V1.81738H126.905V10.7761H126.151L126.028 9.92971ZM124.175 10.0911C124.808 10.0911 125.266 9.91359 125.551 9.55855C125.835 9.2035 125.978 8.63063 125.978 7.83993V7.63842C125.978 6.74408 125.834 6.10596 125.545 5.72404C125.257 5.34213 124.796 5.15117 124.164 5.15117C123.621 5.15117 123.205 5.369 122.916 5.80465C122.628 6.2403 122.484 6.85539 122.484 7.64993C122.484 8.45599 122.627 9.06436 122.914 9.47506C123.2 9.88577 123.621 10.0911 124.175 10.0911ZM130.208 10.7759L127.887 4.46563H128.88L130.197 8.208C130.495 9.08315 130.67 9.65122 130.722 9.91223H130.767C130.807 9.70879 130.937 9.28754 131.154 8.64845C131.372 8.00937 131.861 6.61511 132.62 4.46563H133.613L131.291 10.7759H130.208ZM135.522 10.7759H134.596V4.46563H135.522V10.7759ZM134.517 2.75582C134.517 2.53703 134.569 2.37678 134.674 2.27507C134.778 2.17335 134.908 2.12249 135.064 2.12249C135.213 2.12249 135.341 2.17431 135.449 2.27795C135.557 2.38158 135.611 2.54087 135.611 2.75582C135.611 2.97077 135.557 3.13102 135.449 3.23657C135.341 3.34213 135.213 3.39491 135.064 3.39491C134.908 3.39491 134.778 3.34213 134.674 3.23657C134.569 3.13102 134.517 2.97077 134.517 2.75582ZM141.433 9.05441C141.433 9.64167 141.221 10.0946 140.797 10.4132C140.372 10.7318 139.777 10.8911 139.011 10.8911C138.199 10.8911 137.567 10.7586 137.113 10.4938V9.60713C137.407 9.76066 137.722 9.88157 138.059 9.96985C138.396 10.0581 138.72 10.1023 139.033 10.1023C139.517 10.1023 139.889 10.0226 140.149 9.86333C140.41 9.70404 140.54 9.46127 140.54 9.13501C140.54 8.88936 140.437 8.67921 140.23 8.50456C140.024 8.32992 139.621 8.12361 139.022 7.88563C138.452 7.66684 138.048 7.47589 137.808 7.31276C137.568 7.14963 137.389 6.96443 137.272 6.75716C137.155 6.54989 137.096 6.30232 137.096 6.01444C137.096 5.5001 137.299 5.0942 137.705 4.79673C138.11 4.49925 138.666 4.35052 139.373 4.35052C140.032 4.35052 140.676 4.4887 141.305 4.76506L140.975 5.54233C140.361 5.28132 139.805 5.15081 139.306 5.15081C138.867 5.15081 138.536 5.22182 138.313 5.36384C138.09 5.50586 137.978 5.70161 137.978 5.95111C137.978 6.12 138.02 6.26393 138.104 6.38292C138.187 6.50191 138.322 6.61514 138.508 6.72261C138.694 6.83009 139.051 6.98554 139.58 7.18897C140.305 7.4615 140.796 7.73593 141.051 8.0123C141.305 8.28866 141.433 8.63602 141.433 9.05441ZM148.22 7.61503C148.22 8.64371 147.969 9.44687 147.467 10.0245C146.964 10.6022 146.27 10.8911 145.385 10.8911C144.838 10.8911 144.352 10.7586 143.928 10.4938C143.504 10.2289 143.176 9.84894 142.946 9.3538C142.715 8.85865 142.6 8.27906 142.6 7.61503C142.6 6.58635 142.849 5.7851 143.347 5.21127C143.846 4.63743 144.538 4.35052 145.424 4.35052C146.28 4.35052 146.96 4.64415 147.464 5.23142C147.968 5.81869 148.22 6.61322 148.22 7.61503ZM143.559 7.61529C143.559 8.42135 143.716 9.03548 144.028 9.4577C144.341 9.87992 144.8 10.091 145.407 10.091C146.013 10.091 146.474 9.88088 146.788 9.46058C147.103 9.04028 147.26 8.42519 147.26 7.61529C147.26 6.81308 147.103 6.20375 146.788 5.78729C146.474 5.37083 146.01 5.1626 145.396 5.1626C144.789 5.1626 144.331 5.36795 144.023 5.77865C143.714 6.18935 143.559 6.80156 143.559 7.61529ZM152.635 4.35052C152.906 4.35052 153.15 4.37355 153.366 4.41961L153.237 5.30627C152.984 5.24869 152.761 5.2199 152.568 5.2199C152.073 5.2199 151.65 5.42717 151.298 5.84172C150.946 6.25626 150.77 6.77251 150.77 7.39049V10.7759H149.844V4.46567H150.609L150.715 5.63445H150.759C150.986 5.22374 151.26 4.90708 151.58 4.68446C151.9 4.46183 152.251 4.35052 152.635 4.35052Z" fill="white"/>
</svg>
