<svg width="48" height="48" viewBox="0 0 48 48" fill="none" xmlns="http://www.w3.org/2000/svg">
<path d="M23.5 35C24.6046 35 25.5 34.1046 25.5 33C25.5 31.8954 24.6046 31 23.5 31C22.3954 31 21.5 31.8954 21.5 33C21.5 34.1046 22.3954 35 23.5 35Z" fill="white"/>
<path d="M23.5 27.5V25.25C24.7856 25.25 26.0423 24.8908 27.1112 24.2178C28.1801 23.5447 29.0132 22.5881 29.5052 21.4689C29.9972 20.3497 30.1259 19.1182 29.8751 17.9301C29.6243 16.7419 29.0052 15.6506 28.0962 14.794C27.1872 13.9374 26.029 13.354 24.7681 13.1177C23.5072 12.8814 22.2003 13.0027 21.0126 13.4662C19.8248 13.9298 18.8097 14.7149 18.0954 15.7221C17.3812 16.7294 17 17.9136 17 19.125" stroke="white" stroke-width="3.5" stroke-linecap="round" stroke-linejoin="round"/>
<path d="M24 46C36.1503 46 46 36.1503 46 24C46 11.8497 36.1503 2 24 2C11.8497 2 2 11.8497 2 24C2 36.1503 11.8497 46 24 46Z" stroke="white" stroke-width="3" stroke-linecap="round" stroke-linejoin="round"/>
</svg>
