<svg width="200" height="200" viewBox="0 0 200 200" fill="none" xmlns="http://www.w3.org/2000/svg">
<g clip-path="url(#clip0_1208_9610)">
<path d="M146.8 16.1504H33.4499C23.7499 16.1504 15.8999 24.7004 15.8999 35.2004V107.8C15.8999 112.65 17.8499 117.35 21.2999 120.8C24.7499 124.25 29.3999 126.2 34.2999 126.2H145.9C150.75 126.2 155.45 124.25 158.9 120.8C162.35 117.35 164.3 112.7 164.3 107.8V61.8004H164.4V35.2504C164.35 24.7504 156.5 16.1504 146.8 16.1504Z" fill="#C0BBBA"/>
<path d="M156.35 45.6504H23.95V107.9C23.95 110.65 25.05 113.3 27 115.2C28.95 117.1 31.55 118.25 34.3 118.25H146C148.75 118.25 151.4 117.15 153.3 115.2C155.25 113.25 156.35 110.65 156.35 107.9V45.6504Z" fill="white"/>
<path d="M156.4 35.2504C156.4 29.1504 152.15 24.1504 146.85 24.1504H33.4499C28.1499 24.1504 23.8999 29.1004 23.8999 35.2504V47.9004H156.35V35.2504H156.4Z" fill="#84EBD0"/>
<path d="M124.4 41.1008C127.75 41.1008 130.5 38.4508 130.5 35.2008C130.5 31.9508 127.75 29.3008 124.4 29.3008C121.05 29.3008 118.3 31.9508 118.3 35.2008C118.3 38.4508 121 41.1008 124.4 41.1008Z" fill="#C4F7EA"/>
<path d="M142.55 41.1008C145.9 41.1008 148.65 38.4508 148.65 35.2008C148.65 31.9508 145.9 29.3008 142.55 29.3008C139.2 29.3008 136.45 31.9508 136.45 35.2008C136.45 38.4508 139.15 41.1008 142.55 41.1008Z" fill="#C4F7EA"/>
<path d="M167.3 57.5H53.9499C44.2499 57.5 36.3999 66.05 36.3999 76.55V164.65C36.3999 169.5 38.3499 174.2 41.7999 177.65C45.2499 181.1 49.8999 183.05 54.7999 183.05H166.4C171.25 183.05 175.95 181.1 179.4 177.65C182.85 174.2 184.8 169.55 184.8 164.65V103.15H184.9V76.5C184.85 66.1 177 57.5 167.3 57.5Z" fill="#C0BBBA"/>
<path d="M176.85 87H44.45V164.75C44.45 167.5 45.55 170.15 47.5 172.05C49.45 173.95 52.0499 175.1 54.7999 175.1H166.5C169.25 175.1 171.9 174 173.8 172.05C175.75 170.1 176.85 167.5 176.85 164.75V87Z" fill="white"/>
<path d="M159.85 166.9H60.15C56.75 166.9 53.95 164.1 53.95 160.7V121.35C53.95 117.95 56.75 115.15 60.15 115.15H159.8C163.2 115.15 166 117.95 166 121.35V160.7C166.05 164.15 163.25 166.9 159.85 166.9Z" fill="#ECEAEA"/>
<path d="M176.9 76.6C176.9 70.5 172.65 65.5 167.35 65.5H53.9499C48.6499 65.5 44.3999 70.45 44.3999 76.6V89.25H176.85V76.6H176.9Z" fill="#5361FF"/>
<path d="M162.45 96.9004H57.5C55.55 96.9004 53.95 98.5004 53.95 100.45V103.75C53.95 105.7 55.55 107.3 57.5 107.3H162.45C164.4 107.3 166 105.7 166 103.75V100.45C166.05 98.5004 164.45 96.9004 162.45 96.9004Z" fill="#ECEAEA"/>
<path d="M144.9 82.4504C148.25 82.4504 151 79.8004 151 76.5504C151 73.3004 148.25 70.6504 144.9 70.6504C141.55 70.6504 138.8 73.3004 138.8 76.5504C138.8 79.8004 141.5 82.4504 144.9 82.4504Z" fill="#B1B8FF"/>
<path d="M163.05 82.4504C166.4 82.4504 169.15 79.8004 169.15 76.5504C169.15 73.3004 166.4 70.6504 163.05 70.6504C159.7 70.6504 156.95 73.3004 156.95 76.5504C156.95 79.8004 159.65 82.4504 163.05 82.4504Z" fill="#B1B8FF"/>
<path d="M195.6 141.8C195.6 151.05 188.1 158.55 178.85 158.55H77.5C68.25 158.55 60.75 151.05 60.75 141.8C60.75 132.55 68.25 125.05 77.5 125.05H178.9C188.15 125.05 195.6 132.55 195.6 141.8Z" fill="#4AA087"/>
<path d="M78.2 153.15C84.7722 153.15 90.1001 147.822 90.1001 141.25C90.1001 134.677 84.7722 129.35 78.2 129.35C71.6279 129.35 66.3 134.677 66.3 141.25C66.3 147.822 71.6279 153.15 78.2 153.15Z" fill="#4AC4A1"/>
<path d="M85.6501 136.6L78.2001 144.05C77.1501 145.1 75.4001 145.1 74.3501 144.05L72.1001 141.8" stroke="white" stroke-width="2"/>
<path d="M97.6001 132.649H178.35" stroke="#84EBD0" stroke-width="4" stroke-miterlimit="10" stroke-linecap="round" stroke-linejoin="round"/>
<path d="M97.6001 141.8H178.35" stroke="#84EBD0" stroke-width="4" stroke-miterlimit="10" stroke-linecap="round" stroke-linejoin="round"/>
<path d="M97.6001 150.95H168.45" stroke="#84EBD0" stroke-width="4" stroke-miterlimit="10" stroke-linecap="round" stroke-linejoin="round"/>
</g>
<defs>
<clipPath id="clip0_1208_9610">
<rect width="200" height="200" fill="white"/>
</clipPath>
</defs>
</svg>
