<svg width="24" height="24" viewBox="0 0 24 24" fill="none" xmlns="http://www.w3.org/2000/svg">
<path d="M12 22C17.5228 22 22 17.5228 22 12C22 6.47715 17.5228 2 12 2C6.47715 2 2 6.47715 2 12C2 17.5228 6.47715 22 12 22ZM7.57951 7.57948C7.86053 7.29846 8.31616 7.29846 8.59718 7.57949L12.159 11.1413L15.7208 7.57951C16.0019 7.29849 16.4575 7.29849 16.7385 7.57951C17.0195 7.86053 17.0195 8.31615 16.7385 8.59718L13.1767 12.159L16.7385 15.7208C17.0195 16.0018 17.0195 16.4575 16.7385 16.7385C16.4575 17.0195 16.0019 17.0195 15.7208 16.7385L12.159 13.1767L8.59717 16.7385C8.31615 17.0195 7.86053 17.0195 7.57951 16.7385C7.29849 16.4575 7.29849 16.0019 7.57951 15.7208L11.1414 12.159L7.57951 8.59715C7.29849 8.31613 7.29849 7.86051 7.57951 7.57948Z" fill="#E32224"/>
</svg>
