<?xml version="1.0" encoding="UTF-8"?>
<svg width="229" height="202" viewBox="0 0 229 202" fill="none" xmlns="http://www.w3.org/2000/svg">
<path fill-rule="evenodd" clip-rule="evenodd" d="M37.5543 28.7007C54.2589 16.3202 77.6863 28.3704 98.023 24.3106C118.663 20.1903 136.096 0.331645 156.557 4.94429C178.022 9.78353 193.501 28.9433 204.056 48.215C214.649 67.557 219.949 90.2897 215.157 111.94C210.569 132.67 194.803 148.481 178.767 162.467C164.071 175.284 147.068 185.281 127.836 188.095C109.171 190.826 89.3708 188.235 73.7471 177.834C59.1898 168.143 56.4838 148.874 46.9224 134.227C36.1039 117.654 15.8782 106.272 14.1223 86.493C12.2449 65.3459 20.4196 41.4 37.5543 28.7007Z" fill="#E6E9F0"/>
<path d="M212.582 171.71H16.905C12.6809 171.71 9.25952 168.331 9.25952 164.159V41.4753C9.25952 37.3033 12.6809 33.9242 16.905 33.9242H212.582C216.806 33.9242 220.227 37.3033 220.227 41.4753V164.164C220.227 168.331 216.801 171.71 212.582 171.71Z" fill="#434446"/>
<path d="M219.665 173.576H9.77817C4.61995 173.576 0.437744 169.445 0.437744 164.35V161.521H229V164.35C229 169.445 224.823 173.576 219.665 173.576Z" fill="#434446"/>
<path d="M213.972 39.397H14.9209V155.758H213.972V39.397Z" fill="#53565A"/>
<path d="M93.9458 161.521L96.7794 165.978H136.691L139.326 161.521H93.9458Z" fill="#53565A"/>
<path d="M208.567 155.384H20.7406C19.7908 155.384 19.0247 154.622 19.0247 153.689V45.0349C19.0247 44.0968 19.796 43.3402 20.7406 43.3402H208.567C209.517 43.3402 210.283 44.102 210.283 45.0349V153.689C210.283 154.627 209.512 155.384 208.567 155.384Z" fill="white"/>
<path opacity="0.55" d="M70.4926 94.8649H29.8913C28.9609 94.8649 28.115 93.3764 28.115 91.3918V55.3373C28.115 53.5181 28.8763 51.8642 29.8913 51.8642H70.5772C71.5077 51.8642 72.3535 53.3527 72.3535 55.3373V91.3918C72.2689 93.2111 71.5077 94.8649 70.4926 94.8649Z" fill="#D8E5FD"/>
<path opacity="0.55" d="M117.639 144.098H87.6055C86.9172 144.098 86.2915 142.997 86.2915 141.531V114.882C86.2915 113.537 86.8546 112.314 87.6055 112.314H117.702C118.39 112.314 119.016 113.415 119.016 114.882V141.531C118.953 142.875 118.39 144.098 117.639 144.098Z" fill="#D8E5FD"/>
<path opacity="0.55" d="M71.7384 119.793H28.6828C28.3989 119.793 28.115 119.329 28.115 118.679V116.544C28.115 115.987 28.3516 115.43 28.6828 115.43H71.7858C72.0696 115.43 72.3535 115.895 72.3535 116.544V118.772C72.3062 119.329 72.0696 119.793 71.7384 119.793Z" fill="#D8E5FD"/>
<path opacity="0.55" d="M71.7384 126.025H28.6828C28.3989 126.025 28.115 125.561 28.115 124.911V122.776C28.115 122.219 28.3516 121.662 28.6828 121.662H71.7858C72.0696 121.662 72.3535 122.127 72.3535 122.776V125.004C72.3062 125.561 72.0696 126.025 71.7384 126.025Z" fill="#D8E5FD"/>
<path opacity="0.55" d="M71.7384 132.257H28.6828C28.3989 132.257 28.115 131.793 28.115 131.143V129.008C28.115 128.451 28.3516 127.894 28.6828 127.894H71.7858C72.0696 127.894 72.3535 128.359 72.3535 129.008V131.236C72.3062 131.793 72.0696 132.257 71.7384 132.257Z" fill="#D8E5FD"/>
<path opacity="0.55" d="M71.7384 138.489H28.6828C28.3989 138.489 28.115 138.025 28.115 137.375V135.24C28.115 134.683 28.3516 134.126 28.6828 134.126H71.7858C72.0696 134.126 72.3535 134.591 72.3535 135.24V137.468C72.3062 138.025 72.0696 138.489 71.7384 138.489Z" fill="#D8E5FD"/>
<path opacity="0.55" d="M71.7384 144.721H28.6828C28.3989 144.721 28.115 144.257 28.115 143.607V141.472C28.115 140.915 28.3516 140.358 28.6828 140.358H71.7858C72.0696 140.358 72.3535 140.823 72.3535 141.472V143.7C72.3062 144.257 72.0696 144.721 71.7384 144.721Z" fill="#D8E5FD"/>
<path opacity="0.55" d="M199.774 119.793H126.048C125.562 119.793 125.076 119.329 125.076 118.679V116.544C125.076 115.987 125.481 115.43 126.048 115.43H199.855C200.341 115.43 200.827 115.895 200.827 116.544V118.772C200.746 119.329 200.341 119.793 199.774 119.793Z" fill="#D8E5FD"/>
<path opacity="0.55" d="M199.774 126.025H126.048C125.562 126.025 125.076 125.561 125.076 124.911V122.776C125.076 122.219 125.481 121.662 126.048 121.662H199.855C200.341 121.662 200.827 122.127 200.827 122.776V125.004C200.746 125.561 200.341 126.025 199.774 126.025Z" fill="#D8E5FD"/>
<path opacity="0.55" d="M199.774 132.257H126.048C125.562 132.257 125.076 131.793 125.076 131.143V129.008C125.076 128.451 125.481 127.894 126.048 127.894H199.855C200.341 127.894 200.827 128.359 200.827 129.008V131.236C200.746 131.793 200.341 132.257 199.774 132.257Z" fill="#D8E5FD"/>
<path opacity="0.55" d="M199.774 138.489H126.048C125.562 138.489 125.076 138.025 125.076 137.375V135.24C125.076 134.683 125.481 134.126 126.048 134.126H199.855C200.341 134.126 200.827 134.591 200.827 135.24V137.468C200.746 138.025 200.341 138.489 199.774 138.489Z" fill="#D8E5FD"/>
<path opacity="0.55" d="M168.102 144.721H125.636C125.356 144.721 125.076 144.257 125.076 143.607V141.472C125.076 140.915 125.31 140.358 125.636 140.358H168.149C168.429 140.358 168.709 140.823 168.709 141.472V143.7C168.662 144.257 168.429 144.721 168.102 144.721Z" fill="#D8E5FD"/>
<path opacity="0.55" d="M198.645 71.8065H88.3521C87.6249 71.8065 86.8977 71.3424 86.8977 70.6927V68.5579C86.8977 68.001 87.5037 67.4441 88.3521 67.4441H198.767C199.494 67.4441 200.221 67.9082 200.221 68.5579V70.7855C200.1 71.3424 199.494 71.8065 198.645 71.8065Z" fill="#D8E5FD"/>
<path opacity="0.55" d="M131.716 59.9657H87.481C87.1894 59.9657 86.8977 59.5016 86.8977 58.8519V56.7171C86.8977 56.1602 87.1408 55.6033 87.481 55.6033H131.765C132.057 55.6033 132.348 56.0674 132.348 56.7171V58.9447C132.3 59.5016 132.057 59.9657 131.716 59.9657Z" fill="#D8E5FD"/>
<path opacity="0.55" d="M198.645 78.0385H88.3521C87.6249 78.0385 86.8977 77.5744 86.8977 76.9247V74.7899C86.8977 74.233 87.5037 73.6761 88.3521 73.6761H198.767C199.494 73.6761 200.221 74.1402 200.221 74.7899V77.0175C200.1 77.5744 199.494 78.0385 198.645 78.0385Z" fill="#D8E5FD"/>
<path opacity="0.55" d="M198.645 84.2705H88.3521C87.6249 84.2705 86.8977 83.8065 86.8977 83.1567V81.0219C86.8977 80.465 87.5037 79.9081 88.3521 79.9081H198.767C199.494 79.9081 200.221 80.3722 200.221 81.0219V83.2496C200.1 83.8065 199.494 84.2705 198.645 84.2705Z" fill="#D8E5FD"/>
<path opacity="0.55" d="M198.645 90.5025H88.3521C87.6249 90.5025 86.8977 90.0384 86.8977 89.3887V87.2539C86.8977 86.697 87.5037 86.1401 88.3521 86.1401H198.767C199.494 86.1401 200.221 86.6042 200.221 87.2539V89.4815C200.1 90.0384 199.494 90.5025 198.645 90.5025Z" fill="#D8E5FD"/>
<path opacity="0.55" d="M199.243 96.7345H88.3599C87.6288 96.7345 86.8977 96.2704 86.8977 95.6207V93.4859C86.8977 92.929 87.507 92.3721 88.3599 92.3721H199.365C200.096 92.3721 200.827 92.8362 200.827 93.4859V95.7135C200.705 96.2704 200.096 96.7345 199.243 96.7345Z" fill="#D8E5FD"/>
<path opacity="0.55" d="M151.437 102.967H87.7377C87.3177 102.967 86.8977 102.502 86.8977 101.853V99.7179C86.8977 99.161 87.2477 98.6041 87.7377 98.6041H151.507C151.927 98.6041 152.347 99.0682 152.347 99.7179V101.946C152.277 102.502 151.927 102.967 151.437 102.967Z" fill="#D8E5FD"/>
<path opacity="0.55" d="M71.7384 104.213H28.6828C28.3989 104.213 28.115 103.749 28.115 103.099V100.964C28.115 100.407 28.3516 99.8505 28.6828 99.8505H71.7858C72.0696 99.8505 72.3535 100.315 72.3535 100.964V103.192C72.3062 103.749 72.0696 104.213 71.7384 104.213Z" fill="#D8E5FD"/>
<path d="M218.412 161.521C218.412 161.593 171.589 161.655 113.841 161.655C56.0718 161.655 9.25952 161.593 9.25952 161.521C9.25952 161.448 56.0718 161.386 113.841 161.386C171.589 161.386 218.412 161.443 218.412 161.521Z" fill="#455A64"/>
<path fill-rule="evenodd" clip-rule="evenodd" d="M87.3286 31.5742C89.7308 29.2793 94.2 30.7221 94.2 33.7926V55.4467H91.5784V33.7926C91.5784 32.7691 90.0887 32.2882 89.288 33.0531L87.7074 33.9467H84.2L87.3286 31.5742Z" fill="black"/>
<path d="M93.4067 84.6819C93.4067 113.781 134.488 102.94 123.647 76.6941" stroke="#ABB2C3" stroke-width="5.05183"/>
<path d="M93 85L93 53" stroke="#ABB2C3" stroke-width="4.63386"/>
<mask id="mask0" mask-type="alpha" maskUnits="userSpaceOnUse" x="74" y="83" width="83" height="62">
<rect x="85.2505" y="82.0225" width="75.3158" height="45.646" rx="4.56459" transform="rotate(15 85.2505 82.0225)" fill="#5A6175"/>
</mask>
<g mask="url(#mask0)">
<rect x="85.2505" y="82.0225" width="75.3158" height="45.646" rx="4.56459" transform="rotate(15 85.2505 82.0225)" fill="#5A6175"/>
<path d="M85.2505 82.0225L158 101.516L126.013 110.666L73.4364 126.113L85.2505 82.0225Z" fill="#52596D"/>
</g>
<rect x="134.91" y="108.324" width="13.6938" height="11.4115" rx="3.42345" transform="rotate(15 134.91 108.324)" fill="#F5A623"/>
<rect x="84.3433" y="103.045" width="27.3876" height="3.42345" rx="1.71172" transform="rotate(15 84.3433 103.045)" fill="#848FAA"/>
<rect x="81.0942" y="115.17" width="13.6938" height="3.42345" rx="1.71172" transform="rotate(15 81.0942 115.17)" fill="#848FAA"/>
<rect x="97.6282" y="119.6" width="13.6938" height="3.42345" rx="1.71172" transform="rotate(15 97.6282 119.6)" fill="#848FAA"/>
<rect x="114.162" y="124.03" width="13.6938" height="3.42345" rx="1.71172" transform="rotate(15 114.162 124.03)" fill="#848FAA"/>
<rect x="130.696" y="128.46" width="13.6938" height="3.42345" rx="1.71172" transform="rotate(15 130.696 128.46)" fill="#848FAA"/>
<path d="M123.647 76.6941C129.71 91.3736 119.532 101.234 109.383 101.983" stroke="#ABB2C3" stroke-width="5.05183"/>
<line x1="133.224" y1="80.3823" x2="121.365" y2="73.5354" stroke="#ABB2C3" stroke-width="4.5646"/>
<line x1="124.483" y1="72.7" x2="117.636" y2="84.5592" stroke="#ABB2C3" stroke-width="4.56459"/>
</svg>
