<svg width="551" height="332" viewBox="0 0 551 332" fill="none" xmlns="http://www.w3.org/2000/svg">
<path d="M199.679 248.707C167.787 196.591 94.7847 124.591 70.4067 108.421L70.8601 107.754C95.29 123.956 168.432 196.088 200.378 248.291L199.679 248.707Z" fill="#A1CCB8"/>
<path d="M58.3596 94.5261C55.6421 91.8452 52.87 89.1237 49.4698 87.367C47.416 86.3049 43.2018 85.0968 41.3993 87.3373C36.0409 93.9883 57.2152 103.083 60.6755 104.328C64.8378 105.826 72.8809 109.498 72.8809 109.498C72.8809 109.498 63.1964 99.2989 58.3596 94.5261Z" fill="#A1CCB8"/>
<path d="M68.0837 115.782C65.1286 115.392 62.1189 115.006 59.1803 115.506C57.405 115.809 54.226 117.027 54.1796 119.254C54.0376 125.862 71.4539 121.6 74.1823 120.754C77.4651 119.738 84.1836 118.254 84.1836 118.254C84.1836 118.254 73.3466 116.473 68.0837 115.782Z" fill="#A1CCB8"/>
<path d="M83.8405 102.13C83.7121 99.1819 83.5728 96.182 82.5623 93.4065C81.9505 91.7309 80.1862 88.8445 77.9631 89.1877C71.362 90.2012 78.6377 106.428 79.9541 108.941C81.5381 111.962 84.1846 118.251 84.1846 118.251C84.1846 118.251 84.0671 107.382 83.8405 102.13Z" fill="#A1CCB8"/>
<path d="M83.192 128.382C80.2615 127.834 77.2791 127.285 74.3186 127.626C72.5297 127.831 69.2879 128.877 69.1186 131.096C68.6133 137.687 86.2372 134.374 89.0093 133.677C92.344 132.839 99.1335 131.72 99.1335 131.72C99.1335 131.72 88.4084 129.358 83.192 128.382Z" fill="#A1CCB8"/>
<path d="M99.6826 115.604C99.7181 112.655 99.7454 109.65 98.8905 106.826C98.3743 105.118 96.7684 102.142 94.5317 102.364C87.8841 103.018 94.2504 119.614 95.4275 122.195C96.8422 125.298 99.1391 131.722 99.1391 131.722C99.1391 131.722 99.6197 120.858 99.6826 115.604Z" fill="#A1CCB8"/>
<path d="M98.4152 144.575C95.0532 143.894 91.6284 143.21 88.2172 143.556C86.1552 143.764 82.4081 144.91 82.1732 147.464C81.4768 155.039 101.815 151.526 105.019 150.769C108.87 149.861 116.705 148.688 116.705 148.688C116.705 148.688 104.402 145.786 98.4152 144.575Z" fill="#A1CCB8"/>
<path d="M117.608 130.153C117.698 126.758 117.783 123.304 116.846 120.037C116.281 118.064 114.486 114.613 111.905 114.829C104.245 115.472 111.285 134.677 112.594 137.666C114.167 141.26 116.699 148.69 116.699 148.69C116.699 148.69 117.447 136.198 117.608 130.153Z" fill="#A1CCB8"/>
<path d="M115.948 161.524C112.619 160.705 109.227 159.878 105.802 160.08C103.735 160.202 99.9412 161.191 99.5971 163.732C98.5811 171.272 119.048 168.607 122.282 167.985C126.168 167.239 134.045 166.394 134.045 166.394C134.045 166.394 121.878 162.983 115.948 161.524Z" fill="#A1CCB8"/>
<path d="M135.738 147.911C135.973 144.525 136.205 141.076 135.407 137.774C134.927 135.779 133.28 132.255 130.693 132.363C123.014 132.685 129.23 152.168 130.412 155.208C131.832 158.865 134.045 166.394 134.045 166.394C134.045 166.394 135.32 153.943 135.738 147.911Z" fill="#A1CCB8"/>
<path d="M133.536 181.532C129.762 180.394 125.916 179.245 121.97 179.272C119.585 179.289 115.169 180.202 114.623 183.099C113.001 191.699 136.671 189.85 140.421 189.326C144.93 188.699 154.03 188.194 154.03 188.194C154.03 188.194 140.257 183.559 133.536 181.532Z" fill="#A1CCB8"/>
<path d="M157.09 167.066C157.565 163.191 158.038 159.242 157.322 155.402C156.891 153.083 155.211 148.937 152.234 148.91C143.393 148.827 149.358 171.569 150.53 175.134C151.939 179.42 154.028 188.195 154.028 188.195C154.028 188.195 156.246 173.971 157.09 167.066Z" fill="#A1CCB8"/>
<path d="M152.613 201.884C148.937 200.462 145.193 199.022 141.257 198.749C138.881 198.584 134.405 199.157 133.635 202.003C131.346 210.454 155.09 210.416 158.87 210.184C163.415 209.902 172.526 210.094 172.526 210.094C172.526 210.094 159.16 204.419 152.613 201.884Z" fill="#A1CCB8"/>
<path d="M177.226 189.264C178.001 185.435 178.782 181.535 178.367 177.651C178.119 175.305 176.767 171.046 173.801 170.789C164.993 170.03 169.166 193.161 170.056 196.804C171.127 201.185 172.525 210.096 172.525 210.096C172.525 210.096 175.844 196.083 177.226 189.264Z" fill="#A1CCB8"/>
<path d="M429.575 256.862L453.391 263.316C494.363 237.174 530.416 205.178 550.779 195.07C545.62 194.613 486.748 191.146 449.171 193.84L441.68 209.969L441.48 194.516C437.517 194.935 433.91 195.446 430.782 196.065C386 204.913 330.326 227.79 317.405 276.075C311.981 296.352 334.876 300.041 350.001 300.579C380.71 301.671 413.456 287.547 443.996 269.148L429.575 256.862Z" fill="#A1CCB8"/>
<path d="M371.367 238.84C358.864 239.948 338.681 242.097 329.764 230.962C326.913 227.403 325.626 222.873 324.752 218.414C322.513 206.988 322.578 195.123 324.938 183.721C325.654 180.267 326.642 176.727 328.947 174.038C331.252 171.349 335.207 169.754 338.49 171.124C341.77 172.497 343.867 175.176 347.309 172.078C353.47 166.53 354.912 156.23 358.009 148.974C360.26 143.704 365.891 133.599 373.096 134.769C378.004 135.566 379.612 143.031 384.935 142.682C386.828 142.558 388.39 141.15 389.461 139.599C395.955 130.205 400.123 113.27 412.76 110.224C415.442 109.578 418.547 109.965 420.503 111.895C422.554 113.919 422.941 117.146 424.905 119.254C427.235 121.751 431.271 122.008 434.483 120.802C437.695 119.597 440.289 117.221 442.838 114.943C449.19 109.268 456.032 103.746 464.2 101.222C477.37 97.1546 494.622 104.157 487.707 120.294C485.014 126.578 478.047 129.802 471.553 132.102C465.547 134.229 447.125 140.172 455.718 148.939C457.364 150.62 459.402 151.968 460.658 153.955C463.187 157.955 461.655 163.538 458.214 166.806C454.773 170.073 449.914 171.43 445.184 172.024C440.453 172.619 435.636 172.573 430.976 173.584C427.532 174.33 423.594 176.524 423.763 180.008C423.938 183.635 428.341 185.44 430.138 188.607C432.162 192.178 430.345 196.912 427.161 199.526C423.977 202.137 419.787 203.139 415.759 204.066C411.763 204.985 407.765 205.904 403.769 206.826C399.487 207.812 394.453 209.49 393.388 213.712C392.741 216.285 393.869 218.936 394.068 221.579C394.464 226.819 391.042 231.803 386.549 234.603C382.057 237.408 376.654 238.373 371.367 238.84Z" fill="#008890"/>
<path d="M337.708 234.694L336.902 234.572C346.119 174.232 385.633 79.8223 401.894 55.5747L402.572 56.0206C386.346 80.2196 346.911 174.453 337.708 234.694Z" fill="#A1CCB8"/>
<path d="M408.299 38.6096C409.766 35.1016 411.268 31.5342 413.726 28.6181C415.209 26.8587 418.631 24.1399 421.166 25.5209C428.695 29.6235 412.677 46.0714 409.968 48.5362C406.707 51.5009 400.709 57.9493 400.709 57.9493C400.709 57.9493 405.686 44.8579 408.299 38.6096Z" fill="#A1CCB8"/>
<path d="M407.579 61.931C410.157 60.4472 412.785 58.9446 415.69 58.2906C417.447 57.896 420.855 57.8122 421.762 59.8473C424.457 65.8956 406.727 68.582 403.876 68.8415C400.448 69.1523 393.669 70.336 393.669 70.336C393.669 70.336 402.988 64.5714 407.579 61.931Z" fill="#A1CCB8"/>
<path d="M387.729 55.3227C386.702 52.5525 385.665 49.731 385.52 46.7852C385.433 45.0069 385.943 41.6692 388.128 41.1395C394.615 39.5666 394.202 57.3118 393.962 60.1333C393.672 63.525 393.672 70.3382 393.672 70.3382C393.672 70.3382 389.557 60.2549 387.729 55.3227Z" fill="#A1CCB8"/>
<path d="M398.523 79.3099C401.013 77.691 403.556 76.0479 406.421 75.2371C408.153 74.7479 411.55 74.4804 412.569 76.4641C415.595 82.3557 398.039 86.0015 395.207 86.4123C391.804 86.9068 385.099 88.4581 385.099 88.4581C385.099 88.4581 394.087 82.1962 398.523 79.3099Z" fill="#A1CCB8"/>
<path d="M378.34 73.7829C377.163 71.0722 375.97 68.3102 375.664 65.3779C375.478 63.605 375.803 60.2484 377.955 59.5998C384.346 57.6782 384.914 75.418 384.829 78.2503C384.728 81.6528 385.103 88.4552 385.103 88.4552C385.103 88.4552 380.438 78.6097 378.34 73.7829Z" fill="#A1CCB8"/>
<path d="M390.762 100.05C393.602 98.1446 396.497 96.2096 399.78 95.2285C401.763 94.6366 405.671 94.2691 406.878 96.5366C410.462 103.266 390.322 107.755 387.072 108.277C383.164 108.904 375.476 110.801 375.476 110.801C375.476 110.801 385.704 103.444 390.762 100.05Z" fill="#A1CCB8"/>
<path d="M367.437 94.0313C366.036 90.9314 364.616 87.7748 364.212 84.402C363.969 82.3669 364.283 78.4968 366.749 77.7158C374.071 75.3943 375.03 95.8015 374.981 99.0608C374.923 102.98 375.472 110.801 375.472 110.801C375.472 110.801 369.934 99.5499 367.437 94.0313Z" fill="#A1CCB8"/>
<path d="M381.157 122.362C383.912 120.34 386.723 118.286 389.962 117.17C391.917 116.495 395.806 115.968 397.109 118.181C400.976 124.756 381.045 130.081 377.819 130.735C373.941 131.524 366.34 133.74 366.34 133.74C366.34 133.74 376.249 125.964 381.157 122.362Z" fill="#A1CCB8"/>
<path d="M357.598 117.323C356.066 114.286 354.512 111.189 353.966 107.837C353.635 105.813 353.786 101.932 356.216 101.051C363.432 98.427 365.259 118.777 365.349 122.034C365.458 125.95 366.338 133.742 366.338 133.742C366.338 133.742 360.327 122.734 357.598 117.323Z" fill="#A1CCB8"/>
<path d="M372.689 147.526C375.732 145.04 378.837 142.518 382.491 141.043C384.698 140.151 389.131 139.316 390.761 141.783C395.601 149.104 373.028 156.399 369.363 157.345C364.955 158.48 356.36 161.474 356.36 161.474C356.36 161.474 367.271 151.953 372.689 147.526Z" fill="#A1CCB8"/>
<path d="M345.326 143.126C343.381 139.729 341.412 136.264 340.582 132.446C340.079 130.14 340.019 125.676 342.758 124.516C350.889 121.076 354.215 144.343 354.516 148.077C354.879 152.569 356.359 161.466 356.359 161.466C356.359 161.466 348.789 149.18 345.326 143.126Z" fill="#A1CCB8"/>
<path d="M362.977 173.569C365.818 170.859 368.715 168.105 372.244 166.356C374.374 165.299 378.73 164.126 380.547 166.461C385.943 173.394 364.007 182.388 360.427 183.609C356.12 185.08 347.784 188.72 347.784 188.72C347.784 188.72 357.919 178.399 362.977 173.569Z" fill="#A1CCB8"/>
<path d="M335.353 171.276C333.149 168.035 330.915 164.733 329.79 160.99C329.11 158.73 328.7 154.282 331.341 152.917C339.177 148.866 344.308 171.808 344.901 175.511C345.614 179.962 347.785 188.718 347.785 188.718C347.785 188.718 339.278 177.046 335.353 171.276Z" fill="#A1CCB8"/>
<path d="M174.228 140.01L151.907 129.303C138.404 82.7237 132.53 34.9339 123.891 13.9673C128.097 16.9996 174.925 52.9088 201.531 79.5401L196.416 96.6393L206.895 85.0858C209.61 87.9965 211.997 90.7423 213.947 93.2584C241.892 129.257 268.692 182.992 246.185 227.955C236.733 246.835 216.957 234.641 205.164 225.15C181.217 205.878 165.901 173.768 155.108 139.867L174.228 140.01Z" fill="#A1CCB8"/>
<path d="M150.258 285.177C162.551 282.677 182.501 278.991 187.803 265.791C189.499 261.572 189.414 256.867 188.955 252.351C187.778 240.773 184.269 229.431 178.692 219.185C177.004 216.08 175.026 212.975 172.039 211.056C169.048 209.137 164.798 208.734 162.054 210.983C159.312 213.231 158.083 216.393 153.888 214.407C146.374 210.848 142.002 201.397 136.925 195.329C133.238 190.922 124.908 182.852 118.35 186.022C113.882 188.181 114.513 195.786 109.313 196.967C107.464 197.386 105.56 196.483 104.083 195.305C95.133 188.159 86.2186 173.13 73.2321 173.811C70.4764 173.955 67.617 175.211 66.3033 177.614C64.9268 180.135 65.4949 183.338 64.2249 185.914C62.7201 188.968 58.9293 190.362 55.5045 190.124C52.0796 189.884 48.9033 188.349 45.8008 186.892C38.069 183.265 29.9111 179.927 21.3545 179.836C7.56239 179.69 -6.92347 191.305 4.38883 204.788C8.79412 210.04 16.403 211.145 23.2909 211.496C29.6599 211.823 49.0262 212.269 43.3482 223.112C42.2613 225.19 40.7018 227.063 40.0764 229.32C38.8173 233.868 41.9089 238.782 46.1504 240.93C50.3945 243.079 55.4416 242.995 60.1446 242.219C64.8476 241.444 69.4495 240.027 74.2017 239.668C77.7166 239.403 82.1247 240.381 82.974 243.768C83.8589 247.292 80.1719 250.273 79.3717 253.816C78.4704 257.81 81.5866 261.829 85.3965 263.421C89.2065 265.016 93.508 264.783 97.6347 264.524C101.729 264.267 105.823 264.01 109.917 263.751C114.303 263.475 119.612 263.651 121.857 267.391C123.225 269.669 122.917 272.531 123.493 275.118C124.637 280.247 129.362 284.044 134.477 285.447C139.604 286.847 145.058 286.234 150.258 285.177Z" fill="#008890"/>
<path d="M104.299 71.4798C105.088 76.6039 110.25 83.0469 114.142 82.5469C116.299 82.2686 117.946 80.3065 118.421 78.2039C118.897 76.104 118.419 73.9068 117.728 71.8636C116.277 67.5692 109.723 61.8884 105.238 67.0233C104.269 68.1367 104.031 69.7313 104.299 71.4798Z" fill="#009061"/>
<path d="M444.588 92.0853C449.564 90.4664 455.133 84.364 453.992 80.6479C453.358 78.5886 451.129 77.3075 448.955 77.1886C446.784 77.0724 444.673 77.9021 442.753 78.9129C438.714 81.0398 434.134 88.3746 439.995 91.9015C441.265 92.6663 442.892 92.6366 444.588 92.0853Z" fill="#A1CCB8"/>
<path d="M84.4173 34.1571C85.0345 38.1678 89.0739 43.2108 92.1218 42.8189C93.8096 42.6 95.0987 41.0649 95.4701 39.4218C95.8416 37.7786 95.4674 36.057 94.9266 34.4598C93.7905 31.1005 88.6615 26.652 85.152 30.6708C84.3927 31.541 84.2043 32.7896 84.4173 34.1571Z" fill="#A1CCB8"/>
<path d="M492.616 148.14C496.708 147.888 502.145 144.362 502.025 141.324C501.957 139.64 500.528 138.232 498.906 137.719C497.284 137.205 495.52 137.419 493.864 137.808C490.38 138.627 485.444 143.283 489.175 147.102C489.981 147.929 491.221 148.224 492.616 148.14Z" fill="#A1CCB8"/>
<path d="M76.5692 56.5515C76.998 59.3325 79.7974 62.8297 81.9113 62.5567C83.083 62.4054 83.976 61.3405 84.2328 60.2C84.4922 59.0595 84.23 57.8677 83.8559 56.7597C83.0693 54.43 79.5107 51.3464 77.08 54.1327C76.5529 54.7354 76.4218 55.6029 76.5692 56.5515Z" fill="#A1CCB8"/>
<path d="M480.131 168.351C482.928 167.846 486.38 164.976 486.044 162.895C485.859 161.741 484.755 160.89 483.597 160.665C482.439 160.444 481.24 160.736 480.134 161.138C477.804 161.984 474.792 165.592 477.676 167.919C478.299 168.419 479.178 168.522 480.131 168.351Z" fill="#009061"/>
<path d="M387.489 17.4634C389.081 15.1338 389.42 10.6854 387.683 9.4665C386.719 8.79085 385.334 8.97462 384.362 9.63946C383.389 10.3043 382.764 11.3529 382.281 12.4204C381.262 14.6609 381.762 19.3147 385.457 18.9012C386.257 18.8093 386.945 18.2607 387.489 17.4634Z" fill="#009061"/>
<path d="M29.1624 160.595C31.7324 161.795 36.2279 161.446 37.1783 159.562C37.7054 158.516 37.3121 157.189 36.4982 156.341C35.6871 155.492 34.5427 155.041 33.4039 154.73C31.0114 154.076 26.4395 155.276 27.4173 158.827C27.633 159.595 28.2858 160.184 29.1624 160.595Z" fill="#009061"/>
<path d="M446.161 56.4028C448.531 54.8515 450.566 50.8679 449.43 49.0842C448.799 48.095 447.45 47.741 446.295 47.9869C445.139 48.2329 444.156 48.968 443.296 49.7679C441.488 51.4516 440.152 55.9406 443.73 56.9568C444.503 57.1784 445.35 56.9325 446.161 56.4028Z" fill="#A1CCB8"/>
<path d="M267.254 331.401C378.494 331.401 468.671 324.332 468.671 315.611C468.671 306.89 378.494 299.82 267.254 299.82C156.014 299.82 65.837 306.89 65.837 315.611C65.837 324.332 156.014 331.401 267.254 331.401Z" fill="#C4C4C4" fill-opacity="0.31"/>
<g opacity="0.1">
<path opacity="0.1" d="M454.143 307.064C454.143 314.282 374.455 320.134 276.151 320.134C177.85 320.134 98.1582 314.282 98.1582 307.064C98.1582 299.845 177.847 293.994 276.151 293.994C374.455 293.994 454.143 299.845 454.143 307.064Z" fill="#231F20"/>
</g>
<path d="M404.957 254.137C402.011 257.812 398.149 261.004 394.331 263.639C373.495 278.02 348.595 287.857 323.906 294.195C301.855 299.856 278.744 299.605 256.191 297.408C240.776 295.905 225.438 291.178 210.57 286.792C195.276 282.279 180.189 276.903 165.933 269.758C154.7 264.128 144.638 257.139 142.926 243.837C142.251 238.605 143.415 232.811 147.462 229.262C152.34 224.987 159.719 225.13 166.293 225.635C203.548 228.489 239.629 240.908 277.141 241.137C298.078 241.264 317.6 235.878 337.717 231.005C353.236 227.246 370.466 223.114 386.626 223.903C401.279 224.614 415.764 240.654 404.957 254.137Z" fill="#0B2D4E"/>
<path d="M228.47 222.994C228.06 222.077 227.645 221.14 227.211 220.178C222.666 210.124 219.337 199.527 217.319 188.695C216.59 184.79 215.852 180.517 212.834 177.896C208.661 174.269 200.533 174.736 195.363 175.42C192.949 175.739 190.423 176.566 188.964 178.496C186.547 181.695 186.788 188.922 186.695 192.779C186.116 216.221 204.843 235.599 220.094 251.417C223.03 254.463 226.217 257.544 230.283 258.773C234.35 260.006 239.515 258.725 241.295 254.9C242.601 252.095 241.8 248.798 240.768 245.885C238.99 240.871 236.314 236.277 233.268 231.92C231.215 228.98 229.86 226.102 228.47 222.994Z" fill="#9F6349"/>
<path d="M320.532 222.994C320.942 222.077 321.354 221.14 321.791 220.178C326.335 210.124 329.662 199.527 331.683 188.695C332.412 184.79 333.15 180.517 336.168 177.896C340.341 174.269 348.468 174.736 353.638 175.42C356.053 175.739 358.579 176.566 360.037 178.496C362.455 181.695 362.214 188.922 362.307 192.779C362.886 216.221 344.159 235.599 328.908 251.417C325.972 254.463 322.785 257.544 318.718 258.773C314.652 260.006 309.487 258.725 307.707 254.9C306.401 252.095 307.201 248.798 308.234 245.885C310.012 240.871 312.688 236.277 315.733 231.92C317.787 228.98 319.142 226.102 320.532 222.994Z" fill="#9F6349"/>
<path d="M200.243 147.449C198.79 151.071 197.394 154.717 196.023 158.368C191.323 170.862 180.147 192.061 192.751 203.577C194.18 204.882 197.616 204.809 199.388 204.463C204.46 203.469 207.011 198.796 209.496 194.818C216.949 182.878 222.357 169.797 229.542 157.692C234.729 148.957 237.356 138.536 239.844 128.802C241.491 122.359 243.61 113.137 238.121 107.803C235.887 105.632 232.637 104.53 229.529 104.886C227.655 105.103 225.877 105.811 224.187 106.635C222.739 107.34 221.324 108.14 220.098 109.178C217.05 111.754 215.578 115.475 213.762 118.899C211.626 122.929 209.441 126.921 207.445 131.023C204.826 136.401 202.466 141.898 200.243 147.449Z" fill="#9F6349"/>
<path d="M205.916 127.726C212.883 115.083 221.942 103.711 235.909 99.0729C239.91 97.7433 244.851 97.4163 247.85 100.354C249.729 102.194 250.409 104.975 250.25 107.586C250.021 111.372 248.289 114.967 247.404 118.634C245.05 128.401 241.481 137.928 236.775 146.828C235.762 148.746 228.325 169.578 228.923 170.091C224.018 165.875 217.029 160.622 211.162 157.862C209.603 157.13 195.385 149.887 194.975 150.803C198.272 143.449 201.713 135.355 205.916 127.726Z" fill="#22A3CB"/>
<path d="M350.375 147.449C351.828 151.071 353.223 154.717 354.594 158.368C359.295 170.862 370.47 192.061 357.866 203.577C356.438 204.882 353.002 204.809 351.23 204.463C346.158 203.469 343.607 198.796 341.122 194.818C333.669 182.878 328.261 169.797 321.075 157.692C315.889 148.957 313.262 138.536 310.774 128.802C309.127 122.359 307.007 113.137 312.497 107.803C314.731 105.632 317.981 104.53 321.089 104.886C322.963 105.103 324.741 105.811 326.431 106.635C327.879 107.34 329.293 108.14 330.52 109.178C333.567 111.754 335.04 115.475 336.856 118.899C338.991 122.929 341.176 126.921 343.173 131.023C345.789 136.401 348.149 141.898 350.375 147.449Z" fill="#9F6349"/>
<path d="M344.637 127.726C337.67 115.083 328.611 103.711 314.644 99.0729C310.643 97.7433 305.702 97.4163 302.704 100.354C300.825 102.194 300.145 104.975 300.303 107.586C300.532 111.372 302.264 114.967 303.149 118.634C305.503 128.401 309.073 137.928 313.778 146.828C314.791 148.746 322.228 169.578 321.63 170.091C326.535 165.875 333.524 160.622 339.391 157.862C340.95 157.13 355.168 149.887 355.578 150.803C352.282 143.449 348.84 135.355 344.637 127.726Z" fill="#22A3CB"/>
<path d="M324.819 224.817C324.726 224.441 324.636 224.063 324.549 223.687C321.255 209.577 320.771 195.01 321.184 180.586C321.588 166.444 324.773 152.528 325.185 138.378C325.66 122.059 322.79 98.8793 302.151 96.9929C293.616 96.2145 285.032 95.3037 276.437 95.201V95.1821C276.131 95.1821 275.825 95.1902 275.52 95.1929C275.214 95.1902 274.908 95.1821 274.602 95.1821V95.201C266.007 95.301 257.423 96.2118 248.888 96.9929C228.252 98.8793 225.379 122.059 225.854 138.378C226.267 152.528 229.448 166.444 229.855 180.586C230.268 195.01 229.784 209.577 226.491 223.687C226.403 224.066 226.313 224.441 226.22 224.817C225.573 227.468 224.527 230.16 225.016 232.844C226.075 238.643 240.193 241.46 244.953 242.708C253.826 245.038 262.989 246.078 272.125 246.743C272.958 246.802 273.774 246.862 274.583 246.919V247.043C274.891 247.024 275.208 247.002 275.52 246.981C275.831 247.002 276.148 247.024 276.456 247.043V246.919C277.265 246.862 278.081 246.802 278.914 246.743C288.05 246.076 297.213 245.038 306.086 242.708C310.844 241.46 324.964 238.643 326.021 232.844C326.512 230.16 325.466 227.471 324.819 224.817Z" fill="#50B1D0"/>
<path d="M262.241 110.618C274.984 118.942 299.788 112.488 292.758 95.978C291.906 93.9754 290.868 92.0349 290.3 89.9458C289.358 86.4784 289.451 82.9056 289.546 79.376C289.661 75.2573 289.694 71.1278 289.92 67.0171C285.261 66.155 281.484 65.7226 276.535 65.901C272.441 66.0496 268.353 65.6739 264.262 65.8847C263.931 65.901 263.576 65.9307 263.341 66.1226C263.106 66.3145 263.063 66.6171 263.035 66.8955C262.486 72.4574 263.027 78.0869 262.596 83.6596C262.355 86.7757 261.924 90.3404 260.485 93.2322C258.272 97.6806 254.981 101.81 258.152 106.64C259.195 108.223 260.596 109.542 262.241 110.618Z" fill="#9F6349"/>
<path d="M290.114 89.1978C289.379 85.9736 289.571 82.5981 289.661 79.3306C289.775 75.2119 289.808 71.0823 290.035 66.9717C285.376 66.1096 281.598 65.6772 276.65 65.8555C272.556 66.0042 268.467 65.6285 264.373 65.8393C264.043 65.8555 263.688 65.8853 263.453 66.0772C263.218 66.269 263.177 66.5717 263.147 66.8501C262.598 72.412 263.139 78.0415 262.707 83.6142C262.584 85.2088 262.358 86.806 262.019 88.3789C262.661 88.8708 263.316 89.3437 263.988 89.7788C269.041 93.049 275.852 94.1354 281.899 92.6328C284.982 91.8706 287.631 90.7409 290.114 89.1978Z" fill="#6D4D42"/>
<path d="M206.97 172.011L205.806 174.738H344.394L343.001 171.673L206.97 172.011Z" fill="#B8D1CE"/>
<path d="M274.095 306.654C279.273 307.846 284.782 308.295 289.619 309.133C291.798 309.511 293.98 309.889 296.182 310.124C299.678 310.497 303.201 310.5 306.718 310.505C309.272 310.508 311.828 310.514 314.382 310.516C315.775 310.519 317.228 310.505 318.462 309.868C319.937 309.106 320.83 307.597 321.647 306.162C323.266 303.319 325.222 300.619 326.541 297.614C327.404 295.649 328.311 293.722 327.144 291.671C326.574 290.666 325.708 289.858 324.823 289.106C323.69 288.144 322.491 287.239 321.155 286.571C316.766 284.382 312.295 285.671 307.819 286.812C303.081 288.02 298.35 289.366 293.473 289.901C288.221 290.479 282.936 290.098 277.681 289.825" fill="#D5EFF7"/>
<path d="M292.304 312.192C291.496 312.181 290.687 312.17 289.873 312.162C287.964 312.143 285.583 312.046 284.043 310.781C283.802 310.583 283.578 310.356 283.447 310.078C283.125 309.386 283.474 308.53 284.067 308.04C284.66 307.554 285.438 307.354 286.192 307.203C285.318 307.381 283.81 304.195 283.627 303.6C283.13 301.987 282.83 300.073 282.904 298.381C282.972 296.779 283.305 295.23 284.302 293.949C284.813 293.292 286.604 291.282 287.607 291.514C286.738 291.314 286.252 290.279 286.465 289.422C286.678 288.566 287.432 287.922 288.262 287.603C289.092 287.284 290.002 287.239 290.892 287.206C295.571 287.033 300.334 287.112 304.908 285.979C308.961 284.976 312.782 284.541 316.996 284.663C320.137 284.755 323.245 285.414 326.176 286.525C326.97 286.828 327.746 287.217 328.475 287.679C338.192 293.836 331.774 305.854 323.778 310.097C317.865 313.235 311.613 312.786 305.16 312.54C300.861 312.375 296.603 312.256 292.304 312.192Z" fill="#FCB32B"/>
<path d="M334.833 261.393H215.32L206.757 173.345C206.605 171.767 207.839 170.399 209.418 170.399H340.738C342.317 170.399 343.551 171.767 343.398 173.345L334.833 261.393Z" fill="#B8D1CE"/>
<path d="M335.77 263.887H214.38L205.684 175.839C205.529 174.261 206.782 172.894 208.386 172.894H341.768C343.371 172.894 344.625 174.261 344.469 175.839L335.77 263.887Z" fill="white"/>
<path d="M335.698 263.883H214.382V269.226H335.698V263.883Z" fill="#B8D1CE"/>
<path d="M246.789 274.477C253.974 278.617 261.231 282.798 268.569 286.595C268.714 286.671 268.864 286.741 269.012 286.811C272.144 288.292 275.392 289.525 278.508 291.049C280.491 292.019 282.443 293.06 284.301 294.249C285.175 294.808 286.027 295.403 286.835 296.049C287.163 296.311 287.717 296.638 287.927 297.003C288.195 297.47 288.072 298.222 287.887 298.692C287.69 299.192 287.359 299.63 286.999 300.027C285.557 301.622 283.615 302.676 281.662 303.6C280.458 304.17 279.234 304.702 277.992 305.186C276.847 305.632 275.583 306.224 274.373 306.456C273.799 306.567 273.103 306.373 272.521 306.294C271.877 306.208 271.232 306.113 270.588 306.013C269.299 305.813 268.015 305.586 266.734 305.338C260.887 304.208 255.138 302.635 249.432 300.943C243.773 299.268 238.15 297.468 232.475 295.849C205.669 288.206 177.784 279.644 154.441 264.12C149.064 260.531 143.651 255.237 141.357 249.137C135.34 233.103 152.557 220.685 167.25 226.725C191.787 236.814 212.008 254.899 235.146 267.826C239.002 269.99 242.886 272.228 246.789 274.477Z" fill="#9F6349"/>
<path d="M293.315 280.26C289.445 282.441 285.553 284.573 281.639 286.6C277.635 288.67 253.995 296.751 260.459 305.191C261.729 306.848 264.13 307.045 266.23 307.064C278.31 307.178 290.054 304.153 301.626 300.699" fill="#9F6349"/>
<path d="M268.561 286.593C266.376 285.463 264.199 284.29 262.025 283.101C258.251 283.996 254.455 284.801 250.577 285.09C242.345 285.709 234.078 283.996 225.841 284.523C223.76 284.655 221.69 284.931 219.649 285.347C217.23 285.839 214.447 286.931 213.936 289.322C213.859 289.676 213.859 290.02 213.887 290.358C220.092 292.284 226.305 294.092 232.464 295.849C240.862 298.244 249.309 301.087 257.877 303.311C257.904 303.3 257.934 303.289 257.962 303.279C262.558 301.568 267.889 300.117 272.753 297.998C275.992 296.587 279.027 294.879 281.496 292.598C276.241 289.714 270.377 287.533 268.561 286.593Z" fill="#6D4D42"/>
<path d="M257.245 304.882C251.843 303.271 235.751 297.917 230.409 296.396C203.603 288.753 177.346 279.651 154.003 264.13C148.626 260.541 143.213 255.246 140.919 249.147C134.902 233.112 152.119 220.694 166.812 226.734C191.349 236.823 210.385 250.963 233.523 263.889C237.384 266.046 244.242 270.424 248.148 272.675C251.499 274.608 262.896 280.243 266.28 282.148" fill="#0B2D4E"/>
<path d="M275.079 306.654C269.9 307.846 264.392 308.295 259.555 309.133C257.376 309.511 255.193 309.889 252.992 310.124C249.496 310.497 245.973 310.5 242.455 310.505C239.902 310.508 237.346 310.514 234.792 310.516C233.399 310.519 231.946 310.505 230.712 309.868C229.237 309.106 228.344 307.597 227.527 306.162C225.908 303.319 223.952 300.619 222.633 297.614C221.77 295.649 220.863 293.722 222.029 291.671C222.6 290.666 223.466 289.858 224.351 289.106C225.484 288.144 226.683 287.239 228.019 286.571C232.408 284.382 236.878 285.671 241.355 286.812C246.093 288.02 250.824 289.366 255.701 289.901C260.953 290.479 266.238 290.098 271.493 289.825" fill="#D5EFF7"/>
<path d="M271.493 289.83C275.691 289.614 282.128 288.543 285.878 290.93C287.41 291.905 289.786 294.262 289.975 296.124C290.209 298.47 287.56 300.919 285.875 302.145C282.764 304.41 279.02 305.748 275.079 306.653" fill="#9F6349"/>
<path d="M256.868 312.192C257.676 312.181 258.485 312.17 259.298 312.162C261.208 312.143 263.589 312.046 265.129 310.781C265.37 310.583 265.594 310.356 265.725 310.078C266.047 309.386 265.697 308.53 265.105 308.04C264.512 307.554 263.734 307.354 262.98 307.203C263.854 307.381 265.362 304.195 265.545 303.6C266.042 301.987 266.342 300.073 266.268 298.381C266.2 296.779 265.867 295.23 264.87 293.949C264.359 293.292 262.568 291.282 261.565 291.514C262.434 291.314 262.92 290.279 262.707 289.422C262.494 288.566 261.74 287.922 260.91 287.603C260.08 287.284 259.17 287.239 258.28 287.206C253.601 287.033 248.838 287.112 244.264 285.979C240.211 284.976 236.39 284.541 232.176 284.663C229.035 284.755 225.927 285.414 222.996 286.525C222.202 286.828 221.426 287.217 220.697 287.679C210.979 293.836 217.398 305.854 225.394 310.097C231.307 313.235 237.559 312.786 244.012 312.54C248.314 312.375 252.569 312.256 256.868 312.192Z" fill="#FCB32B"/>
<path d="M298.114 71.2707C294.252 75.884 288.839 78.9244 283.478 81.7108C282.161 82.3946 280.826 83.0756 279.378 83.4107C274.94 84.4377 270.459 82.0567 266.758 79.4244C261.645 75.7894 257.011 71.4923 253.007 66.6844C248.978 61.8441 246.728 56.5551 244.101 50.8635C241.457 45.1313 240.878 39.3694 241.435 33.1021C242.009 26.6646 238.371 20.9162 240.015 14.411C241.058 10.2788 243.601 6.53301 247.075 4.01691C248.976 2.63859 251.185 1.6116 253.528 1.36026C258.769 0.795422 263.224 4.32229 268.405 4.56282C273.629 4.80606 278.657 2.92236 283.68 1.79268C288.069 0.803531 292.873 0.260314 297.226 1.73592C302.071 3.37639 304.404 7.0438 307.086 11.2923C309.374 14.9218 312.821 17.6433 315.577 20.8648C319.269 25.1808 320.433 30.6725 319.261 36.2966C318.27 41.0477 316.401 45.9286 313.957 50.1419C311.83 53.812 309.514 57.674 307.009 61.1522C305.103 63.7981 303.011 65.7493 300.782 68.0573C299.818 69.0519 299.015 70.1924 298.114 71.2707Z" fill="#0B2D4E"/>
<path d="M302.863 49.1934C302.778 43.9125 301.992 38.9128 300.577 34.767C294.473 16.8786 271.805 12.668 258.313 25.6836C243.264 40.1992 249.426 74.4896 265.548 86.3972C269.857 89.5808 275.683 90.6565 280.866 89.2268C296.546 84.9 303.128 65.6873 302.863 49.1934Z" fill="#9F6349"/>
<path d="M306.562 34.7055C299.696 16.8252 274.117 12.6443 258.869 25.6762C255.302 28.7247 251.503 33.5191 249.848 37.9081C248.076 42.6106 248.54 47.8076 249.029 52.802C249.408 48.6779 251.361 44.9726 254.098 41.8944C255.447 40.3782 256.963 39.008 258.547 37.7378C259.123 37.2757 263.444 33.3893 263.031 32.8542C264.569 34.8379 266.095 36.8081 268.466 37.8054C271.429 39.0513 274.51 39.7674 277.643 40.4431C283.179 41.6349 287.513 43.1754 291.53 47.2752C295.245 51.0642 297.932 55.7749 299.718 60.7287C300.284 62.2935 301.245 64.7042 303.315 64.0015C303.804 63.834 308.062 60.6936 308.106 60.4747C308.854 56.6883 309.187 52.8398 309.124 49.1319C309.037 43.8511 308.155 38.8513 306.562 34.7055Z" fill="#6D4D42"/>
<path d="M294.321 45.6237C295.7 47.8533 296.544 50.3613 297.377 52.845C298.694 56.7691 299.734 60.9879 301.422 64.7553C307.177 61.3203 310.967 53.2152 313.587 47.356C315.911 42.1563 316.563 38.024 314.594 32.5729C313.322 29.0487 310.883 25.9164 307.985 23.2301C299.625 15.4764 287.086 11.5279 274.99 12.3143C270.743 12.59 267.278 14.071 263.29 15.2169C259.628 16.2682 256.826 16.9547 254.136 19.9383C251.74 22.5923 250.205 25.8948 249.004 29.246C247.04 34.7106 245.929 40.3428 246.36 46.1507C246.636 49.864 246.663 53.5368 250.378 55.5584C250.312 53.3477 250.246 51.137 250.184 48.9289C250.154 47.8722 250.121 46.8047 250.304 45.7615C250.465 44.8318 250.79 43.9373 251.115 43.0481C252.106 40.3401 253.016 38.17 254.895 35.9376C257.353 33.0188 260.595 30.3757 261.283 26.638C267.103 32.2324 273.966 35.7376 281.611 38.3429C286.458 39.9942 291.385 40.9455 294.264 45.5291C294.286 45.5615 294.305 45.594 294.321 45.6237Z" fill="#0B2D4E"/>
<path d="M302.968 49.6641C309.891 45.8291 312.128 55.3449 310.978 60.1015C310.503 62.0662 309.741 63.9851 308.528 65.6093C306.895 67.7984 302.195 71.4469 299.442 69.0984C298.194 68.0335 298.046 66.2012 297.992 64.5715C297.844 60.1988 298.273 52.264 302.968 49.6641Z" fill="#9F6349"/>
<path d="M252.942 49.6641C246.019 45.8291 243.782 55.3449 244.932 60.1015C245.407 62.0662 246.169 63.9851 247.382 65.6093C249.015 67.7984 253.715 71.4469 256.468 69.0984C257.716 68.0335 257.864 66.2012 257.918 64.5715C258.063 60.1988 257.634 52.264 252.942 49.6641Z" fill="#9F6349"/>
<path d="M292.527 304.882C297.929 303.271 314.021 297.917 319.363 296.396C346.169 288.753 372.426 279.651 395.769 264.13C401.146 260.541 406.56 255.246 408.854 249.147C414.87 233.112 397.653 220.694 382.96 226.734C358.424 236.823 339.388 250.963 316.25 263.889C312.388 266.046 305.53 270.424 301.625 272.675C298.273 274.608 286.877 280.243 283.493 282.148" fill="#0B2D4E"/>
<path fill-rule="evenodd" clip-rule="evenodd" d="M268.821 225.909V213.794L276.68 217.328V211.483L263.362 205.495V229.297L276.68 235.29V229.445L268.821 225.909Z" fill="#FF3838"/>
<path fill-rule="evenodd" clip-rule="evenodd" d="M284.538 225.909V213.795L276.679 217.329V211.484L289.997 205.495V229.297L276.679 235.291V229.445L284.538 225.909Z" fill="#FF3838"/>
</svg>
