<svg width="87" height="77" viewBox="0 0 87 77" fill="none" xmlns="http://www.w3.org/2000/svg">
<path fill-rule="evenodd" clip-rule="evenodd" d="M66.1403 40.1377C57.1629 40.1377 50.0576 47.3983 50.0576 56.1976C50.0576 65.093 57.2109 72.3537 66.1403 72.3537C75.0699 72.3537 82.2232 65.093 82.2232 56.1976C82.2232 47.3983 75.0699 40.1377 66.1403 40.1377ZM66.1403 41.6764C69.837 41.6764 73.2936 43.0708 75.9341 45.3788C55.2425 66.0067 55.2425 66.0067 55.2425 66.0067C52.9381 63.4582 51.4018 60.0443 51.4018 56.1976C51.4498 48.1677 58.123 41.6764 66.1403 41.6764ZM66.1403 70.815C62.4438 70.815 58.9872 69.4206 56.2987 66.9683C76.9903 46.3405 76.9903 46.3405 76.9903 46.3405C79.2946 48.9851 80.8309 52.447 80.8309 56.1496C80.8309 64.1795 74.1577 70.815 66.1403 70.815Z" fill="#1671EE" stroke="#1671EE" stroke-width="2.13396" stroke-miterlimit="10"/>
<path fill-rule="evenodd" clip-rule="evenodd" d="M53.2917 6.53133L50.2258 10.1341C42.7355 5.64632 33.6845 3.26688 23.3906 3.3278L23.3889 3.32781L7.37218 3.39066C6.63304 3.39356 5.99203 3.90224 5.82128 4.62139C5.65053 5.34053 5.99445 6.08308 6.65339 6.41793L14.6902 10.502L14.6921 10.503C22.82 14.6628 30.4551 19.4825 37.5482 24.9612L6.59506 61.1573C6.02611 61.8225 6.09727 62.8216 6.75479 63.3995L15.909 71.4462C16.2307 71.7288 16.6522 71.8708 17.0793 71.8405C17.5064 71.8101 17.9035 71.6097 18.1819 71.2844L49.18 35.0449C50.5264 36.3565 51.8506 37.695 53.1511 39.0608C54.0975 38.4833 55.0905 37.9754 56.1231 37.5446C54.1893 35.4878 52.2039 33.492 50.1715 31.5555C49.8534 31.2523 49.4247 31.0934 48.9859 31.1158C48.5471 31.1382 48.1368 31.3399 47.8513 31.6739L16.8039 67.9709L10.0539 62.0378L41.0677 25.7706C41.3505 25.44 41.4864 25.0086 41.4444 24.5756C41.4022 24.1426 41.1857 23.7454 40.8446 23.4754C33.2133 17.436 24.9598 12.162 16.1485 7.65254L14.0096 6.56559L23.4047 6.52871L23.4079 6.5287C33.7146 6.46744 42.5563 8.97717 49.6857 13.5663C50.3599 14.0002 51.2512 13.8683 51.7708 13.2577L54.6719 9.84854L61.3668 15.7734L58.4255 19.2299C57.9221 19.8214 57.9161 20.6891 58.4114 21.2875C61.8065 25.39 64.502 30.2926 66.4047 35.9495C67.6193 36.0525 68.8056 36.2533 69.9554 36.544C68.0728 30.3537 65.3053 24.9097 61.7201 20.2974L64.8218 16.6524C65.3869 15.9884 65.3165 14.9944 64.6637 14.4167L55.5712 6.37001C55.2493 6.08514 54.8263 5.94173 54.3976 5.97207C53.9688 6.0024 53.5703 6.20396 53.2917 6.53133Z" fill="#1671EE"/>
</svg>
