<svg width="84" height="82" viewBox="0 0 84 82" fill="none" xmlns="http://www.w3.org/2000/svg">
<g clip-path="url(#clip0)">
<path d="M45.3324 17.3794H77.5994C79.888 17.3794 81.7432 19.2255 81.7432 21.5029V75.3505C81.7432 77.6279 79.888 79.4741 77.5994 79.4741H6.13022C3.84154 79.4913 1.98633 77.6452 1.98633 75.3677V21.5029C1.98633 19.2255 3.84154 17.3794 6.13022 17.3794H38.3971" stroke="#1671EE" stroke-width="3.20094" stroke-miterlimit="10"/>
<path d="M45.333 27.731H81.7438" stroke="#1671EE" stroke-width="3.20094" stroke-miterlimit="10"/>
<path d="M1.98633 27.731H38.3971" stroke="#1671EE" stroke-width="3.20094" stroke-miterlimit="10"/>
<path d="M41.8646 12.2026C44.7374 12.2026 47.0662 9.88521 47.0662 7.02659C47.0662 4.16796 44.7374 1.85059 41.8646 1.85059C38.9919 1.85059 36.6631 4.16796 36.6631 7.02659C36.6631 9.88521 38.9919 12.2026 41.8646 12.2026Z" stroke="#1671EE" stroke-width="3.20094" stroke-miterlimit="10"/>
<path d="M41.8649 12.2036V31.1822C41.8649 42.5349 57.4695 38.8427 57.4695 53.6116C57.4695 61.2375 51.2624 67.4143 43.5988 67.4143C35.9352 67.4143 29.728 61.2375 29.728 53.6116C29.728 50.2816 31.0978 47.2106 33.1957 44.9849C33.1957 44.9849 33.7333 53.8876 41.8649 55.3369" stroke="#1671EE" stroke-width="3.20094" stroke-miterlimit="10"/>
</g>
<defs>
<clipPath id="clip0">
<rect width="83.2246" height="81.0906" fill="white" transform="translate(0.25293 0.125977)"/>
</clipPath>
</defs>
</svg>
