<svg width="94" height="80" viewBox="0 0 94 80" fill="none" xmlns="http://www.w3.org/2000/svg">
<g clip-path="url(#clip0)">
<path d="M91.9701 37.6898C91.7317 37.556 91.4488 37.5411 91.2106 37.6452L73.8244 45.4078L73.5937 45.3036L56.4384 37.6452C56.3267 37.5931 56.2151 37.5708 56.0959 37.5708C55.947 37.5708 55.8056 37.608 55.6789 37.6824C55.463 37.8087 55.3364 38.017 55.3364 38.2475V69.6992C55.3364 69.9521 55.5002 70.19 55.7534 70.3015L73.4819 78.2648C73.6904 78.3615 73.9659 78.3615 74.167 78.2648L91.8956 70.3015C92.1487 70.19 92.3126 69.9521 92.3126 69.6992V38.2475C92.3126 38.0244 92.1859 37.8162 91.9701 37.6898ZM90.7861 69.2903L90.6744 69.3423L73.8244 76.9116L73.4224 76.7332L56.8628 69.2903V39.3405L73.4819 46.761C73.6979 46.8577 73.9511 46.8577 74.167 46.761L90.7861 39.3405V69.2903Z" fill="#1671EE"/>
<path d="M73.8248 79.0821C73.6015 79.0821 73.3706 79.0375 73.1696 78.9409L55.4485 70.9776C54.9273 70.7471 54.5923 70.2414 54.5923 69.6987V38.2468C54.5923 37.7561 54.8603 37.3026 55.3071 37.0423C55.7389 36.7895 56.2825 36.7598 56.7515 36.9679L73.8323 44.5968L90.9131 36.9679C91.3673 36.7598 91.9108 36.7895 92.3576 37.0498C92.7968 37.31 93.065 37.7636 93.065 38.2543V69.7061C93.065 70.2489 92.7298 70.7545 92.2086 70.985L74.4726 78.9409C74.2791 79.0375 74.0557 79.0821 73.8248 79.0821ZM57.6078 68.8065L73.8248 76.0931L90.0419 68.8065V40.4924L74.4726 47.4444C74.0557 47.6304 73.5866 47.6304 73.1771 47.4444L57.6078 40.4924V68.8065ZM91.5311 38.3138V69.6466L91.5683 69.6318V38.3138C91.5608 38.3138 91.546 38.3138 91.5311 38.3138ZM56.0814 69.6318L56.1186 69.6466V38.2989L55.6793 37.6892L56.0591 38.3287C56.0665 38.3212 56.0814 38.2914 56.0814 38.2468V69.6318ZM91.5981 38.3287L91.9778 37.6892L91.5981 38.3287Z" fill="#1671EE"/>
<path d="M46.3951 61.8394H8.42129C7.60226 61.8394 6.93213 61.1702 6.93213 60.3524C6.93213 59.5344 7.60226 58.8652 8.42129 58.8652H46.3951C47.2141 58.8652 47.8842 59.5344 47.8842 60.3524C47.8842 61.1702 47.2141 61.8394 46.3951 61.8394Z" fill="#1671EE"/>
<path d="M8.42091 61.8399C3.90127 61.8399 0.230469 58.1742 0.230469 53.6609V1.61306C0.230469 0.795164 0.900595 0.125977 1.71963 0.125977H22.568C25.0326 0.125977 27.0355 2.1261 27.0355 4.58722V11.2791H73.1997C74.0188 11.2791 74.6889 11.9482 74.6889 12.7662C74.6889 13.584 74.0188 14.2532 73.1997 14.2532H25.5463C24.7273 14.2532 24.0572 13.584 24.0572 12.7662V4.58722C24.0572 3.76932 23.3871 3.10014 22.568 3.10014H3.20881V53.6609C3.20881 56.531 5.5468 58.8658 8.42091 58.8658C11.295 58.8658 13.633 56.531 13.633 53.6609V17.9709C13.633 17.1531 14.3031 16.4839 15.1221 16.4839H58.3081C59.1271 16.4839 59.7973 17.1531 59.7973 17.9709C59.7973 18.7889 59.1271 19.4581 58.3081 19.4581H16.6113V53.6609C16.6113 58.1742 12.9406 61.8399 8.42091 61.8399Z" fill="#1671EE"/>
<path d="M8.42129 61.8399C7.60226 61.8399 6.93213 61.1707 6.93213 60.3527V17.9709C6.93213 17.153 7.60226 16.4839 8.42129 16.4839C9.24034 16.4839 9.91047 17.153 9.91047 17.9709V60.3527C9.91047 61.1707 9.24034 61.8399 8.42129 61.8399Z" fill="#1671EE"/>
<path d="M86.6024 41.3255C85.7834 41.3255 85.1133 40.6563 85.1133 39.8383V31.9568C85.1133 25.9192 80.05 21.0045 73.8254 21.0045C67.6006 21.0045 62.5375 25.9192 62.5375 31.9568V39.8458C62.5375 40.6637 61.8673 41.3328 61.0483 41.3328C60.2293 41.3328 59.5591 40.6637 59.5591 39.8458V31.9568C59.5591 24.2761 65.9551 18.0303 73.8254 18.0303C81.6956 18.0303 88.0916 24.2761 88.0916 31.9568V39.8458C88.0916 40.6637 87.4215 41.3255 86.6024 41.3255Z" fill="#1671EE"/>
<path d="M75.789 49.6157H71.4629C71.0162 49.6157 70.6514 50.0605 70.6514 50.6053V51.831C70.6514 52.3758 71.0162 52.8206 71.4629 52.8206H75.789C76.2357 52.8206 76.6005 52.3758 76.6005 51.831V50.6053C76.6005 50.0605 76.2357 49.6157 75.789 49.6157Z" fill="#1671EE"/>
<path d="M76.5995 57.4459V55.4532C76.5995 55.0517 76.2719 54.7319 75.8773 54.7319H71.3725C70.9705 54.7319 70.6503 55.0592 70.6503 55.4532V57.4459C70.6503 57.8474 70.3227 58.1671 69.928 58.1671H66.8678C66.3093 58.1671 65.9594 58.7694 66.2423 59.2527L73.0032 70.9487C73.2787 71.4319 73.9786 71.4319 74.2616 70.9487L81.0224 59.2527C81.2979 58.7694 80.9554 58.1671 80.3969 58.1671H77.3367C76.9271 58.1671 76.5995 57.8474 76.5995 57.4459Z" fill="#1671EE"/>
</g>
<defs>
<clipPath id="clip0">
<rect width="92.8274" height="78.9566" fill="white" transform="translate(0.230469 0.125977)"/>
</clipPath>
</defs>
</svg>
