<svg width="130" height="77" viewBox="0 0 130 77" fill="none" xmlns="http://www.w3.org/2000/svg">
<g clip-path="url(#clip0)">
<path d="M91.1135 73.2603L7.38694 73.3165C6.37713 73.3165 5.12685 73.3245 3.99681 72.7634C3.63617 72.5872 3.30758 70.7679 3.20339 70.1668C3.17935 70.0466 3.16332 69.9423 3.14729 69.8542H86.7858L78.9236 66.6485L78.8756 66.6245H15.7379C13.7825 66.6245 13.7825 66.2477 13.7825 65.9432V5.23399C13.7825 4.17608 14.7762 3.54296 15.7379 3.54296H104.77C105.732 3.54296 106.726 4.17608 106.726 5.23399V24.3243L109.659 23.1382V5.24201C109.659 2.69342 107.463 0.617676 104.77 0.617676H15.7379C13.0371 0.617676 10.8491 2.69342 10.8491 5.24201V65.9512C10.8491 66.1676 10.8732 66.4001 10.9293 66.6325H1.7047C0.767016 66.6325 0.117864 67.3938 0.117864 68.4918L0.109842 69.0768C0.109842 69.1169 -0.10655 73.3005 0.959368 74.3102C1.93713 75.2319 3.4438 75.7608 3.48388 75.7769C5.53557 76.2577 6.1447 76.2577 7.4751 76.2577L98.3186 76.2017L91.1777 73.2925L91.1135 73.2603Z" fill="#1671EE"/>
<path d="M100.988 22.1922V8.11084H19.3047V61.6632H79.9017V58.7299H22.1899V11.0441H98.1105V20.9981L100.988 22.1922Z" fill="#1671EE"/>
<path d="M127.538 21.2561C127.137 20.9836 126.639 20.9356 126.191 21.1199L106.083 29.2706L85.9747 21.1199C85.5339 20.9356 85.0289 20.9917 84.6283 21.2561C84.2275 21.5206 83.9951 21.9694 83.9951 22.4503V64.1253C83.9951 64.7103 84.3478 65.2393 84.8928 65.4636L105.546 73.8868C105.722 73.9589 105.907 73.9911 106.091 73.9911C106.275 73.9911 106.46 73.9589 106.636 73.8868L127.289 65.4636C127.833 65.2393 128.187 64.7183 128.187 64.1253V22.4503C128.171 21.9775 127.938 21.5287 127.538 21.2561ZM125.293 24.5981V63.1635L106.083 70.9937L86.8723 63.1635V24.5981L105.538 32.1638C105.891 32.308 106.275 32.308 106.62 32.1638L125.293 24.5981Z" fill="#1671EE"/>
<path d="M98.0531 52.0721C97.2997 51.5111 96.2338 51.6715 95.6728 52.4247C95.4003 52.7935 95.2881 53.2423 95.3602 53.691C95.4243 54.1398 95.6647 54.5406 96.0334 54.8051L103.944 60.6636C104.24 60.8799 104.593 61.0002 104.953 61.0002C105.074 61.0002 105.194 60.9922 105.306 60.9682C105.779 60.8639 106.196 60.5674 106.436 60.1427L117.472 40.6436C117.936 39.8262 117.648 38.7842 116.831 38.3275C116.014 37.8626 114.971 38.1591 114.515 38.9686L104.433 56.7927L98.0531 52.0721Z" fill="#1671EE"/>
</g>
<defs>
<clipPath id="clip0">
<rect width="129.105" height="75.7557" fill="white" transform="translate(0.0917969 0.617676)"/>
</clipPath>
</defs>
</svg>
