<svg width="96" height="90" viewBox="0 0 96 90" fill="none" xmlns="http://www.w3.org/2000/svg">
<path fill-rule="evenodd" clip-rule="evenodd" d="M50.4379 29.7388C57.0811 32.6802 65.1948 33.1069 65.1948 33.1069V48.7504C65.1948 59.9006 50.4449 64.718 50.4449 64.718C50.4449 64.718 35.6948 59.4094 35.6948 48.7504V33.1069C35.6948 33.1069 43.7948 32.6802 50.4379 29.7388ZM48.6008 52.8275L59.854 41.591L58.2435 39.9787L48.6008 49.6071L45.104 46.1154L43.4935 47.7278L48.6008 52.8275Z" fill="#1671EE"/>
<path fill-rule="evenodd" clip-rule="evenodd" d="M18.4291 27.2848C17.5255 28.7555 16.7219 30.2929 16.028 31.8873H15.9665V32.0101C14.0613 36.4899 12.9551 41.4606 12.9551 46.6769C12.9551 47.5848 12.9879 48.4852 13.0524 49.3771H15.5172C15.4485 48.4866 15.4134 47.586 15.4134 46.6769C15.4134 42.3198 16.2124 38.2082 17.6874 34.342H24.5092C23.5259 38.2082 22.9728 42.3198 22.9728 46.6155C22.9728 47.5454 22.9972 48.4661 23.0453 49.3771H25.5079C25.4573 48.4861 25.4311 47.5858 25.4311 46.6769C25.4311 42.3198 25.9842 38.2082 27.029 34.4034H33.8508V31.8873H27.7665C28.3094 30.282 28.9356 28.7441 29.6375 27.2848H26.9771C26.3062 28.7722 25.7069 30.3297 25.1852 31.9487H18.7321C19.4886 30.3189 20.3683 28.7605 21.3587 27.2848H18.4291ZM50.1987 83.8654C38.6184 83.8654 28.2508 78.5529 21.4131 70.2419H24.7031C27.8594 73.6323 31.6928 76.3959 36.0019 78.3424C33.4039 76.1751 31.105 73.4279 29.1901 70.2419H32.0229C35.3121 75.2155 39.6269 78.839 44.4831 80.4289C41.4717 76.44 39.3206 69.1987 38.1529 61.0368H35.6946V58.5821H37.7064C38.6188 59.649 39.6326 60.6163 40.6787 61.4841C42.551 73.6822 46.4941 81.3501 50.1372 81.4107C53.7632 81.4107 57.6189 74.0058 59.5363 62.2493C60.8998 61.2041 62.2344 59.9844 63.391 58.5821H73.4299C74.3517 54.8387 74.9049 50.8498 74.9049 46.6769C74.9049 42.3812 74.3518 38.2082 73.307 34.4034H67.0382V31.8873H72.5695C69.3736 22.4367 63.2278 15.3182 55.8529 12.8635C58.6929 16.6253 60.7678 23.1162 61.9742 30.5346C61.1636 30.4042 60.2864 30.2465 59.3656 30.0565C57.4195 18.9076 53.6984 11.943 50.1987 11.943C48.1946 11.943 46.0997 14.2271 44.2988 18.273V13.1129C44.3599 13.0285 44.4213 12.9453 44.4831 12.8635C44.4216 12.8838 44.3602 12.9044 44.2988 12.9253V9.95455C46.2205 9.64776 48.1911 9.48828 50.1987 9.48828C70.7257 9.48828 87.4423 26.1801 87.4423 46.6769C87.4423 52.4796 86.1025 57.9774 83.7158 62.8778H80.893C81.2096 62.2747 81.5083 61.6608 81.7882 61.0368H75.2736C75.082 61.659 74.8778 62.2728 74.6616 62.8778H72.0456C72.2738 62.2744 72.4895 61.6605 72.6924 61.0368H62.2445C61.0768 69.1987 58.9258 76.44 55.8529 80.4289C58.5463 79.5471 61.0732 78.0397 63.3509 76.0234V81.4688C59.259 83.0174 54.8257 83.8654 50.1987 83.8654ZM38.9907 27.2848C38.773 28.3688 38.5764 29.4807 38.4011 30.6141C39.1704 30.4966 40.0096 30.3537 40.8962 30.1806C41.0741 29.1812 41.2664 28.2154 41.4712 27.2848H38.9907ZM75.8268 34.342H82.6486C84.1236 38.1468 84.9227 42.3198 84.9227 46.6155C84.9227 50.7885 84.1852 54.7774 82.833 58.5208H75.9497C76.8716 54.7774 77.3633 50.7885 77.3633 46.6155C77.3633 42.3198 76.8101 38.2082 75.8268 34.342ZM81.6654 31.8873H75.1507C72.9382 24.8914 69.1278 19.0002 64.3955 15.0113C71.9549 18.3866 78.1008 24.4005 81.6654 31.8873Z" fill="#1671EE"/>
<path fill-rule="evenodd" clip-rule="evenodd" d="M12.0239 24.9747H5.10986V3.49609H41.9848V24.9747H21.0493L12.0239 30.5293V24.9747ZM14.3029 26.451V22.6961H7.38894V5.77473H39.7057V22.6961H20.4041L14.3029 26.451Z" fill="#1671EE"/>
<path d="M30.8296 16.8802C30.8296 18.0352 31.7874 18.9714 32.969 18.9714C34.1505 18.9714 35.1083 18.0352 35.1083 16.8802C35.1083 15.7253 34.1505 14.7891 32.969 14.7891C31.7874 14.7891 30.8296 15.7253 30.8296 16.8802Z" fill="#1671EE"/>
<path d="M22.2715 16.8802C22.2715 18.0352 23.2293 18.9714 24.4109 18.9714C25.5924 18.9714 26.5502 18.0352 26.5502 16.8802C26.5502 15.7253 25.5924 14.7891 24.4109 14.7891C23.2293 14.7891 22.2715 15.7253 22.2715 16.8802Z" fill="#1671EE"/>
<path d="M13.7139 16.8802C13.7139 18.0352 14.6717 18.9714 15.8533 18.9714C17.0347 18.9714 17.9926 18.0352 17.9926 16.8802C17.9926 15.7253 17.0347 14.7891 15.8533 14.7891C14.6717 14.7891 13.7139 15.7253 13.7139 16.8802Z" fill="#1671EE"/>
<path fill-rule="evenodd" clip-rule="evenodd" d="M87.1739 82.9825H92.7051V65.186H65.6636V82.9825H80.3412L87.1739 87.2782V82.9825ZM84.8949 83.1537V80.7039H90.426V67.4647H67.9426V80.7039H80.9982L84.8949 83.1537Z" fill="#1671EE"/>
<path d="M73.5363 76.123C73.5363 77.0669 72.77 77.832 71.8247 77.832C70.8795 77.832 70.1133 77.0669 70.1133 76.123C70.1133 75.1792 70.8795 74.4141 71.8247 74.4141C72.77 74.4141 73.5363 75.1792 73.5363 76.123Z" fill="#1671EE"/>
<path d="M80.3829 76.123C80.3829 77.0669 79.6166 77.832 78.6714 77.832C77.7262 77.832 76.96 77.0669 76.96 76.123C76.96 75.1792 77.7262 74.4141 78.6714 74.4141C79.6166 74.4141 80.3829 75.1792 80.3829 76.123Z" fill="#1671EE"/>
<path d="M87.2286 76.123C87.2286 77.0669 86.4623 77.832 85.5171 77.832C84.5719 77.832 83.8057 77.0669 83.8057 76.123C83.8057 75.1792 84.5719 74.4141 85.5171 74.4141C86.4623 74.4141 87.2286 75.1792 87.2286 76.123Z" fill="#1671EE"/>
<path fill-rule="evenodd" clip-rule="evenodd" d="M12.7234 68.5607H7.56934V51.9775H32.7671V68.5607H19.0902L12.7234 72.5635V68.5607ZM15.0025 68.4389V66.282H9.84841V54.2562H30.488V66.282H18.4333L15.0025 68.4389Z" fill="#1671EE"/>
<path d="M25.4307 62.1682C25.4307 63.0477 26.1447 63.7606 27.0255 63.7606C27.9063 63.7606 28.6203 63.0477 28.6203 62.1682C28.6203 61.2886 27.9063 60.5757 27.0255 60.5757C26.1447 60.5757 25.4307 61.2886 25.4307 62.1682Z" fill="#1671EE"/>
<path d="M19.0513 62.1682C19.0513 63.0477 19.7653 63.7606 20.6461 63.7606C21.5269 63.7606 22.2409 63.0477 22.2409 62.1682C22.2409 61.2886 21.5269 60.5757 20.6461 60.5757C19.7653 60.5757 19.0513 61.2886 19.0513 62.1682Z" fill="#1671EE"/>
<path d="M12.6724 62.1682C12.6724 63.0477 13.3864 63.7606 14.2672 63.7606C15.148 63.7606 15.862 63.0477 15.862 62.1682C15.862 61.2886 15.148 60.5757 14.2672 60.5757C13.3864 60.5757 12.6724 61.2886 12.6724 62.1682Z" fill="#1671EE"/>
</svg>
