<svg width="82" height="83" viewBox="0 0 82 83" fill="none" xmlns="http://www.w3.org/2000/svg">
<g clip-path="url(#clip0)">
<path d="M32.0395 60.8797L32.0393 60.8798L32.0421 60.8843L40.191 74.204C40.1911 74.2044 40.1913 74.2046 40.1914 74.2049C40.4154 74.5763 40.8194 74.7969 41.2461 74.7969C41.6762 74.7969 42.0785 74.5669 42.3006 74.1986C42.3008 74.1983 42.301 74.198 42.3013 74.1976L50.4565 60.8779L50.4566 60.8775C50.5716 60.6892 50.6378 60.4675 50.6378 60.2364V18.173C50.6378 17.4905 50.0849 16.9404 49.4023 16.9404H33.0963C32.4138 16.9404 31.8608 17.4905 31.8608 18.173V60.2428C31.8608 60.4692 31.9278 60.689 32.0395 60.8797ZM48.167 59.8844L41.2461 71.1925L34.3316 59.8908V19.4055H48.167V59.8844Z" fill="#1671EE" stroke="#1671EE" stroke-width="0.533491"/>
<path d="M50.6378 11.3586V11.3554V7.07367C50.6378 3.77069 47.9409 1.08301 44.63 1.08301H37.8686C34.5577 1.08301 31.8608 3.77069 31.8608 7.07367V11.3554C31.8608 12.0378 32.4138 12.5878 33.0963 12.5878H49.3959C50.0791 12.5878 50.6296 12.0379 50.6378 11.3586ZM48.167 7.07367V10.1228H34.3252V7.07367C34.3252 5.12919 35.9099 3.54808 37.8622 3.54808H44.63C46.5822 3.54808 48.167 5.12919 48.167 7.07367Z" fill="#1671EE" stroke="#1671EE" stroke-width="0.533491"/>
<path d="M50.6378 18.1768V18.1736V11.3551C50.6378 10.6726 50.0849 10.1226 49.4023 10.1226H33.0963C32.4138 10.1226 31.8608 10.6726 31.8608 11.3551V18.1736C31.8608 18.856 32.4138 19.4061 33.0963 19.4061H49.3959C50.0791 19.4061 50.6296 18.8561 50.6378 18.1768ZM48.167 12.5876V16.9411H34.3316V12.5876H48.167Z" fill="#1671EE" stroke="#1671EE" stroke-width="0.533491"/>
<path d="M33.4732 61.1665L33.6355 61.3769L33.8466 61.2154L41.995 54.9775C41.9953 54.9773 41.9956 54.9769 41.9959 54.9767C42.301 54.746 42.482 54.3843 42.482 53.9983V18.174V17.9072H42.2153H40.2779H40.0111V18.174V53.3901L32.3406 59.2593L32.1279 59.422L32.2914 59.6341L33.4732 61.1665Z" fill="#1671EE" stroke="#1671EE" stroke-width="0.533491"/>
<path d="M41.9953 53.0205L41.7834 52.8584L41.6208 53.0699L40.4414 54.6024L40.2788 54.8138L40.4906 54.9758L48.6423 61.2113L48.8542 61.3733L49.017 61.1619L50.1962 59.6294L50.3589 59.418L50.147 59.2559L41.9953 53.0205Z" fill="#1671EE" stroke="#1671EE" stroke-width="0.533491"/>
<path d="M46.4088 64.5822V64.3154H46.142H36.339H36.0723V64.5822V66.5137V66.7805H36.339H46.142H46.4088V66.5137V64.5822Z" fill="#1671EE" stroke="#1671EE" stroke-width="0.533491"/>
<path d="M21.3246 69.1545L15.5513 68.4848C15.6352 67.7573 15.7579 67.0233 15.9129 66.3086L21.5958 67.5255C21.4795 68.06 21.3892 68.6072 21.3246 69.1545ZM23.3136 62.8768L18.2055 60.1147C18.5542 59.4708 18.9352 58.8399 19.3484 58.2282L24.179 61.4475C23.869 61.9175 23.5784 62.394 23.3136 62.8768ZM27.4983 57.7646L23.7592 53.3284C24.321 52.8584 24.9087 52.4077 25.5093 51.9956L28.8222 56.7537C28.3637 57.0692 27.918 57.4104 27.4983 57.7646Z" fill="#1671EE"/>
<path d="M61.1681 69.1545C61.1036 68.6072 61.0131 68.0599 60.8969 67.5191L66.5798 66.3022C66.7348 67.0169 66.8575 67.7509 66.9415 68.4784L61.1681 69.1545ZM59.1727 62.8768C58.9078 62.394 58.6173 61.9175 58.3138 61.4539L63.1442 58.2346C63.551 58.8463 63.9386 59.4773 64.2872 60.1211L59.1727 62.8768ZM54.988 57.7646C54.5682 57.4104 54.1227 57.0692 53.6641 56.7537L56.9769 51.9956C57.5775 52.4141 58.1716 52.8584 58.7271 53.3284L54.988 57.7646Z" fill="#1671EE"/>
<path d="M2.60303 75.5176L11.1416 80.9922L19.6861 75.5176L28.2246 80.9922L36.7691 75.5176L45.3076 80.9922L53.8521 75.5176L62.3907 80.9922L70.941 75.5176L79.4855 80.9922" stroke="#1671EE" stroke-width="2.66745" stroke-miterlimit="10" stroke-linecap="round" stroke-linejoin="round"/>
</g>
<defs>
<clipPath id="clip0">
<rect width="81.0906" height="82.1576" fill="white" transform="translate(0.643555 0.282715)"/>
</clipPath>
</defs>
</svg>
