<svg width="224" height="224" viewBox="0 0 224 224" fill="none" xmlns="http://www.w3.org/2000/svg">
<g clip-path="url(#clip0_484_596)">
<g clip-path="url(#clip1_484_596)">
<path d="M114.123 200.077C166.216 200.077 208.445 157.787 208.445 105.619C208.445 53.4509 166.216 11.1604 114.123 11.1604C62.0306 11.1604 19.8013 53.4509 19.8013 105.619C19.8013 157.787 62.0306 200.077 114.123 200.077Z" fill="#EEC5B8"/>
<path d="M216.99 170.078C216.99 154.212 170.219 141.343 112.475 141.343C54.7312 141.343 7.95996 154.212 7.95996 170.078V178.829C7.95996 194.694 54.7312 207.564 112.475 207.564C170.219 207.564 216.99 194.672 216.99 178.829V170.078Z" fill="#C18063"/>
<path opacity="0.67" d="M141.748 203.698C147.598 199.735 140.872 198.687 134.391 198.025C128.362 198.382 110.634 198.709 104.249 198.769C115.712 201.995 132.943 207.757 141.748 203.698Z" stroke="#FFDBB1" stroke-width="0.83" stroke-linecap="round" stroke-linejoin="round"/>
<path opacity="0.67" d="M109.268 207.155C104.969 204.129 89.2826 204.62 81.6656 203.252C80.5371 203.044 78.5549 199.668 83.2988 199.133C84.457 198.999 87.4117 197.966 88.4956 197.728C84.7094 197.46 79.1488 196.754 75.5482 196.382C74.6128 198.241 73.4175 200.672 71.3388 199.564C69.854 198.442 68.0796 196.382 66.5354 195.334C53.7142 193.609 42.6302 192.137 33.4392 189.148C34.679 198.204 29.0591 190.003 22.1993 183.832C18.1829 181.922 16.2601 181.23 13.8102 179.059C12.4001 178.654 10.932 178.488 9.46713 178.569C9.01188 178.536 8.56002 178.466 8.11597 178.36" stroke="#FFDBB1" stroke-width="0.83" stroke-linecap="round" stroke-linejoin="round"/>
<path opacity="0.67" d="M192.484 197.2C197.072 190.992 182.996 195.713 180.019 195.215C179.944 195.215 179.93 195.059 180.019 195.007C187.673 188.702 203.248 187.059 213.464 185.884" stroke="#FFDBB1" stroke-width="0.83" stroke-linecap="round" stroke-linejoin="round"/>
<path opacity="0.67" d="M154.049 196.776C159.246 198.739 164.28 201.282 169.64 202.635" stroke="#FFDBB1" stroke-width="0.83" stroke-linecap="round" stroke-linejoin="round"/>
<path opacity="0.67" d="M157.687 201.133C154.718 197.601 142.505 200.523 151.748 203.497C152.342 203.579 155.994 203.951 155.853 202.337C154.591 201.512 152.334 200.85 151.251 201.594" stroke="#FFDBB1" stroke-width="0.83" stroke-linecap="round" stroke-linejoin="round"/>
<path opacity="0.67" d="M164.569 197.029C182.996 205.527 182.736 192.01 174.221 197.029" stroke="#FFDBB1" stroke-width="0.83" stroke-linecap="round" stroke-linejoin="round"/>
<path d="M112.245 198.613C169.692 198.613 216.263 185.558 216.263 169.453C216.263 153.349 169.692 140.294 112.245 140.294C54.7976 140.294 8.22729 153.349 8.22729 169.453C8.22729 185.558 54.7976 198.613 112.245 198.613Z" fill="white" stroke="white" stroke-width="1.26" stroke-miterlimit="10"/>
<path d="M179.833 180.724L164.124 164.138C163.673 163.501 163.079 162.979 162.391 162.614C161.703 162.249 160.938 162.05 160.159 162.034C159.757 161.927 159.343 161.872 158.927 161.87L111.859 161.944L64.7906 161.87C64.3721 161.872 63.9555 161.927 63.5508 162.034C62.773 162.05 62.0099 162.25 61.3228 162.615C60.6356 162.98 60.0435 163.502 59.5938 164.138L43.8772 180.724C39.7197 184.895 41.3159 188.494 50.3658 188.494H173.352C182.402 188.494 183.998 184.895 179.833 180.724Z" fill="#E8E5E5"/>
<path d="M168.949 164.495C182.103 164.495 192.766 161.928 192.766 158.762C192.766 155.597 182.103 153.03 168.949 153.03C155.796 153.03 145.133 155.597 145.133 158.762C145.133 161.928 155.796 164.495 168.949 164.495Z" fill="#E8E5E5"/>
<path d="M187.457 157.35C187.441 157.666 187.406 157.982 187.354 158.294C187.448 158.08 187.501 157.851 187.509 157.617C187.499 157.527 187.482 157.437 187.457 157.35Z" fill="#E01919"/>
<path d="M149.64 157.617C149.648 157.851 149.701 158.08 149.796 158.294C149.743 157.982 149.708 157.666 149.692 157.35C149.667 157.437 149.65 157.527 149.64 157.617Z" fill="#E01919"/>
<path d="M168.563 143.521C158.118 143.521 149.64 149.424 149.64 156.703C149.64 156.919 149.677 157.134 149.692 157.35C149.708 157.666 149.743 157.981 149.796 158.294C150.924 161.052 158.89 163.193 168.563 163.193C178.237 163.193 186.21 161.052 187.339 158.294C187.392 157.981 187.426 157.666 187.443 157.35C187.443 157.134 187.495 156.919 187.495 156.703C187.495 149.424 179.016 143.521 168.563 143.521Z" fill="#E01919"/>
<path d="M181.645 147.186C181.409 147.998 180.967 148.733 180.36 149.32C173.025 157.498 161.058 157 149.833 154.919C149.712 155.506 149.648 156.103 149.64 156.703C149.64 156.918 149.677 157.134 149.692 157.35C149.708 157.666 149.743 157.981 149.796 158.294C150.924 161.052 158.89 163.193 168.563 163.193C178.237 163.193 186.21 161.052 187.339 158.294C187.392 157.981 187.426 157.666 187.443 157.35C187.443 157.134 187.495 156.918 187.495 156.703C187.495 152.963 185.23 149.588 181.645 147.186Z" fill="#C01818"/>
<g style="mix-blend-mode:multiply">
<path d="M169.224 147.105C171.844 147.105 173.968 146.233 173.968 145.157C173.968 144.081 171.844 143.209 169.224 143.209C166.604 143.209 164.48 144.081 164.48 145.157C164.48 146.233 166.604 147.105 169.224 147.105Z" fill="#C01818"/>
</g>
<path d="M169.298 146.867C171.935 146.867 174.072 144.726 174.072 142.086C174.072 139.446 171.935 137.306 169.298 137.306C166.662 137.306 164.525 139.446 164.525 142.086C164.525 144.726 166.662 146.867 169.298 146.867Z" fill="#706E6E"/>
<g style="mix-blend-mode:multiply" opacity="0.6">
<path d="M170.048 137.38C173.56 142.138 168.749 145.424 164.963 144.071C165.304 144.823 165.834 145.472 166.502 145.957C167.169 146.442 167.95 146.745 168.769 146.837C169.588 146.929 170.417 146.807 171.175 146.482C171.933 146.158 172.594 145.642 173.093 144.985C173.593 144.328 173.913 143.553 174.024 142.735C174.134 141.917 174.031 141.084 173.724 140.317C173.418 139.551 172.918 138.878 172.273 138.363C171.629 137.848 170.862 137.509 170.048 137.38Z" fill="#706E6E"/>
</g>
<g style="mix-blend-mode:multiply">
<path d="M169.937 139.246C171.007 139.246 171.874 138.867 171.874 138.399C171.874 137.93 171.007 137.551 169.937 137.551C168.867 137.551 167.999 137.93 167.999 138.399C167.999 138.867 168.867 139.246 169.937 139.246Z" fill="#706E6E"/>
</g>
<path d="M170.323 138.971C170.21 138.971 170.098 138.956 169.989 138.926C169.803 138.886 169.626 138.809 169.47 138.7C169.314 138.59 169.182 138.451 169.08 138.29C168.978 138.128 168.91 137.948 168.879 137.76C168.847 137.572 168.854 137.38 168.897 137.194L181.281 86.0729L144.903 39.13C144.809 38.9665 144.748 38.786 144.724 38.5988C144.699 38.4117 144.712 38.2215 144.761 38.0393C144.81 37.857 144.894 37.6862 145.009 37.5366C145.124 37.387 145.267 37.2614 145.43 37.1672C145.593 37.073 145.774 37.0119 145.961 36.9875C146.147 36.963 146.337 36.9756 146.519 37.0247C146.701 37.0737 146.872 37.1581 147.021 37.2731C147.171 37.3882 147.296 37.5316 147.39 37.6951L183.886 84.6678C184.053 84.8403 184.172 85.0522 184.235 85.2836C184.297 85.5149 184.3 85.7584 184.243 85.9911L171.719 137.871C171.645 138.185 171.466 138.465 171.213 138.665C170.959 138.865 170.645 138.973 170.323 138.971Z" fill="#E01919"/>
<path d="M182.186 91.8423C184.823 91.8423 186.96 89.702 186.96 87.0618C186.96 84.4216 184.823 82.2812 182.186 82.2812C179.55 82.2812 177.413 84.4216 177.413 87.0618C177.413 89.702 179.55 91.8423 182.186 91.8423Z" fill="#706E6E"/>
<path d="M144.948 44.1707C147.584 44.1707 149.721 42.0304 149.721 39.3902C149.721 36.7499 147.584 34.6096 144.948 34.6096C142.311 34.6096 140.174 36.7499 140.174 39.3902C140.174 42.0304 142.311 44.1707 144.948 44.1707Z" fill="#706E6E"/>
<path d="M146.588 26.2306C147.429 26.2306 148.11 25.5482 148.11 24.7065C148.11 23.8647 147.429 23.1824 146.588 23.1824C145.748 23.1824 145.066 23.8647 145.066 24.7065C145.066 25.5482 145.748 26.2306 146.588 26.2306Z" fill="#A19C9C"/>
<path d="M149.142 30.3473C150.269 28.7462 149.28 26.1062 146.934 24.4506C144.588 22.795 141.773 22.7508 140.646 24.3519C139.519 25.9529 140.508 28.593 142.854 30.2486C145.2 31.9042 148.016 31.9484 149.142 30.3473Z" fill="#454545"/>
<path d="M142.631 71.1959C146.011 66.2514 147.316 60.1751 146.265 54.2763C145.213 48.3775 141.89 43.1284 137.011 39.66C132.132 36.1916 126.088 34.7816 120.18 35.7338C114.273 36.686 108.976 39.9242 105.43 44.7506L105.363 44.8547L142.557 71.2926C142.584 71.2618 142.608 71.2295 142.631 71.1959Z" fill="#E01919"/>
<path d="M150.798 31.2027L139.847 23.4175C138.958 22.7852 137.725 22.9947 137.094 23.8853L122.611 44.316C121.98 45.2066 122.189 46.4412 123.079 47.0734L134.03 54.8587C134.919 55.4909 136.152 55.2815 136.783 54.3908L151.266 33.9601C151.897 33.0695 151.688 31.835 150.798 31.2027Z" fill="#E01919"/>
<path d="M150.449 30.9517L144.643 26.8254L144.539 26.989L133.871 42.0295C136.317 45.7932 137.917 50.045 138.558 54.4896C139.198 58.9343 138.866 63.4655 137.583 67.7686L142.527 71.2778C142.554 71.2469 142.579 71.2147 142.602 71.1811C145.256 67.4379 146.722 62.9802 146.808 58.3899C146.894 53.7996 145.596 49.2899 143.084 45.4495L150.983 34.2974C151.352 33.7816 151.503 33.1409 151.403 32.5145C151.303 31.8881 150.96 31.3265 150.449 30.9517Z" fill="#C01818"/>
<path d="M134.005 22.2977L126.328 33.5093C126.328 33.5093 111.733 29.2715 102.913 42.773" stroke="#EEC5B8" stroke-linecap="round" stroke-linejoin="round"/>
<path d="M128.6 38.0891C126.338 37.2584 123.904 37.0062 121.52 37.3554C119.136 37.7046 116.877 38.6443 114.947 40.0891" stroke="#EEC5B8" stroke-linecap="round" stroke-linejoin="round"/>
<path d="M169.187 135.707L168.445 138.978C169.05 139.209 169.704 139.28 170.345 139.187C170.753 139.159 171.15 139.045 171.511 138.852L172.105 135.878L169.187 135.707Z" fill="#E01919"/>
<g style="mix-blend-mode:multiply">
<path d="M168.853 137.231L168.459 139.001C169.065 139.231 169.719 139.302 170.36 139.209C170.768 139.182 171.165 139.068 171.526 138.874L172.016 136.458C171.011 136.889 169.943 137.151 168.853 137.231Z" fill="#C01818"/>
</g>
<path d="M157.806 94.8533H67.1663C64.0256 94.8533 61.4795 97.403 61.4795 100.548V162.405C61.4795 165.551 64.0256 168.1 67.1663 168.1H157.806C160.947 168.1 163.493 165.551 163.493 162.405V100.548C163.493 97.403 160.947 94.8533 157.806 94.8533Z" fill="#383434"/>
<path d="M161.407 101.783L161.407 162.985C161.407 163.788 161.088 164.557 160.522 165.125C159.955 165.692 159.187 166.011 158.385 166.011H66.5874C65.786 166.011 65.0175 165.692 64.4508 165.125C63.8842 164.557 63.5658 163.788 63.5658 162.985V100.868C63.5658 99.8249 63.9796 98.8246 64.7161 98.087C65.4526 97.3494 66.4515 96.9351 67.4931 96.9351H156.581C157.862 96.939 159.09 97.4514 159.994 98.3601C160.899 99.2687 161.407 100.499 161.407 101.783Z" fill="#E8E5E5"/>
<path d="M161.407 99.6561C161.407 99.2991 161.336 98.9456 161.2 98.6159C161.063 98.2861 160.863 97.9867 160.61 97.7346C160.358 97.4825 160.058 97.2828 159.729 97.1468C159.399 97.0109 159.046 96.9414 158.689 96.9424H66.7878C65.9313 96.9424 65.1099 97.2831 64.5042 97.8896C63.8986 98.4962 63.5583 99.3188 63.5583 100.177V104.95H161.407V99.6561Z" fill="#E01919"/>
<path d="M168.021 185.617H54.4343C53.6722 185.612 52.9186 185.456 52.2165 185.16C51.5144 184.863 50.8776 184.43 50.3426 183.887C49.8075 183.344 49.3847 182.7 49.0982 181.993C48.8118 181.285 48.6674 180.529 48.6733 179.765V178.606C48.6713 178.361 48.7176 178.117 48.8094 177.89C48.9013 177.663 49.0369 177.456 49.2085 177.282C49.3802 177.107 49.5845 176.968 49.8099 176.872C50.0352 176.777 50.2771 176.727 50.5218 176.725H171.927C172.405 176.776 172.851 176.991 173.189 177.334C173.528 177.676 173.737 178.126 173.783 178.606V179.765C173.788 180.529 173.644 181.285 173.358 181.993C173.071 182.7 172.648 183.344 172.113 183.887C171.578 184.43 170.941 184.863 170.239 185.16C169.537 185.456 168.784 185.612 168.021 185.617Z" fill="#383434"/>
<path d="M172.728 178.041H49.5863C49.4916 178.041 49.399 178.013 49.32 177.961C49.241 177.909 49.179 177.834 49.1418 177.747C49.1046 177.66 49.0939 177.564 49.1109 177.471C49.1278 177.377 49.1718 177.291 49.2374 177.223L62.0957 164.301L162.787 164.591L173.114 177.23C173.18 177.301 173.223 177.39 173.237 177.486C173.252 177.582 173.237 177.679 173.196 177.767C173.154 177.854 173.087 177.927 173.004 177.975C172.921 178.024 172.825 178.047 172.728 178.041Z" fill="#454545"/>
<path d="M69.5049 168.078L68.6289 170.063H135.282V168.078H69.5049Z" fill="#706E6E"/>
<path d="M161.889 168.078H137.271V170.063H163.411L161.889 168.078Z" fill="#706E6E"/>
<path d="M57.5597 172.702L55.6221 174.687H90.2476V172.702H57.5597Z" fill="#706E6E"/>
<path d="M91.5913 172.702V174.687H122.371V172.702H91.5913Z" fill="#706E6E"/>
<path d="M165.765 172.702H124.354V174.687H167.561L165.765 172.702Z" fill="#706E6E"/>
<path d="M61.3088 168.078L59.6384 170.063H67.1812L68.2206 168.078H61.3088Z" fill="#706E6E"/>
<path d="M120.374 98.9053H106.714C105.833 98.9053 105.118 99.6193 105.118 100.5C105.118 101.381 105.833 102.095 106.714 102.095H120.374C121.256 102.095 121.97 101.381 121.97 100.5C121.97 99.6193 121.256 98.9053 120.374 98.9053Z" fill="white"/>
<path d="M161.414 159.952H63.4617V164.48H161.414V159.952Z" fill="#E01919"/>
<path d="M97.3523 124.614C99.0456 124.614 100.418 123.24 100.418 121.544C100.418 119.848 99.0456 118.473 97.3523 118.473C95.6589 118.473 94.2861 119.848 94.2861 121.544C94.2861 123.24 95.6589 124.614 97.3523 124.614Z" fill="#383434"/>
<path d="M126.15 124.614C127.843 124.614 129.216 123.24 129.216 121.544C129.216 119.848 127.843 118.473 126.15 118.473C124.457 118.473 123.084 119.848 123.084 121.544C123.084 123.24 124.457 124.614 126.15 124.614Z" fill="#383434"/>
<path d="M102.683 129.455C103.721 130.89 105.084 132.059 106.66 132.865C108.237 133.671 109.981 134.092 111.751 134.092C113.521 134.092 115.266 133.671 116.842 132.865C118.419 132.059 119.782 130.89 120.82 129.455" stroke="#383434" stroke-width="8" stroke-linecap="round" stroke-linejoin="round"/>
<path d="M56.5055 155.357L49.1261 157.61L42.4519 155.833L49.8239 153.573L56.5055 155.357Z" fill="#E8E5E5"/>
<path d="M48.0273 81.1808L40.9003 78.2292L36.8765 72.6085L44.0035 75.5601L48.0273 81.1808Z" fill="#FFA63B"/>
<path d="M204.354 167.84L198.348 170.68L193.5 168.732L199.507 165.9L204.354 167.84Z" fill="#E8E5E5"/>
<path d="M211.645 108.801L205.639 111.634L200.798 109.693L206.797 106.853L211.645 108.801Z" fill="#F74326"/>
<path d="M184.933 174.68L178.281 172.1L182.617 169.959L189.269 172.539L184.933 174.68Z" fill="#E8E5E5"/>
<path d="M196.455 123.194L189.811 120.615L194.146 118.473L200.798 121.053L196.455 123.194Z" fill="#6161FF"/>
<path d="M14.2109 169.059C14.4188 169.126 21.3231 170.301 21.3231 170.301C23.7976 168.17 26.8349 166.802 30.0686 166.361C35.3174 165.736 39.1853 165.803 40.3583 165.186C42.1045 164.259 43.7884 163.218 45.3992 162.071L38.9774 161.729C38.9774 161.729 30.2022 163.729 27.4405 165.186C24.6788 166.643 18.3238 166.844 18.3238 166.844L14.2109 169.059Z" fill="#E8E5E5"/>
<path d="M30.9522 110.109C33.2685 113.403 35.169 113.678 40.5069 113.537L35.7926 107.411C35.7926 107.411 33.1868 110.429 27.0249 104.92L30.9522 110.109Z" fill="#6161FF"/>
<path d="M11.219 99.4183L16.1263 104.808C16.1263 104.808 22.0209 98.7492 29.586 108.318L30.4249 105.537C30.4249 105.537 24.3817 97.8421 11.219 99.4183Z" fill="#6161FF"/>
<path d="M18.45 103.24C22.3476 102.139 27.9007 103.455 30.0982 105.217C33.1792 107.693 30.952 110.109 30.952 110.109C30.952 110.109 25.1167 101.507 18.45 103.24Z" fill="#323280"/>
<path d="M59.8313 59.7539C59.8313 59.5606 59.7126 59.6498 59.6829 59.6275C59.7645 59.9249 59.8685 59.7465 59.8313 59.7539Z" fill="#E43636"/>
<path d="M59.4528 62.9434V62.869C59.4083 63.0251 59.3712 63.1962 59.3118 63.3597C59.3637 63.2259 59.4009 63.0772 59.4528 62.9434Z" fill="#E43636"/>
<path d="M57.4038 65.3448C57.7973 65.3448 58.2724 64.6013 58.6733 64.1776L58.7698 64.133V63.8281C58.4161 64.4169 57.9523 64.9319 57.4038 65.3448Z" fill="#E43636"/>
<path d="M55.763 65.8206C55.8892 65.8206 55.4809 66.051 56.112 65.6719H56.0451L55.763 65.8206Z" fill="#E43636"/>
<path d="M56.0527 65.6868C56.3348 65.5307 55.83 65.724 56.0527 65.6868V65.6868Z" fill="#E43636"/>
<path d="M54.6793 66.3188C54.8129 66.2518 54.9391 66.1775 55.0579 66.1031C54.9614 66.1031 54.5976 66.2072 54.7238 66.1031C54.3229 66.3039 54.4194 66.3188 54.6793 66.3188Z" fill="#E43636"/>
<path d="M54.3376 66.5641L54.5678 66.4897C54.5264 66.4853 54.4845 66.4896 54.4448 66.5024C54.4052 66.5152 54.3687 66.5362 54.3376 66.5641Z" fill="#E43636"/>
<path d="M54.9762 66.2742L54.5679 66.4898C54.6347 66.4898 54.6644 66.5716 54.7683 66.4006C54.7238 66.4675 54.798 66.3857 54.9762 66.2742Z" fill="#E43636"/>
<path d="M55.2361 66.2072C55.4811 66.1626 55.778 66.0511 55.4068 66.3039C56.1641 65.9247 55.9859 65.8578 55.2361 66.2072Z" fill="#E43636"/>
<path d="M57.4112 65.6199L57.7156 65.4637L57.9012 65.2184C57.8195 65.3522 57.3518 65.5827 57.4112 65.6199Z" fill="#E43636"/>
<path d="M52.0066 66.7722C52.0066 66.8243 52.1699 66.8763 52.207 66.9283L52.5263 66.8391C52.3407 66.8243 52.0363 66.8391 52.0066 66.7722Z" fill="#E43636"/>
<path d="M52.2069 66.9285L51.7244 67.0549C52.1698 67.0251 52.2441 66.9731 52.2069 66.9285Z" fill="#E43636"/>
<path d="M54.3227 66.8392C54.5752 66.7128 54.8127 66.5716 55.0651 66.4303C54.783 66.5939 54.4935 66.7426 54.1965 66.8838L54.3227 66.8392Z" fill="#E43636"/>
<path d="M50.1357 66.869L50.4178 66.7649L49.9204 66.921L50.1357 66.869Z" fill="#E43636"/>
<path d="M48.881 66.8689C49.0889 66.7872 48.5989 66.7054 48.8216 66.6608C48.5148 66.6695 48.2093 66.7044 47.9084 66.7649C48.2359 66.7527 48.5635 66.7878 48.881 66.8689Z" fill="#E43636"/>
<path d="M47.4556 66.8318C47.6079 66.8199 47.7592 66.7976 47.9084 66.7649C47.7557 66.7731 47.6041 66.7955 47.4556 66.8318Z" fill="#E43636"/>
<path d="M50.8557 67.092C50.738 67.0109 50.5977 66.9692 50.4548 66.973L50.6553 67.092H50.8557Z" fill="#E43636"/>
<path d="M50.93 67.092H50.8557C50.8557 67.092 50.9151 67.1069 50.93 67.092Z" fill="#E43636"/>
<path d="M53.0309 67.0176C52.7637 67.1365 52.1623 67.3001 52.7637 67.3224C52.9567 67.196 52.6152 67.1886 53.0309 67.0176Z" fill="#E43636"/>
<path d="M51.1824 67.2333H51.7169C51.7169 67.2333 51.6055 67.159 51.7169 67.1144L51.1824 67.2333Z" fill="#E43636"/>
<path d="M50.9226 67.2853L51.1824 67.2333H50.9894L50.9226 67.2853Z" fill="#E43636"/>
<path d="M48.3613 67.0103C48.1145 67.0351 47.8657 67.0351 47.6189 67.0103C47.9233 67.0549 48.2425 67.092 48.5395 67.1069C48.5543 67.092 48.6954 67.0251 48.3613 67.0103Z" fill="#E43636"/>
<path d="M49.4973 67.092H49.4453C49.4453 67.092 49.5047 67.1144 49.4973 67.092Z" fill="#E43636"/>
<path d="M44.7979 66.6757L44.835 66.7054L44.8498 66.6905L44.7979 66.6757Z" fill="#E43636"/>
<path d="M48.5619 67.1515C48.7278 67.1915 48.9009 67.1915 49.0668 67.1515H48.51C48.51 67.1515 48.4877 67.1589 48.5619 67.1515Z" fill="#E43636"/>
<path d="M46.676 66.8094C46.8025 66.854 46.9314 66.8912 47.0621 66.921C46.9422 66.8581 46.8109 66.8201 46.676 66.8094Z" fill="#E43636"/>
<path d="M49.371 67.0623C49.2682 67.0778 49.1665 67.1002 49.0667 67.1292H49.4453L49.371 67.0623Z" fill="#E43636"/>
<path d="M43.7955 67.3076C43.8624 67.1961 44.486 67.211 44.9908 67.4191C45.5253 67.4191 45.2432 66.9805 44.8349 66.6757C44.8349 66.7277 44.8349 66.7723 44.2707 66.7426C44.434 66.8467 45.4066 67.0994 44.9463 67.1292C44.6301 67.1254 44.3214 67.0327 44.0554 66.8615C44.3152 67.0697 43.1274 66.8615 43.2313 67.1217L43.8624 67.1812C43.8624 67.1812 43.6322 67.2556 43.7955 67.3076Z" fill="#E43636"/>
<path d="M45.8298 66.869H46.0525C45.7944 66.8165 45.5446 66.7289 45.3101 66.6088C44.9463 66.6088 44.8647 66.6088 44.835 66.6757L45.8966 66.8467L45.8298 66.869Z" fill="#E43636"/>
<path d="M47.0251 66.9954C46.8395 67.1069 46.2827 67.1069 46.6168 67.2779C47.2627 67.3299 47.0771 67.2184 47.4705 67.1961C46.4312 67.1292 47.7675 67.1515 47.0325 67.0103C47.2305 67.0103 47.4161 67.0103 47.5893 67.0103L47.0622 66.8987C47.1068 66.8987 47.1142 66.8987 47.0622 66.8987C47.0482 66.9171 47.0305 66.9323 47.0102 66.9433C46.7133 66.8839 46.9657 66.9433 47.0622 66.8987C46.7207 66.8987 46.3718 66.8987 46.0303 66.8541C46.3579 66.9262 46.6904 66.9734 47.0251 66.9954Z" fill="#E43636"/>
<path d="M52.2516 67.6644C52.2516 67.6644 52.1254 67.6793 52.2516 67.6644V67.6644Z" fill="#E43636"/>
<path d="M51.8134 67.6348C51.9301 67.5726 52.0599 67.5395 52.192 67.5381C52.4073 67.5381 52.192 67.605 52.192 67.6422C52.3331 67.5902 52.6969 67.4861 52.192 67.4787H52.1178C51.8118 67.4939 51.506 67.4459 51.2195 67.3374C51.3874 67.4878 51.5925 67.5905 51.8134 67.6348Z" fill="#E43636"/>
<path d="M49.371 67.4563H48.5024L48.9405 67.5901V67.5232C49.4082 67.5901 49.3042 67.5083 49.371 67.4563Z" fill="#E43636"/>
<path d="M44.7088 66.5939L44.8499 66.4824L44.3228 66.5791L44.7088 66.5939Z" fill="#E43636"/>
<path d="M43.6175 66.3932L43.6768 66.2891L43.3799 66.2965L43.6175 66.3932Z" fill="#E43636"/>
<path d="M60.5591 35.2639L60.8189 35.316L60.5591 35.2639Z" fill="#E43636"/>
<path d="M58.7105 34.8104L58.6511 34.855C58.7402 34.8402 58.7847 34.8327 58.7105 34.8104Z" fill="#E43636"/>
<path d="M29.6157 47.2859C29.8236 46.9811 30.1206 46.6837 29.9869 46.6763L29.8236 46.7209C29.777 46.9168 29.7072 47.1065 29.6157 47.2859Z" fill="#E43636"/>
<path d="M43.3279 35.3828H43.2165L43.0012 35.5687L43.3279 35.3828Z" fill="#E43636"/>
<path d="M43.4319 34.7954C43.6026 34.7954 43.7734 34.7954 43.9441 34.7954C43.774 34.7757 43.6021 34.7757 43.4319 34.7954Z" fill="#E43636"/>
<path d="M70.1582 39.2489L70.4923 39.2935C70.0765 39.0555 70.2324 39.2117 70.1582 39.2489Z" fill="#E43636"/>
<path d="M33.5801 61.449C33.3945 61.1962 33.2237 61.0104 33.0901 60.8468C33.2831 61.1739 33.439 61.449 33.5801 61.449Z" fill="#E43636"/>
<path d="M59.4826 36.4087C59.6385 36.4087 59.7128 36.4087 59.7128 36.4087C59.5494 36.3716 59.4604 36.3716 59.4826 36.4087Z" fill="#E43636"/>
<path d="M32.4888 60.1777L32.5704 60.3264C32.7529 60.4904 32.9263 60.6642 33.0901 60.8469C32.9372 60.5852 32.7325 60.3575 32.4888 60.1777Z" fill="#E43636"/>
<path d="M92.95 68.2518V68.341C92.95 68.341 92.9722 68.3039 92.95 68.2518Z" fill="#E43636"/>
<path d="M94.4495 79.062C94.4495 78.9579 94.3901 78.7869 94.353 78.6307C94.3756 78.7765 94.4078 78.9205 94.4495 79.062Z" fill="#E43636"/>
<path d="M39.3708 65.0251C39.5936 65.1069 39.4154 65.0251 39.3708 65.0251V65.0251Z" fill="#E43636"/>
<path d="M40.2617 65.9174C40.2098 65.9174 40.1652 65.9174 40.1504 65.9174C40.168 65.9098 40.1869 65.9059 40.2061 65.9059C40.2252 65.9059 40.2442 65.9098 40.2617 65.9174Z" fill="#E43636"/>
<path d="M30.4399 58.7577C30.4474 58.8097 30.4399 58.7949 30.4399 58.7577V58.7577Z" fill="#E43636"/>
<path d="M39.6754 65.2109L39.4155 65.0623C39.4986 65.1178 39.5854 65.1675 39.6754 65.2109Z" fill="#E43636"/>
<path d="M39.6531 65.1367L39.8387 65.2259C39.8758 65.2185 39.8535 65.1962 39.6531 65.1367Z" fill="#E43636"/>
<path d="M39.0664 64.9061C39.1853 64.9523 39.3017 65.0044 39.4153 65.0623C39.3708 65.0623 39.3559 65.0623 39.3708 65.0623L39.0664 64.9061Z" fill="#E43636"/>
<path d="M83.1057 50.8397V50.8918C83.321 51.0554 83.2468 50.9513 83.1057 50.8397Z" fill="#E43636"/>
<path d="M32.3626 40.5946C32.2438 40.8842 32.0551 41.1397 31.8132 41.3381H32.2809C32.2934 41.0888 32.3206 40.8406 32.3626 40.5946Z" fill="#E43636"/>
<path d="M64.8723 36.7582L64.3452 36.4163C65.0876 36.5203 65.5925 36.7954 65.0876 36.4163C64.9688 36.5872 64.4046 36.3642 63.8404 36.1412C63.2762 35.9181 62.6823 35.7694 62.5783 35.9404L62.2145 35.7323C62.3259 35.7323 62.3482 35.7323 62.4595 35.7917C61.7171 35.3605 61.8062 35.8884 60.8485 35.5092C60.5144 35.368 60.2917 35.249 60.5367 35.2639L59.7646 35.1746C59.5419 35.1077 59.6161 35.0557 59.8389 35.1152L58.6436 34.8624C58.458 34.8624 58.0571 34.8624 57.9012 34.8624C57.6117 34.7286 58.0571 34.8624 57.9903 34.788C57.7663 34.7581 57.5406 34.7432 57.3147 34.7434C57.0623 34.5947 57.6339 34.5724 58.0571 34.7434C57.5226 34.1933 57.4929 34.7434 56.1863 34.2676L56.8247 34.3197C56.3241 34.0691 55.7923 33.8865 55.2434 33.7769C55.4142 33.881 56.6317 34.3568 55.8893 34.3494C55.6086 34.2615 55.3142 34.2262 55.0207 34.2453C55.0207 34.1115 54.6495 34.052 54.1669 34.0446L54.2189 33.8587C53.9387 33.8726 53.6628 33.9329 53.4023 34.0371C52.8232 33.9777 52.7118 33.8215 52.5856 33.6877C51.6502 33.5985 53.2167 33.9702 52.1105 33.933C51.3676 33.8395 50.6142 33.8747 49.8833 34.0371C49.3413 33.9851 49.9724 33.9182 49.7793 33.8736L49.3042 34.0297C49.1854 34.0297 49.2225 33.9851 49.2374 33.9628C48.8365 34.0297 49.2374 34.1487 48.5841 34.2156C48.4282 34.4237 47.2626 34.052 46.4979 34.3717C46.2975 34.3717 46.5796 34.2453 46.4979 34.1784C45.8904 34.2913 45.301 34.4864 44.7459 34.7583H44.0035C44.5825 34.7955 43.9144 35.0706 43.3576 35.3754C43.5655 35.3754 43.7362 35.3754 43.855 35.3754L42.9418 35.7248C42.8231 35.7248 42.8973 35.6356 43.0309 35.5166L42.8676 35.6059C42.5112 35.6059 42.6597 35.4795 42.8676 35.3085H43.2388C43.4392 35.1375 43.6323 34.9516 43.558 34.855C43.4616 34.9103 43.3596 34.9552 43.2536 34.9888C43.3056 34.9442 43.3427 34.907 43.3056 34.8921C43.2685 34.8773 43.1794 34.9516 43.0384 35.0408L42.7637 34.8921V34.9888C42.3256 35.0483 41.9025 35.1449 41.4793 35.2416C40.6552 35.7397 39.9945 36.3122 38.7399 37.0036C38.9997 36.7062 38.7399 36.7434 38.6433 36.5649C39.0739 36.5649 39.653 36.0296 40.3806 35.7694C40.0019 35.9033 40.0465 35.7694 40.1281 35.7248C39.7347 35.9553 39.3264 36.1709 38.9403 36.4163C38.9032 36.2676 38.6285 36.4162 38.2796 36.5426C38.6582 36.6913 37.4481 37.1523 37.0249 37.5315C36.9432 37.4645 37.0249 37.3084 37.6114 36.9962C36.869 37.1672 36.9432 37.7396 36.2157 37.9775C36.3568 37.8958 36.4458 37.8586 36.4755 37.7842C36.1712 38.037 35.3768 38.5277 35.503 38.327L35.6366 38.2303C34.6641 38.7582 32.964 40.2749 33.0382 40.5797C32.9803 40.4538 32.95 40.3169 32.9491 40.1782L32.526 41.1522L32.1845 42.1484C32.1399 41.8733 31.3084 42.0295 31.8355 41.2637C31.5477 41.5137 31.2976 41.8042 31.0931 42.1261C31.2342 41.9997 31.6277 41.9923 31.4792 42.1856C31.0968 42.4185 30.743 42.6954 30.425 43.0109C30.6254 42.8176 30.7145 43.2636 30.425 43.5908C30.425 43.5016 30.1206 43.4272 30.1874 43.2785C30.076 43.6354 29.9944 44.022 29.9053 44.364C29.987 44.1112 29.69 44.1781 29.4821 44.364C29.5415 44.364 29.4153 44.5275 29.2668 44.7729C29.1184 45.0182 28.9921 45.3231 28.9402 45.4569L29.2074 45.0777C29.0024 45.4351 28.8949 45.8402 28.8956 46.2524C28.9268 46.6536 28.8711 47.0569 28.7323 47.4345C28.7323 47.2858 28.4428 46.9661 28.2126 47.5312C28.2126 47.6873 28.376 48.0516 28.4873 48.4754C28.6085 48.9432 28.688 49.4209 28.7249 49.9029L28.6061 50.0813L28.6581 50.8248C28.4883 50.4264 28.3469 50.0164 28.2349 49.598C28.1137 49.1108 28.0416 48.6127 28.0196 48.1111C27.8489 48.5423 27.8785 48.2077 27.7449 48.8546C27.6113 49.0776 27.6855 48.4605 27.7449 48.2598C27.5962 48.7803 27.4919 49.3126 27.4331 49.8508C27.641 49.8062 27.5222 51.0999 27.7152 51.0404C27.6707 50.4605 27.6632 49.8806 27.641 49.2932C27.7449 49.2932 27.8637 49.5386 27.9379 49.9475C28.0181 50.4389 28.0554 50.9365 28.0493 51.4344C27.9751 51.7169 27.6929 51.2337 27.6261 51.2486C27.6738 51.4462 27.7036 51.6478 27.7152 51.8508C27.7545 52.0389 27.7719 52.231 27.7672 52.4232L27.6187 51.9548C27.6209 52.2388 27.6711 52.5204 27.7672 52.7875C27.8774 53.1051 27.903 53.4459 27.8414 53.7764C27.886 54.0291 27.7672 54.5942 27.8934 54.609C28.0122 54.1332 28.6878 53.9176 28.9105 54.1332C28.9105 54.2224 29.0293 55.4269 29.0441 55.7317C29.0441 56.1778 28.4279 55.2856 28.4056 55.6648C28.465 55.6648 28.6061 55.8581 28.6581 55.9399C28.71 56.215 28.465 55.8953 28.6581 56.438C28.8808 56.438 29.1258 57.5383 28.9253 56.6313C29.2074 57.122 29.1258 57.2038 29.445 57.7911C29.445 57.5532 30.1057 58.1108 30.4472 58.5346C30.3879 58.5346 30.3879 58.6833 30.4027 58.7502C30.8696 59.5676 31.4087 60.3415 32.0137 61.0624C32.0137 61.1665 32.3552 61.5903 32.1399 61.4862C32.3257 61.5944 32.4998 61.7214 32.6596 61.8654C32.9937 62.4453 32.1102 61.3598 32.3107 61.8654C32.4295 61.8059 33.0531 62.3635 33.4465 62.6088C33.4465 62.3858 32.667 61.8654 32.2884 61.5531C32.474 61.3821 33.209 61.8059 34.1147 62.4081C34.8571 62.8988 34.3077 62.765 34.4414 62.8393C35.7331 63.8579 35.8074 63.3003 36.8542 64.1478C37.2402 64.5493 36.7205 64.4378 36.7651 64.5939C36.302 64.3372 35.8666 64.0332 35.4659 63.6869C35.6144 63.8207 35.7703 63.9396 35.9262 64.0735C35.6346 63.9614 35.3655 63.7977 35.1318 63.5902C35.5588 63.9851 36.0355 64.3225 36.5498 64.5939C37.2328 65.0102 38.0346 65.3969 38.6136 65.724C38.8438 65.7686 39.2298 65.8652 39.0814 65.724L38.6953 65.5902C38.4132 65.3299 39.4377 65.724 39.022 65.4712C39.6441 65.58 40.2535 65.7519 40.8408 65.9842L40.9225 66.1998C40.7301 66.0566 40.506 65.9623 40.2692 65.9247C40.5884 65.9247 41.2937 66.5344 41.6946 66.3931C41.5387 66.3039 41.3754 66.2221 41.2269 66.118C41.8505 66.1499 42.4696 66.242 43.0755 66.3931C42.8305 66.1478 42.9196 66.3931 42.5187 66.0585C42.8379 66.4303 40.9077 65.5902 41.457 66.0585C41.071 65.6794 40.7146 65.7165 40.1801 65.3151C40.1801 65.3745 40.3434 65.4935 39.8386 65.3151H39.7198C39.8036 65.3677 39.8809 65.4301 39.95 65.5009C39.463 65.4279 38.9852 65.3033 38.5246 65.1292C38.2424 64.9656 38.6805 65.1292 38.5246 64.9879L38.0717 64.8987C38.0717 64.7649 37.3961 64.3039 38.1162 64.5865L37.4926 64.185C37.152 63.9102 36.7808 63.6757 36.3864 63.4861C36.1266 63.2928 35.644 63.1664 35.9113 63.2408C35.6069 63.0549 35.2877 62.8765 34.9907 62.6757C34.0251 62.0747 33.1895 61.286 32.5334 60.3561C32.2064 60.0574 31.9195 59.7175 31.6796 59.345V59.1814C31.3678 58.8394 31.0189 57.9919 30.8259 57.8803C30.7379 57.4242 30.5667 56.9882 30.321 56.5941C30.0704 56.1176 29.8617 55.62 29.6974 55.1072H29.5489C29.393 54.5793 29.2074 54.0886 29.0218 53.4344L28.8956 53.5013C28.7361 52.6963 28.6936 51.8724 28.7694 51.0552C28.8091 51.2063 28.8091 51.3651 28.7694 51.5162C28.8798 50.9559 28.9197 50.3839 28.8882 49.8136C28.8623 49.263 28.9534 48.7131 29.1555 48.2003C29.1636 47.9937 29.2277 47.7932 29.3411 47.6204C29.3385 47.6401 29.3385 47.6601 29.3411 47.6799V47.5832L29.5267 47.2784C29.4636 47.3567 29.4088 47.4414 29.3633 47.5312C29.4227 47.3453 29.497 47.0628 29.5638 46.7877L29.7345 46.7208V46.6613C29.9053 46.4308 29.7345 46.4308 29.6083 46.5275C29.6489 46.4014 29.6787 46.272 29.6974 46.1409C30.0092 46.0368 29.935 45.3974 30.321 45.2487C30.321 45.0257 30.9818 43.9402 30.9075 43.6874C30.9075 43.6874 31.004 43.6354 30.9075 43.7692C31.133 43.5504 31.3256 43.3 31.4792 43.0257H31.7019C31.7761 42.7804 31.8949 42.5648 31.9914 42.3269C32.3701 42.0741 32.5334 41.9849 32.3478 42.4012C32.6627 41.902 33.0047 41.4205 33.3723 40.9589L33.4168 41.0778C33.647 40.8548 33.9291 40.3864 34.1592 40.3344C34.5156 40.2005 35.1912 39.6429 36.0672 39.0928C36.9269 38.5136 37.8513 38.037 38.8215 37.6727C38.3538 37.5166 39.653 37.4348 39.6159 37.182C39.7495 37.182 40.0019 37.182 39.7569 37.3382C40.4014 37.11 41.029 36.8367 41.6352 36.5203C41.7614 36.5649 41.4867 36.6988 41.5907 36.7136C41.699 36.6383 41.8237 36.5899 41.9544 36.5724C42.0584 36.5724 41.8431 36.6765 41.7169 36.7582C42.6078 36.4386 42.6375 36.1932 42.6375 35.9404C43.0138 35.9651 43.3854 35.8455 43.6768 35.6059C43.8624 35.6059 44.152 35.6059 43.5803 35.8215C43.907 35.7397 45.5996 35.5166 45.6145 35.3456C45.8032 35.3591 45.9927 35.3338 46.1713 35.2713C46.9137 35.197 46.9879 35.2118 47.7303 35.1077H47.5224C47.7971 34.8624 48.1312 34.959 48.7326 34.9219C50.1134 35.0631 49.3265 34.8327 50.6851 34.9962L50.6108 34.855C50.6776 34.6988 50.982 34.736 51.3532 34.8029C51.7554 34.9244 52.173 34.987 52.593 34.9888L52.3109 34.8847C52.7489 34.8103 53.4839 35.3903 53.9071 35.4572C53.9962 35.4572 53.7512 35.4572 53.6176 35.4943C54.7163 35.7694 53.7883 35.2936 54.6198 35.3605C54.7608 35.4869 54.3971 35.591 54.9464 35.6951C55.2063 35.8215 56.6169 35.6133 57.337 35.9479C57.1885 35.8289 57.04 35.7174 57.4335 35.7471C58.02 35.8661 58.9183 36.4162 59.5196 36.3047C59.5864 36.3419 59.6161 36.3716 59.6087 36.3865C60.0764 36.3865 61.0935 36.7211 61.3682 36.669C61.4944 36.9739 62.1923 37.1374 62.853 37.2787C63.5137 37.4199 64.078 37.6355 63.9889 37.8363L65.3029 38.3567H65.251C65.7118 38.6097 66.2151 38.776 66.7358 38.8474C66.9065 38.9664 66.7358 38.9366 66.7358 38.9515C67.12 39.1925 67.5192 39.4085 67.931 39.5983C68.2428 39.7173 68.5472 39.8065 69.0743 39.9998V40.1857C69.4349 40.3808 69.7777 40.6072 70.0988 40.8622C70.3512 41.0332 70.6259 41.2191 70.9081 41.3901C71.1823 41.5841 71.4701 41.758 71.7692 41.9105C71.7692 41.9105 71.7098 41.9105 71.6133 41.9105C72.2906 42.3108 72.9271 42.7765 73.5139 43.3008C74.0707 43.8138 74.5681 44.2153 74.9393 44.1632L75.7856 44.6539C74.8279 43.8584 76.0826 44.5945 75.7262 44.2079C76.1494 44.4755 76.6023 45.1446 76.1345 44.7655L76.0826 44.6837C75.7411 44.7506 77.1739 45.7915 77.0254 45.9104C77.4857 46.3193 77.946 46.7134 78.3692 47.152L79.6016 48.4605C80.433 49.3081 81.1235 50.2672 81.8881 51.1147V50.7802L82.4078 51.3898C82.4895 51.5905 82.4598 51.7095 82.0886 51.2709C82.2629 51.5639 82.5217 51.7972 82.831 51.94C83.4398 52.8842 82.3633 51.7541 82.5712 52.0292L82.8681 52.3861L82.8236 52.2894C83.14 52.4781 83.4132 52.7314 83.6254 53.0329C83.8555 53.4046 83.6254 53.2931 83.7516 53.4344C83.7516 53.4344 83.7516 53.4938 83.9075 53.6425C84.1153 53.9102 84.2861 54.2001 84.4643 54.4752L84.3826 54.044C84.7018 54.3637 84.9023 54.8395 84.8058 54.3414C85.0742 55.0276 85.4365 55.6731 85.8823 56.2596C86.35 57.003 86.8251 57.7465 86.8919 57.9844C87.3178 58.5077 87.6769 59.0822 87.961 59.6944C87.9016 59.5085 88.0204 59.3152 88.3025 59.9174C87.8422 59.9174 88.7182 61.0698 88.6811 61.6869C88.6811 61.1665 89.5349 63.3597 89.4235 62.5716C89.624 63.0921 89.3047 62.6683 89.4235 63.0846C90.203 64.2296 90.552 65.8206 91.1681 67.3076C91.2275 67.3076 91.2127 67.0251 91.4057 67.3076V68.1997C91.5393 68.4971 91.7992 68.3782 91.814 68.9953C91.814 68.906 91.814 68.7648 91.9328 68.9953C92.7123 72.0807 94.0041 75.2033 94.16 78.482C94.16 78.0285 94.2417 78.3184 94.3085 78.6456C94.3085 78.4225 94.4347 78.6456 94.5015 78.5712L94.5535 79.9392C94.7985 80.1474 94.8133 81.3741 95.0212 81.4782L94.9173 81.0618C95.2291 81.5897 95.2736 80.1845 95.5632 80.2217C95.1994 79.6344 95.63 78.4671 95.0583 77.5006C95.0583 77.2627 95.1845 77.679 95.2291 77.5452C95.0216 77.1954 94.9042 76.7994 94.8876 76.3928L94.9321 76.4523C94.5238 74.8092 94.4792 74.0732 94.0412 72.2145L93.9447 72.3855C93.8905 72.1589 93.8606 71.9271 93.8556 71.6941C93.5216 71.3 94.1526 72.8093 93.8111 72.4375C93.9596 71.8279 92.9944 69.6718 93.18 69.2257C92.987 68.6235 93.0835 69.4562 92.8905 68.854V68.6681L92.7346 68.5492C92.6233 68.1551 92.6455 67.9247 92.7346 67.8875C92.7829 68.0092 92.8374 68.1283 92.8979 68.2444C92.7401 67.6994 92.5467 67.1654 92.3189 66.6459L92.4748 67.2332C91.8508 65.5102 91.1066 63.8332 90.2476 62.2148V62.356C89.6017 61.2631 89.8838 61.4044 89.2156 60.1851H89.2528C89.0328 59.9172 88.8435 59.6254 88.6885 59.3152C88.9261 59.5903 88.5178 58.6535 88.8073 59.0253C88.0649 57.8729 88.3841 58.4751 87.7308 57.7985V57.6424C87.4572 57.4226 87.228 57.1526 87.0552 56.8469C87.4264 57.2856 86.9662 56.3785 87.4042 56.8469C86.8696 55.4566 86.0307 55.1518 85.9194 54.3934C85.2958 54.0068 86.4836 55.5384 86.2238 55.2633C86.3129 55.5756 85.7264 54.9287 85.4814 54.5198C85.2364 54.1109 85.3923 53.6128 84.6647 52.6909C84.7315 52.7801 84.7612 52.7727 84.828 52.8693C84.6202 52.4753 84.2193 52.2448 83.9891 51.7392C83.6625 51.6129 83.5734 51.1816 83.3358 51.256L84.0337 52.0738C83.4766 51.6108 82.978 51.0815 82.5489 50.4976C82.7252 50.5955 82.8917 50.7101 83.0463 50.8396C82.9052 50.5794 82.638 50.4456 82.4895 50.1705C82.6083 50.1259 82.8384 50.3638 83.0983 50.6612C83.3419 50.9813 83.6153 51.2776 83.9149 51.5459C83.7961 51.2337 83.024 50.6686 83.4249 50.8025C82.8755 50.6389 82.6825 49.8954 81.9847 49.4493L82.1257 49.3973C81.9534 49.2782 81.7941 49.1411 81.6506 48.9884L82.0663 49.1817C81.5244 48.8025 81.3239 48.1408 80.8414 47.7691C81.7545 48.691 80.9305 48.0888 81.2274 48.5572C79.9802 47.5461 80.8488 47.6501 79.5347 46.416C79.7203 46.5721 80.1212 47.1594 79.8094 46.8992C79.5822 46.6447 79.3808 46.3683 79.2081 46.074C78.3098 45.3305 79.2081 46.297 78.8146 46.0219C78.629 45.6279 78.3321 45.6874 77.9089 45.3825L77.998 45.2785C77.0477 44.3045 77.5303 45.2785 76.6988 44.3714L77.211 44.5647L76.7062 44.1781L76.9066 44.1409C76.4402 43.8861 76.0127 43.5656 75.6371 43.1893C75.6965 43.3677 75.407 43.338 74.9319 42.9737C74.6646 42.654 75.1991 43.0109 74.5161 42.5053C74.6499 42.5188 74.7787 42.5635 74.8921 42.6358C75.0056 42.7081 75.1006 42.806 75.1694 42.9216C75.2288 42.9216 75.3699 42.9663 75.4293 42.9216C75.1119 42.589 74.7611 42.29 74.3825 42.0295C74.4726 42.0968 74.5548 42.1741 74.6275 42.26C74.2711 42.0518 73.8851 41.8882 73.5065 41.7098C73.3802 41.5537 73.5064 41.6057 73.6772 41.6577C73.4619 41.5313 73.2837 41.4867 72.9719 41.286C73.1204 41.286 73.1649 41.1299 73.6327 41.3827L72.5859 40.825C72.5859 40.7433 72.1627 40.3715 72.3112 40.4161C71.8212 39.9701 70.8264 39.7842 70.1285 39.2489C70.0218 39.2323 69.9187 39.1971 69.8241 39.1448C69.1497 38.6358 68.3976 38.2391 67.5969 37.9701L67.1886 37.5686C66.4908 37.2712 67.738 38.1337 66.5799 37.643C65.7558 37.3159 66.3571 37.3456 66.0973 37.1597C65.4304 37.0795 64.7892 36.8536 64.219 36.498C64.4492 36.5649 64.6348 36.6765 64.8723 36.7582ZM55.9041 34.3345C56.0897 34.3345 56.4609 34.3345 56.5797 34.4014C56.3496 34.5353 56.2011 34.4312 55.9041 34.3345ZM41.947 35.4869C42.1145 35.386 42.3089 35.3393 42.5038 35.3531C42.3218 35.4115 42.1357 35.4562 41.947 35.4869ZM37.0175 63.9991C36.6908 63.7538 36.8022 63.843 37.0175 63.9991V63.9991ZM37.6856 64.4303C37.7673 64.4303 37.7673 64.4303 37.745 64.4303C37.601 64.3977 37.4648 64.3371 37.3441 64.2519C37.3738 64.2816 37.4926 64.3337 37.6856 64.4303ZM83.9223 53.4864L83.8555 53.3377C84.1079 53.5979 84.0188 53.5385 83.9223 53.4864Z" fill="#E43636"/>
<path d="M43.4319 34.8699C43.4507 34.8712 43.4691 34.8766 43.4857 34.8855C43.5024 34.8945 43.5169 34.9069 43.5284 34.9219C43.5952 34.8847 43.5952 34.855 43.4319 34.8699Z" fill="#E43636"/>
<path d="M28.4576 56.0068C28.4301 55.8948 28.4152 55.7801 28.413 55.6648C28.3759 55.6722 28.3759 55.754 28.4576 56.0068Z" fill="#E43636"/>
<path d="M41.6797 65.7761L41.2046 65.6571C41.3529 65.7011 41.495 65.7635 41.6278 65.843C41.6278 65.843 41.5238 65.7315 41.6797 65.7761Z" fill="#E43636"/>
<path d="M45.8892 67.5678C45.9635 67.5678 46.0525 67.5678 46.1268 67.5678V67.5009C45.7927 67.4712 45.5551 67.5009 45.8892 67.5678Z" fill="#E43636"/>
<path d="M41.999 66.3634C41.999 66.4972 42.3331 66.5418 42.6969 66.6087H42.6301C42.7785 66.4526 42.3851 66.4229 41.999 66.3634Z" fill="#E43636"/>
<path d="M42.7786 66.6237L43.1052 66.698C43.1572 66.646 42.9716 66.6534 42.7786 66.6237Z" fill="#E43636"/>
<path d="M38.6285 64.8021C38.7696 64.9062 38.7844 64.7054 38.8513 64.8021C39.0888 64.7352 37.7525 64.4898 38.6285 64.8021Z" fill="#E43636"/>
<path d="M42.1847 66.8317L42.0956 66.6533L41.8655 66.7054L42.1847 66.8317Z" fill="#E43636"/>
<path d="M39.46 65.8207C39.6381 65.9025 39.8163 65.9768 39.9945 66.066C39.9945 66.066 40.0687 66.066 40.1578 66.066C39.9358 65.9567 39.7015 65.8744 39.46 65.8207Z" fill="#E43636"/>
<path d="M40.158 66.066C40.302 66.1315 40.4544 66.1766 40.6108 66.1999L40.158 66.066Z" fill="#E43636"/>
<path d="M41.3977 66.6533L41.2046 66.5641L40.8186 66.4229C41.0265 66.5046 41.2046 66.5641 41.3977 66.6533Z" fill="#E43636"/>
<path d="M34.0628 62.6387L33.5505 62.2521C33.4688 62.2521 33.5505 62.3859 33.7732 62.5272C33.996 62.6684 34.0999 62.7428 34.0628 62.6387Z" fill="#E43636"/>
<path d="M35.3841 64.1255C35.3074 64.0564 35.2488 63.9696 35.2134 63.8727L35.0872 64.0139L35.3841 64.1255Z" fill="#E43636"/>
<path d="M33.8251 63.0327C33.7435 63.0327 33.0085 62.5197 33.6469 63.0327C33.7286 63.0699 34.278 63.4342 33.8251 63.0327Z" fill="#E43636"/>
<path d="M28.6284 54.8842L28.673 55.0403L28.9551 54.9362L28.6284 54.8842Z" fill="#E43636"/>
<path d="M28.3612 46.1855C28.0271 46.929 28.4725 46.4309 28.1533 47.0926C28.1533 47.2859 28.4132 46.5498 28.4057 46.758C28.4874 46.2747 28.6285 46.0517 28.3612 46.1855Z" fill="#E43636"/>
<path d="M28.4058 46.7579C28.4058 46.8323 28.4058 46.9141 28.4058 47.0033C28.411 46.9216 28.411 46.8396 28.4058 46.7579Z" fill="#E43636"/>
<path d="M94.6055 80.8462L94.6203 81.3369L94.6723 81.0098L94.6055 80.8462Z" fill="#E43636"/>
<path d="M94.9768 81.731L94.7986 81.8722L95.0213 82.1324C94.9817 82.0025 94.9666 81.8664 94.9768 81.731Z" fill="#E43636"/>
<path d="M54.5677 33.7397H54.5232C54.6509 33.8118 54.7928 33.855 54.9389 33.8661L54.5677 33.7397Z" fill="#E43636"/>
<path d="M61.2122 35.2788L61.1008 35.2416L61.2642 35.4795L61.2122 35.2788Z" fill="#E43636"/>
<path d="M66.6318 37.0928C66.4314 36.9739 66.1493 36.9218 65.9414 36.8177C66.4462 36.9739 66.5947 37.3159 66.6318 37.0928Z" fill="#E43636"/>
<path d="M18.8585 60.6833C18.9178 60.8468 19.0069 60.7428 19.0366 60.7576C18.9327 60.5048 18.8362 60.7056 18.8585 60.6833Z" fill="#E43636"/>
<path d="M17.574 58.1554L17.6408 58.1851L17.3735 57.8431L17.574 58.1554Z" fill="#E43636"/>
<path d="M16.6608 55.6797C16.5495 55.9845 17.0172 56.5719 17.1063 57.0403V57.1295L17.3364 57.2633C17.0723 56.753 16.8465 56.2236 16.6608 55.6797Z" fill="#E43636"/>
<path d="M16.6461 54.2075C16.5941 54.3116 16.4828 53.9399 16.7203 54.5272V54.4603L16.6461 54.2075Z" fill="#E43636"/>
<path d="M16.7053 54.4604C16.8018 54.7206 16.7053 54.2671 16.7053 54.4604V54.4604Z" fill="#E43636"/>
<path d="M16.2749 53.2708L16.4605 53.5905C16.4605 53.5013 16.3937 53.1964 16.4605 53.2931C16.3046 52.9585 16.2823 53.0403 16.2749 53.2708Z" fill="#E43636"/>
<path d="M16.0225 52.9883L16.1115 53.1593C16.1115 53.1593 16.1115 53.0701 16.0225 52.9883Z" fill="#E43636"/>
<path d="M16.2971 53.5162L16.1115 53.1816C16.1115 53.2411 16.0298 53.2634 16.1931 53.3452C16.1189 53.3155 16.2006 53.3675 16.2971 53.5162Z" fill="#E43636"/>
<path d="M16.3416 53.7393C16.3416 53.9474 16.4158 54.2076 16.2302 53.8879C16.4752 54.5348 16.5866 54.3935 16.3416 53.7393Z" fill="#E43636"/>
<path d="M16.4084 55.6276V55.9101L16.5569 56.1108C16.5198 56.0068 16.4678 55.5904 16.4084 55.6276Z" fill="#E43636"/>
<path d="M15.7256 51.0775C15.6736 51.0775 15.6439 51.2262 15.5994 51.2634L15.7256 51.5087C15.7181 51.3675 15.6662 51.1147 15.7256 51.0775Z" fill="#E43636"/>
<path d="M15.5992 51.2635L15.4136 50.8992C15.4952 51.2486 15.5546 51.3006 15.5992 51.2635Z" fill="#E43636"/>
<path d="M15.7848 52.9957L16.1411 53.5756C16.0001 53.3451 15.8664 53.1072 15.7402 52.8322L15.7848 52.9957Z" fill="#E43636"/>
<path d="M15.3394 49.5981L15.5028 49.7914L15.2429 49.442L15.3394 49.5981Z" fill="#E43636"/>
<path d="M15.0869 48.6241C15.2057 48.7653 15.176 48.3638 15.2725 48.5274C15.1939 48.2934 15.0893 48.0689 14.9607 47.8583C15.0508 48.1032 15.0937 48.3631 15.0869 48.6241Z" fill="#E43636"/>
<path d="M14.79 47.5387C14.8398 47.649 14.8968 47.7558 14.9608 47.8584C14.9171 47.7453 14.8598 47.6379 14.79 47.5387Z" fill="#E43636"/>
<path d="M15.2652 50.2077C15.3163 50.1014 15.3319 49.9816 15.3098 49.8657L15.2207 50.0516C15.2207 50.116 15.2356 50.1681 15.2652 50.2077Z" fill="#E43636"/>
<path d="M15.2207 50.0887C15.1836 49.9252 15.1539 49.8062 15.1465 49.7616L15.2207 50.0887Z" fill="#E43636"/>
<path d="M15.2726 50.2746C15.2726 50.2746 15.2206 50.2597 15.2726 50.2746V50.2746Z" fill="#E43636"/>
<path d="M15.5845 51.9474C15.4508 51.7467 15.2355 51.2932 15.2652 51.7764C15.3989 51.9177 15.384 51.6426 15.5845 51.9474Z" fill="#E43636"/>
<path d="M15.1687 50.5051L15.2207 50.9512C15.2207 50.9512 15.2801 50.8471 15.3395 50.9512L15.1687 50.5051Z" fill="#E43636"/>
<path d="M15.0796 50.3118L15.1687 50.5051L15.139 50.3489L15.0796 50.3118Z" fill="#E43636"/>
<path d="M14.8272 48.2672C14.7381 48.0823 14.6708 47.8877 14.6267 47.6873C14.6267 47.9326 14.7009 48.178 14.7529 48.4307C14.7975 48.4382 14.894 48.52 14.8272 48.2672Z" fill="#E43636"/>
<path d="M14.9905 49.1594C14.9905 49.1594 14.9756 49.1668 14.9905 49.1594V49.1594Z" fill="#E43636"/>
<path d="M14.2258 45.4941L14.2109 45.5387H14.2332L14.2258 45.4941Z" fill="#E43636"/>
<path d="M14.7381 48.4606C14.7438 48.5952 14.7904 48.7249 14.8717 48.8323C14.8272 48.7059 14.79 48.5647 14.7529 48.416C14.7306 48.4011 14.7158 48.4011 14.7381 48.4606Z" fill="#E43636"/>
<path d="M14.6045 46.9438C14.6045 47.0405 14.6045 47.152 14.6045 47.2635C14.6193 47.1669 14.649 46.9662 14.6045 46.9438Z" fill="#E43636"/>
<path d="M14.9978 49.0552C15.0201 49.0106 15.0127 49.0255 14.9978 49.0552V49.0552Z" fill="#E43636"/>
<path d="M14.9978 49.0553C14.9606 48.9783 14.9184 48.9038 14.8716 48.8323C14.8981 48.9317 14.9329 49.0286 14.9755 49.1222C14.9818 49.0996 14.9892 49.0772 14.9978 49.0553Z" fill="#E43636"/>
<path d="M13.3276 44.9439C13.4464 44.9439 13.6023 45.4272 13.5652 45.8584C13.7211 46.2525 14.0551 45.9179 14.211 45.5387C14.1591 45.5387 14.0997 45.5387 13.9735 45.1372C13.9215 45.2934 13.9735 46.0815 13.8102 45.7469C13.6542 45.2042 13.8102 45.2859 13.8102 45.0034C13.6914 45.2488 13.5132 44.3194 13.3127 44.4681L13.4464 44.9514C13.4464 44.9514 13.3424 44.8027 13.3276 44.9439Z" fill="#E43636"/>
<path d="M14.3371 46.3268L14.3816 46.4903C14.3723 46.2857 14.3897 46.0808 14.4336 45.8807C14.3297 45.6056 14.2703 45.5536 14.2332 45.5387L14.3594 46.3788L14.3371 46.3268Z" fill="#E43636"/>
<path d="M14.5152 47.2338C14.3668 47.1223 14.2406 46.7283 14.144 47.0033C14.2406 47.5015 14.3222 47.3305 14.4336 47.6204C14.2257 46.8249 14.5598 47.836 14.5004 47.2413C14.5496 47.3803 14.5917 47.5217 14.6266 47.665C14.6266 47.5163 14.6266 47.3751 14.6266 47.2413C14.6266 47.2413 14.6266 47.2933 14.6266 47.2413C14.6097 47.2469 14.5915 47.2469 14.5746 47.2413C14.5746 47.0033 14.5746 47.1967 14.6266 47.2413L14.3816 46.4904C14.4074 46.7412 14.4521 46.9897 14.5152 47.2338Z" fill="#E43636"/>
<path d="M14.8792 51.4344C14.8792 51.4344 14.8792 51.4344 14.8792 51.3972C14.8792 51.3601 14.8495 51.3378 14.8792 51.4344Z" fill="#E43636"/>
<path d="M14.8643 51.085C14.9323 51.1633 14.9784 51.2582 14.9979 51.3601C14.9979 51.5385 14.9385 51.3601 14.894 51.3601C14.9608 51.4642 15.1018 51.7318 15.0573 51.3601V51.308C15.0033 51.0632 15.0033 50.8095 15.0573 50.5646C14.9496 50.7187 14.8831 50.8979 14.8643 51.085Z" fill="#E43636"/>
<path d="M14.6119 49.1519L14.4041 48.4902V48.862H14.4634C14.4783 49.2188 14.5525 49.1148 14.6119 49.1519Z" fill="#E43636"/>
<path d="M14.2703 45.4123L14.4262 45.4792L14.1738 45.1223C14.2035 45.219 14.2332 45.3156 14.2703 45.4123Z" fill="#E43636"/>
<path d="M14.144 44.5424L14.2702 44.5573L14.1663 44.3342L14.144 44.5424Z" fill="#E43636"/>
<path d="M47.7527 18.4465C47.8219 18.4428 47.8913 18.4428 47.9606 18.4465C47.8915 18.4387 47.8218 18.4387 47.7527 18.4465Z" fill="#E43636"/>
<path d="M46.2753 18.2383L46.2307 18.2903C46.2975 18.2903 46.3346 18.2755 46.2753 18.2383Z" fill="#E43636"/>
<path d="M20.7961 25.2939C21.0931 25.2121 21.4495 25.1526 21.3455 25.0708L21.197 25.0188C21.0807 25.1335 20.945 25.2266 20.7961 25.2939Z" fill="#E43636"/>
<path d="M34.1594 19.0189H34.0703L33.8921 19.1676L34.1594 19.0189Z" fill="#E43636"/>
<path d="M34.293 18.4614H34.6939C34.5606 18.4466 34.4262 18.4466 34.293 18.4614Z" fill="#E43636"/>
<path d="M55.7261 20.1342L55.9933 20.0821C55.6296 19.9706 55.7706 20.0821 55.7261 20.1342Z" fill="#E43636"/>
<path d="M14.3595 35.6207C14.4534 35.4373 14.5305 35.2457 14.5897 35.0482C14.4783 35.3382 14.2704 35.524 14.3595 35.6207Z" fill="#E43636"/>
<path d="M46.9804 19.7253C47.1066 19.7253 47.166 19.7253 47.166 19.6658C47.0398 19.6806 46.9655 19.7253 46.9804 19.7253Z" fill="#E43636"/>
<path d="M14.7752 34.3569L14.7084 34.4759C14.6866 34.67 14.6468 34.8616 14.5896 35.0484C14.72 34.8421 14.7847 34.6009 14.7752 34.3569Z" fill="#E43636"/>
<path d="M80.4626 35.7174L80.4998 35.7769C80.4998 35.7769 80.4998 35.7471 80.4626 35.7174Z" fill="#E43636"/>
<path d="M84.7167 43.2041C84.6472 43.111 84.5828 43.0142 84.5237 42.9142C84.5749 43.019 84.6398 43.1165 84.7167 43.2041Z" fill="#E43636"/>
<path d="M13.4611 41.9402C13.4611 41.903 13.424 41.8733 13.3943 41.8658C13.4253 41.881 13.4493 41.9077 13.4611 41.9402Z" fill="#E43636"/>
<path d="M13.877 41.286C13.877 41.2191 13.877 41.1373 13.9215 41.0481C13.9018 41.1264 13.8869 41.2059 13.877 41.286Z" fill="#E43636"/>
<path d="M13.9437 41.286C13.9407 41.3405 13.9407 41.3951 13.9437 41.4496C13.9437 41.4496 13.9585 41.4198 13.9437 41.286Z" fill="#E43636"/>
<path d="M68.0127 26.0968C68.228 26.186 68.1537 26.1488 68.0127 26.0968V26.0968Z" fill="#E43636"/>
<path d="M24.2334 21.5096L24.2185 21.5245L24.2408 21.5171L24.2334 21.5096Z" fill="#E43636"/>
<path d="M24.8198 21.1156C24.6776 21.3111 24.4735 21.4526 24.2407 21.5171L24.6119 21.7401C24.6713 21.5245 24.7456 21.3238 24.8198 21.1156Z" fill="#E43636"/>
<path d="M51.2715 19.0488L50.8558 18.848C51.4794 18.7588 51.8729 18.9521 51.4646 18.6696C51.3161 19.0413 49.5789 18.3648 49.4378 18.744L49.1409 18.6027C49.2299 18.6027 49.2448 18.6027 49.3339 18.6027C48.7548 18.2979 48.8291 18.8034 48.0495 18.6027C47.7823 18.5209 47.5892 18.454 47.7897 18.4243H47.1587C46.9731 18.4243 47.0324 18.335 47.2106 18.3648L46.2603 18.283C46.1193 18.3276 45.8001 18.3871 45.6442 18.4168C45.414 18.3276 45.7704 18.4168 45.7184 18.3276H45.1839C44.976 18.2012 45.4214 18.1492 45.7852 18.2012C45.3323 17.7477 45.3398 18.2458 44.3004 17.9038H44.8052C44.5083 17.6287 44.1074 17.6957 43.5506 17.5247C43.6842 17.6064 44.6568 17.941 44.0703 18.0154C43.8457 17.9622 43.6118 17.9622 43.3873 18.0154C43.3873 17.8741 43.0903 17.8964 42.7117 17.8815V17.6957C42.2959 17.6957 42.3256 17.8295 42.0806 17.9038C41.9541 17.909 41.8282 17.8817 41.7152 17.8244C41.6021 17.7672 41.5056 17.6819 41.4348 17.5767C40.6924 17.5172 41.9322 17.8369 41.071 17.8369C40.482 17.7759 39.8869 17.8161 39.3115 17.9559C38.8809 17.889 39.3783 17.8369 39.2298 17.7849L38.8586 17.9484C38.7621 17.9484 38.7918 17.8964 38.8067 17.8741C38.4874 17.9484 38.8067 18.0674 38.2944 18.1417C38.1756 18.3722 37.255 17.8667 36.6537 18.1863C36.4978 18.1417 36.7205 18.06 36.6537 17.993C36.1792 18.1003 35.7167 18.2547 35.2728 18.454L34.6715 18.4168C35.1169 18.4912 34.5898 18.744 34.137 18.9447C34.2658 18.9877 34.3972 19.0225 34.5304 19.0488L33.788 19.2644C33.6915 19.2644 33.788 19.1677 33.8697 19.0711L33.7361 19.138C33.4539 19.138 33.5802 18.9819 33.7361 18.848L34.0256 18.9224C34.1964 18.7811 34.3523 18.625 34.3003 18.5209C34.2219 18.5591 34.1398 18.589 34.0553 18.6101C34.0998 18.573 34.1295 18.5358 34.0998 18.5209C34.0701 18.506 33.9959 18.5581 33.8771 18.625L33.6692 18.4466V18.5358C33.3203 18.5358 32.9862 18.5358 32.6447 18.5878L31.6351 19.1454C31.2259 19.3922 30.79 19.5918 30.3359 19.7402C30.5734 19.5172 30.3359 19.48 30.3359 19.2941C30.6922 19.4131 31.1822 18.9893 31.7761 18.9001C31.4643 18.9373 31.5163 18.848 31.5831 18.796L30.5883 19.2272C30.5883 19.0785 30.3433 19.1752 30.0538 19.1826C30.3359 19.4056 29.3114 19.5841 28.955 19.8071C28.8956 19.7253 28.955 19.5915 29.4821 19.4577C28.8585 19.4577 28.8659 20.0153 28.2646 20.0079C28.3834 19.9633 28.4576 19.9633 28.4873 19.8963C28.22 20.0599 27.5073 20.2532 27.641 20.1119L27.7672 20.0599C27.3588 20.2012 26.7427 20.4242 26.2304 20.6621C25.7181 20.9 25.3321 21.19 25.3247 21.3312C25.3022 21.2009 25.3022 21.0676 25.3247 20.9372C24.9712 21.3957 24.6417 21.8722 24.3373 22.3647C24.3373 22.1119 23.6543 21.8963 24.2259 21.4502C23.9422 21.5456 23.6781 21.6917 23.4464 21.8814C23.58 21.8442 23.8993 21.9929 23.7434 22.1045C23.3862 22.1173 23.0332 22.185 22.6966 22.3052C22.897 22.2308 22.8748 22.6472 22.5926 22.8182C22.5926 22.7438 22.3922 22.5431 22.4739 22.4465L21.9542 23.1899C22.0952 23.0264 21.8354 22.9297 21.6201 22.952C21.6795 22.952 21.5236 23.0561 21.338 23.1676C21.1751 23.2771 21.0189 23.3963 20.8703 23.5245L21.1598 23.4427C20.3803 23.978 20.6847 24.3572 19.9794 24.9297C19.9794 24.8033 19.92 24.4167 19.534 24.6992C19.4556 25.3566 19.2514 25.9927 18.9326 26.5727L18.7619 26.6173L18.4278 27.1378C18.5635 26.3805 18.8139 25.6484 19.1702 24.9668C18.8509 25.1453 19.0143 24.9668 18.6282 25.3088C18.4278 25.3683 18.747 25.0189 18.8658 24.9074C18.5326 25.16 18.2175 25.4357 17.9229 25.7326C18.1085 25.8293 17.4255 26.5653 17.5814 26.6396L18.3238 25.517C18.4946 25.6211 18.1976 26.4761 17.5814 27.0783C17.3661 27.1824 17.4181 26.7214 17.3587 26.6917C17.2244 26.961 17.0546 27.211 16.8539 27.4352L16.9949 27.0709C16.6386 27.4129 16.7203 27.8664 16.208 28.2084C16.0744 28.3571 15.666 28.5727 15.7403 28.6619C15.9376 28.6098 16.1469 28.629 16.3315 28.716C16.5161 28.803 16.6643 28.9523 16.75 29.1377C16.456 29.4463 16.1436 29.7368 15.8145 30.0076C15.4879 30.1935 15.7106 29.3756 15.4285 29.5318C15.4656 29.5318 15.4285 29.7622 15.4285 29.8366C15.2874 29.9927 15.3171 29.6656 15.1241 30.0819C15.2652 30.2529 14.6935 30.9072 15.1761 30.357C15.0445 30.6618 14.8881 30.9553 14.7084 31.2343C14.9088 31.1525 14.8791 31.8291 14.79 32.2603C14.7529 32.2231 14.6564 32.2603 14.6118 32.3198C14.2913 32.986 14.0184 33.6742 13.7952 34.3792C13.7284 34.4461 13.5651 34.8253 13.5279 34.632C13.5558 34.7994 13.5558 34.9702 13.5279 35.1376C13.231 35.5836 13.6541 34.5651 13.3498 34.8922C13.4611 34.9517 13.3126 35.5836 13.3498 35.9628C13.5279 35.881 13.5651 35.1376 13.5948 34.7584C13.8546 34.8253 13.8843 35.5019 13.8843 36.3643C13.8323 37.0483 13.6764 36.6319 13.6913 36.7509C13.4166 38.0222 13.9882 37.8884 13.6913 38.9218C13.4982 39.3307 13.372 38.9218 13.2458 39.0111C13.2787 38.5949 13.3458 38.1821 13.4463 37.7769L13.3349 38.2378C13.2792 37.9932 13.2792 37.7391 13.3349 37.4944C13.14 38.5498 13.0258 39.6185 12.9934 40.6913C13.0454 40.8697 13.0973 41.1746 13.1642 41.0333V40.7136C13.2978 40.4237 13.3423 41.3084 13.4017 40.9069C13.5372 41.3912 13.6096 41.891 13.617 42.3939L13.4388 42.5203C13.5034 42.3374 13.5034 42.138 13.4388 41.9552C13.5354 42.2006 13.2458 42.8846 13.5057 43.1448L13.6022 42.7136C13.7817 43.1777 13.9039 43.6621 13.966 44.1559C14.1144 43.8957 13.9288 44.0369 14.0996 43.6503C13.8472 43.9923 13.9956 42.3195 13.7655 42.8548C13.9882 42.4608 13.8249 42.1931 14.0031 41.6876C13.9437 41.6876 13.8991 41.866 13.9066 41.4348C13.8822 41.4069 13.8644 41.3739 13.8546 41.3381C13.8388 41.4162 13.8112 41.4914 13.7729 41.5612C13.617 41.3456 13.6393 40.6467 13.5651 40.4162C13.4908 40.1857 13.6319 40.5203 13.6987 40.4162L13.5948 40.0668C13.7284 40.0668 13.8175 39.3828 13.8917 39.9924C13.8917 39.814 13.8917 39.6281 13.8917 39.4497C13.9958 39.1182 14.041 38.7709 14.0253 38.4237C14.0699 38.1709 13.9288 37.762 14.0253 37.9999C14.0105 37.7151 14.0105 37.4297 14.0253 37.1449H14.0625C14.1367 36.736 14.159 36.2974 14.2035 35.8439C14.2834 35.3848 14.4336 34.9409 14.649 34.5279C14.68 34.1778 14.7783 33.837 14.9385 33.5242L15.0796 33.4722C15.1686 33.1227 15.5547 32.5057 15.5027 32.3198C15.7945 32.0803 16.0132 31.7634 16.1338 31.4053C16.2228 31.1897 16.3194 30.9741 16.4084 30.7659C16.4946 30.5933 16.5965 30.4291 16.7128 30.2752L16.6534 30.134C16.8984 29.7771 17.0618 29.3905 17.3364 28.9072L17.2102 28.8552C17.5872 28.3174 18.0175 27.8192 18.4946 27.3683C18.4946 27.4426 18.361 27.569 18.2496 27.6508C18.6397 27.4014 18.9673 27.0656 19.2073 26.6694C19.4367 26.2901 19.7586 25.9755 20.1427 25.7549C20.2342 25.6166 20.3594 25.504 20.5065 25.4278L20.5659 25.3757L20.8257 25.2494C20.7467 25.2691 20.6715 25.3018 20.603 25.346C20.7069 25.2345 20.8925 25.0932 21.0559 24.9222L21.2266 24.9743H21.2637C21.479 24.8776 21.3677 24.8107 21.2044 24.7958C21.2767 24.718 21.3414 24.6334 21.3974 24.5431C21.6869 24.6174 21.8354 24.1044 22.1917 24.1713C22.2586 23.9854 23.1272 23.465 23.1049 23.1825C23.1049 23.1825 23.194 23.1825 23.1049 23.2568C23.3348 23.1511 23.5515 23.0189 23.7508 22.8628L23.9364 22.9669L24.3224 22.4836C24.6788 22.4167 24.8347 22.4093 24.5971 22.6918C25.2282 22.1045 25.1613 22.3201 25.7107 21.8219V21.9483C25.9409 21.8368 26.2452 21.5245 26.4531 21.5543C27.0433 21.4359 27.6202 21.2591 28.1755 21.0264C28.9464 20.7487 29.7419 20.5446 30.5512 20.4168C30.1948 20.1491 31.249 20.4168 31.2342 20.1268C31.3381 20.1863 31.546 20.1789 31.3307 20.3053C32.0285 20.0376 32.4443 20.2012 32.8972 19.874C32.9937 19.9335 32.7635 20.0227 32.8452 20.0525C32.9268 20.0822 33.0605 19.9409 33.1496 19.9707C33.2387 20.0004 33.0531 20.0599 32.9491 20.1194C33.6915 19.9558 33.6915 19.6956 33.7286 19.4577C33.8654 19.4898 34.0076 19.4911 34.145 19.4615C34.2824 19.4319 34.4115 19.3722 34.523 19.2867C34.6715 19.3462 34.9016 19.3908 34.4413 19.4874C34.5676 19.4874 34.9759 19.4428 35.3471 19.3908C35.7183 19.3387 36.0895 19.3016 36.0895 19.2049C36.2375 19.2222 36.3876 19.2044 36.5275 19.1529L37.7599 19.0636H37.5965C37.8118 18.8257 38.0791 18.9893 38.5542 18.9373C39.07 18.932 39.5856 18.9568 40.0984 19.0116L40.039 18.8703C40.1355 18.5655 40.9893 19.0265 41.6055 18.9596L41.3828 18.8703C41.7317 18.7811 42.3182 19.3313 42.6523 19.3908C42.7265 19.3908 42.5335 19.428 42.4296 19.4428C43.3056 19.6659 42.5558 19.257 43.2239 19.2495C43.3353 19.3536 43.0458 19.4949 43.4912 19.532C43.7628 19.5532 44.036 19.5306 44.3004 19.4651C44.6674 19.4183 45.0402 19.4539 45.3917 19.5692C45.2655 19.4726 45.1393 19.3833 45.4511 19.361C45.9263 19.361 46.6835 19.7997 47.1438 19.6064C47.1958 19.6064 47.218 19.6584 47.218 19.6733C47.6877 19.7039 48.1589 19.7039 48.6286 19.6733C48.8736 20.2235 50.8929 19.8517 50.7964 20.2904C51.1602 20.3424 51.5388 20.4465 51.8803 20.5209V20.5655C52.2685 20.7126 52.6894 20.7512 53.0979 20.677C53.2538 20.7439 53.0979 20.7588 53.0979 20.7736C53.7264 21.033 54.4003 21.1644 55.0801 21.1602L55.1246 21.3312C55.9005 21.655 56.6966 21.9282 57.5077 22.1491C57.5077 22.1491 57.4632 22.1862 57.3815 22.1491C58.5248 22.3795 59.7869 23.5171 60.3511 23.1676C60.6017 23.2099 60.8496 23.267 61.0935 23.3386C60.21 22.9 61.3162 23.1751 60.9821 22.9297C61.3533 23.0635 61.8285 23.5022 61.3905 23.3238L61.3311 23.2717C61.0638 23.4501 62.4001 23.8739 62.2962 24.0152C63.1673 24.3941 64.0108 24.8338 64.8203 25.3311C65.6221 25.8218 66.4314 26.253 67.196 26.7363L67.1292 26.4389L67.6563 26.7809C67.7677 26.9147 67.7603 27.0411 67.3816 26.7809C67.4784 26.877 67.595 26.9507 67.7233 26.997C67.8515 27.0432 67.9883 27.0608 68.124 27.0486C68.8219 27.5913 67.7009 27.0486 67.9236 27.2344L68.2428 27.4129L68.1908 27.3459C68.4878 27.3774 68.7716 27.4849 69.0149 27.6582C69.2822 27.8738 69.0891 27.8589 69.2005 27.9407C69.2005 27.9407 69.2005 27.9407 69.3713 28.0522C69.5941 28.1924 69.8097 28.3437 70.0171 28.5058L69.8538 28.1786C70.1879 28.3125 70.4626 28.6173 70.2696 28.2456C70.5368 28.8106 72.6452 30.0299 72.8308 30.3273C73.3037 30.568 73.741 30.8732 74.13 31.2343C74.0335 31.1154 74.0855 30.9072 74.479 31.2343C74.0707 31.4276 75.1249 31.9778 75.2214 32.4536C75.0729 32.0596 76.3424 33.4127 76.09 32.8105C76.3869 33.1302 76.0083 32.9443 76.1865 33.2343C76.6435 33.5625 77.0641 33.9389 77.4411 34.3569C77.8569 34.7881 78.2355 35.2937 78.7032 35.7249C78.7552 35.7249 78.7032 35.4944 78.9111 35.6357L79.1932 36.3048C79.3862 36.4609 79.5718 36.2602 79.7574 36.7137C79.7574 36.6394 79.7574 36.5204 79.8539 36.6319C80.5963 37.6431 81.4427 38.5947 82.3039 39.5538C83.1231 40.5396 83.821 41.6204 84.3826 42.773C84.2787 42.431 84.3826 42.6169 84.5608 42.8325C84.4865 42.6764 84.6647 42.7656 84.7092 42.6987L85.1176 43.7024C85.3848 43.7544 85.7486 44.6466 85.9639 44.6391L85.756 44.3789C86.1866 44.6392 85.8303 43.5834 86.105 43.4868C85.615 43.2042 85.6966 42.1411 84.9245 41.6578C84.8651 41.472 85.0953 41.7247 85.0953 41.6132C84.8109 41.4543 84.5865 41.2061 84.4568 40.9069H84.5088C84.172 40.4772 83.8573 40.0305 83.5659 39.5687C83.2661 39.0507 82.9313 38.5539 82.5637 38.0817V38.2601C82.4543 38.1126 82.3622 37.9529 82.289 37.7843C81.8881 37.6356 82.8681 38.4832 82.4672 38.3717C82.4078 37.8661 80.9824 36.6468 81.0566 36.2082C80.7226 35.8364 81.0566 36.4163 80.7003 36.0595V35.9033H80.537C80.3217 35.658 80.2845 35.4647 80.3365 35.4052C80.4081 35.4778 80.485 35.5449 80.5667 35.6059C80.2833 35.2621 79.9729 34.9413 79.6386 34.6469L79.9282 35.0335C79.4234 34.5725 78.9185 34.0149 78.3766 33.5019C77.8563 33.0111 77.3032 32.5566 76.721 32.1414V32.2529C75.8969 31.6878 76.2013 31.6358 75.3105 31.0038C75.0588 30.898 74.8257 30.7524 74.62 30.5726C74.8873 30.6841 74.3082 30.1265 74.62 30.2901C73.692 29.7102 74.1375 30.0299 73.4322 29.7771L73.3654 29.5912C73.0971 29.5295 72.8444 29.4131 72.623 29.2492C73.0461 29.4277 72.4374 28.9072 72.9199 29.1005C72.1256 28.2381 71.3906 28.3125 71.1604 27.7251C70.5591 27.6731 71.9028 28.4314 71.5985 28.3199C71.7395 28.5429 71.1159 28.253 70.8561 28.0225C70.5962 27.792 70.5814 27.279 69.787 26.8478C69.846 26.8706 69.9031 26.8979 69.9578 26.9296C69.7053 26.6768 69.3267 26.662 69.0372 26.3274C68.7402 26.3646 68.5769 26.03 68.3913 26.1936L69.1337 26.595C68.5665 26.4565 68.0334 26.2035 67.5672 25.8516C67.7273 25.8684 67.8845 25.9059 68.0349 25.9631C67.8716 25.7847 67.634 25.7698 67.4633 25.5839C67.6415 25.4204 68.3616 26.082 68.8961 26.201C68.7328 25.9854 67.9755 25.8293 68.3319 25.7475C67.8419 25.8441 67.5895 25.2122 66.9065 25.1453L67.0104 25.0412C66.849 25.0074 66.6921 24.955 66.5427 24.885H66.9213C66.4017 24.781 66.127 24.2977 65.6518 24.1416C66.5576 24.6248 65.778 24.4018 66.1047 24.6992C64.9169 24.268 65.6444 24.0226 64.3675 23.4204C64.5457 23.4873 64.9614 23.8368 64.6719 23.755C64.4471 23.6075 64.2337 23.4435 64.0334 23.2643C63.1796 22.9 64.1002 23.4501 63.7067 23.3684C63.4915 23.0784 63.2613 23.2345 62.8678 23.1156L62.9272 22.9818C61.9992 22.4539 62.5486 23.1379 61.7245 22.6398H62.17L61.7023 22.4762L61.8582 22.3721C61.4529 22.2795 61.0629 22.1293 60.7 21.926C60.7743 22.0598 60.5367 22.1416 60.0987 21.9706C59.8314 21.7773 60.314 21.9112 59.6904 21.6881C59.7926 21.6536 59.9028 21.65 60.0071 21.6777C60.1114 21.7055 60.2052 21.7634 60.2769 21.8442C60.3214 21.8071 60.4476 21.8442 60.4996 21.7848C60.178 21.5939 59.8304 21.4512 59.4676 21.361C59.5507 21.3904 59.6284 21.4331 59.6978 21.4874L58.7327 21.3238C58.6065 21.2123 58.7327 21.2197 58.8589 21.2197C58.6733 21.1677 58.5248 21.1751 58.2501 21.0859C58.3615 21.0041 58.3837 20.8852 58.7846 20.9818C58.4803 20.9149 58.1833 20.8331 57.8789 20.7736C57.8344 20.7067 57.4706 20.4986 57.6042 20.4911C57.1365 20.2755 56.3347 20.3276 55.7185 20.0376C55.6326 20.0529 55.5446 20.0529 55.4587 20.0376C54.8728 19.7398 54.2351 19.5581 53.5804 19.5023L53.2166 19.1975C52.6301 19.1008 53.714 19.5915 52.7415 19.428C52.0511 19.3239 52.5336 19.19 52.3109 19.0785C51.7741 19.1792 51.2208 19.1461 50.6999 18.9819C50.8917 18.9912 51.0827 19.0135 51.2715 19.0488ZM44.0554 18.0897C44.2039 18.0897 44.4934 17.993 44.5825 18.0897C44.4118 18.2384 44.293 18.1492 44.0554 18.0897ZM33.0382 18.9224C33.1766 18.8553 33.3335 18.837 33.4836 18.8703C33.3384 18.9086 33.1884 18.9261 33.0382 18.9224ZM13.8472 38.9962C13.9511 38.6691 13.9214 38.7731 13.8769 38.9813L13.8472 38.9962ZM13.7432 39.6207C13.7432 39.6802 13.7804 39.6802 13.8026 39.6207C13.8249 39.5612 13.7655 39.4348 13.8026 39.2787C13.7804 39.3307 13.7358 39.4125 13.7729 39.6058L13.7432 39.6207ZM69.2005 28.0076L69.1411 27.9036C69.4158 28.0076 69.3193 28.0002 69.2302 27.9928L69.2005 28.0076Z" fill="#E43636"/>
<path d="M34.2705 18.5283C34.303 18.5402 34.3296 18.5642 34.3447 18.5952C34.3967 18.5655 34.3893 18.5358 34.2705 18.5283Z" fill="#E43636"/>
<path d="M15.2651 29.7324C15.3251 29.6607 15.3951 29.5981 15.473 29.5465C15.473 29.5465 15.3913 29.5614 15.2651 29.7324Z" fill="#E43636"/>
<path d="M14.0921 42.9291L14.0327 42.5276C14.0545 42.6505 14.0545 42.7764 14.0327 42.8993C14.0327 42.8993 14.0847 42.7729 14.0921 42.9291Z" fill="#E43636"/>
<path d="M13.684 46.5572C13.684 46.6167 13.684 46.6836 13.7359 46.7431H13.7953C13.7359 46.4903 13.6617 46.2896 13.684 46.5572Z" fill="#E43636"/>
<path d="M13.6467 43.3455C13.5204 43.3901 13.5947 43.6428 13.6467 43.9254V43.8733C13.8248 43.9402 13.7357 43.6428 13.6467 43.3455Z" fill="#E43636"/>
<path d="M13.6689 43.9849C13.6991 44.0745 13.7215 44.1665 13.7358 44.2599C13.7729 44.2599 13.7358 44.141 13.6689 43.9849Z" fill="#E43636"/>
<path d="M13.8472 40.4013C13.8472 40.5351 13.9957 40.4905 13.9512 40.5649C14.0997 40.7136 13.7359 39.6727 13.8472 40.4013Z" fill="#E43636"/>
<path d="M13.2755 43.6131L13.4091 43.4942L13.2755 43.3455C13.2681 43.4347 13.2755 43.5165 13.2755 43.6131Z" fill="#E43636"/>
<path d="M13.2385 41.3307C13.2385 41.4794 13.2385 41.6355 13.2385 41.7916C13.2385 41.7916 13.2831 41.8437 13.2979 41.9106C13.3023 41.7156 13.2824 41.5208 13.2385 41.3307Z" fill="#E43636"/>
<path d="M13.2756 41.9105C13.2772 42.0361 13.2947 42.161 13.3276 42.2823C13.3187 42.1573 13.3014 42.0331 13.2756 41.9105Z" fill="#E43636"/>
<path d="M13.179 42.9887L13.2012 42.8474L13.1938 42.5203L13.179 42.9887Z" fill="#E43636"/>
<path d="M13.6392 36.4013L13.6763 35.8958C13.6392 35.8363 13.5798 35.9627 13.5724 36.156C13.565 36.3493 13.5724 36.4683 13.6392 36.4013Z" fill="#E43636"/>
<path d="M12.9934 37.8586C13.0159 37.7769 13.0594 37.7026 13.1196 37.643L12.9934 37.6058V37.8586Z" fill="#E43636"/>
<path d="M13.1864 36.3717C13.1419 36.3122 13.1864 35.6282 13.0676 36.2527C13.1047 36.3196 13.0602 36.8252 13.1864 36.3717Z" fill="#E43636"/>
<path d="M16.1264 29.3236L16.0596 29.4351L16.3268 29.5764L16.1264 29.3236Z" fill="#E43636"/>
<path d="M20.2022 23.807C19.6677 24.1341 20.2022 24.0375 19.7048 24.32C19.638 24.4613 20.1057 24.0895 20.0315 24.2308C20.2839 23.9483 20.462 23.8665 20.2022 23.807Z" fill="#E43636"/>
<path d="M20.0314 24.2307L19.9126 24.3794C19.9556 24.3327 19.9953 24.283 20.0314 24.2307Z" fill="#E43636"/>
<path d="M85.333 44.4607L85.4889 44.8101L85.4369 44.5499L85.333 44.4607Z" fill="#E43636"/>
<path d="M85.9193 44.9587L85.8005 45.1297L86.0752 45.2338C86.0027 45.1554 85.9494 45.0613 85.9193 44.9587Z" fill="#E43636"/>
<path d="M43.0012 17.651L42.9641 17.6956C43.0235 17.7477 43.1126 17.7551 43.2982 17.77L43.0012 17.651Z" fill="#E43636"/>
<path d="M48.2649 18.3424L48.1758 18.3201L48.3168 18.5282L48.2649 18.3424Z" fill="#E43636"/>
<path d="M52.6822 19.019C52.5041 18.9669 52.2888 18.9521 52.1106 18.9C52.5041 18.9818 52.6748 19.242 52.6822 19.019Z" fill="#E43636"/>
<path d="M203.13 36.9739V45.8361C203.13 45.8361 188.668 48.5126 179.974 55.7912C193.196 41.3529 203.13 36.9739 203.13 36.9739Z" fill="#4EDFBC"/>
</g>
</g>
<defs>
<clipPath id="clip0_484_596">
<rect width="222.72" height="223.042" fill="white" transform="translate(0.639893 0.0231934)"/>
</clipPath>
<clipPath id="clip1_484_596">
<rect width="222.72" height="222.091" fill="white" transform="translate(0.639893 1.13843)"/>
</clipPath>
</defs>
</svg>
